G04 #@! TF.GenerationSoftware,KiCad,Pcbnew,(5.1.5)-3*
G04 #@! TF.CreationDate,2020-09-09T17:22:44+01:00*
G04 #@! TF.ProjectId,tight_omnetics,74696768-745f-46f6-9d6e-65746963732e,rev?*
G04 #@! TF.SameCoordinates,Original*
G04 #@! TF.FileFunction,Copper,L3,Inr*
G04 #@! TF.FilePolarity,Positive*
%FSLAX46Y46*%
G04 Gerber Fmt 4.6, Leading zero omitted, Abs format (unit mm)*
G04 Created by KiCad (PCBNEW (5.1.5)-3) date 2020-09-09 17:22:44*
%MOMM*%
%LPD*%
G04 APERTURE LIST*
%ADD10C,0.500000*%
%ADD11C,0.650000*%
%ADD12C,1.400000*%
%ADD13C,0.127000*%
%ADD14C,0.025400*%
G04 APERTURE END LIST*
D10*
X136419840Y-91634640D03*
X135779760Y-91634640D03*
X135139680Y-91634640D03*
X134499680Y-91634640D03*
X133862060Y-91639720D03*
X133224520Y-91639720D03*
X132584440Y-91639720D03*
X131944360Y-91639720D03*
X131304280Y-91639720D03*
X130664200Y-91639720D03*
X130024120Y-91639720D03*
X129384040Y-91639720D03*
X128743960Y-91639720D03*
X128103880Y-91639720D03*
X127463800Y-91642260D03*
X126823720Y-91642260D03*
X126183640Y-91642260D03*
X125543640Y-91642260D03*
X125543640Y-92822260D03*
X126183640Y-92823360D03*
X126823720Y-92823360D03*
X127461260Y-92823360D03*
X128101340Y-92823360D03*
X128741420Y-92825900D03*
X129378960Y-92825900D03*
X130019040Y-92823360D03*
X136414760Y-92825900D03*
X135774680Y-92823360D03*
X135134600Y-92823360D03*
X134494520Y-92825900D03*
X133854440Y-92825900D03*
X133214360Y-92823360D03*
X132574280Y-92823360D03*
X131936740Y-92825900D03*
X131296660Y-92823360D03*
X130656580Y-92823360D03*
D11*
X124363480Y-90162380D03*
D10*
X130654980Y-95933260D03*
X131295060Y-95933260D03*
X131935140Y-95935800D03*
X132572680Y-95933260D03*
X133212760Y-95933260D03*
X133852840Y-95935800D03*
X134492920Y-95935800D03*
X135133000Y-95933260D03*
X135773080Y-95933260D03*
X136413160Y-95935800D03*
X130017440Y-95933260D03*
X129377360Y-95935800D03*
X128739820Y-95935800D03*
X128099740Y-95933260D03*
X127459660Y-95933260D03*
X126822120Y-95933260D03*
X126182040Y-95933260D03*
X125542040Y-95932160D03*
X125542040Y-94752160D03*
X126182040Y-94752160D03*
X126822120Y-94752160D03*
X127462200Y-94752160D03*
X128102280Y-94749620D03*
X128742360Y-94749620D03*
X129382440Y-94749620D03*
X130022520Y-94749620D03*
X130662600Y-94749620D03*
X131302680Y-94749620D03*
X131942760Y-94749620D03*
X132582840Y-94749620D03*
X133222920Y-94749620D03*
X133860460Y-94749620D03*
X134498080Y-94744540D03*
X135138080Y-94744540D03*
X135778160Y-94744540D03*
X136418240Y-94744540D03*
D11*
X131501700Y-89229100D03*
X129701700Y-89229100D03*
X133310200Y-89229100D03*
X137693400Y-90652600D03*
X132401700Y-89229100D03*
X136001700Y-89229100D03*
X135101700Y-89229100D03*
X134210200Y-89229100D03*
X137807700Y-91846400D03*
X135995800Y-90566400D03*
X132395800Y-90566400D03*
X133295800Y-90566400D03*
X131498300Y-90571100D03*
X130598300Y-90571100D03*
X134195800Y-90566400D03*
X135095800Y-90566400D03*
X137795000Y-93091000D03*
X124114560Y-95194120D03*
X124307600Y-97353120D03*
X124132340Y-92359480D03*
X124155200Y-96281240D03*
X124912120Y-98178620D03*
X125054360Y-89397840D03*
X124193300Y-91224100D03*
X126833200Y-98362600D03*
X126174500Y-97053400D03*
X126166880Y-90525600D03*
X127001700Y-89229100D03*
X125933200Y-98399600D03*
X127011000Y-96982200D03*
X126998300Y-90571100D03*
X126098300Y-89179400D03*
X128633200Y-98362600D03*
X127911000Y-96982200D03*
X127898300Y-90571100D03*
X128801700Y-89229100D03*
X127733200Y-98362600D03*
X128811000Y-96982200D03*
X128798300Y-90571100D03*
X127901700Y-89229100D03*
X130433200Y-98362600D03*
X129711000Y-96982200D03*
X129698300Y-90571100D03*
X130601700Y-89229100D03*
X129533200Y-98362600D03*
X130611000Y-96982200D03*
X132233200Y-98362600D03*
X131511000Y-96982200D03*
X131333200Y-98362600D03*
X132411000Y-96982200D03*
X134033200Y-98362600D03*
X133311000Y-96982200D03*
X133133200Y-98362600D03*
X134211000Y-96982200D03*
X135833200Y-98362600D03*
X135111000Y-96982200D03*
X134933200Y-98362600D03*
X136011000Y-96982200D03*
X137795000Y-94488000D03*
X137693400Y-96901000D03*
X137795000Y-95707200D03*
X136992360Y-97937320D03*
D12*
X124043440Y-93853000D03*
D11*
X137033000Y-89662000D03*
D13*
X136414760Y-92185240D02*
X136414760Y-91639720D01*
X136414760Y-92825900D02*
X136414760Y-92185240D01*
X136413160Y-95392160D02*
X136413160Y-94749620D01*
X136413160Y-95935800D02*
X136413160Y-95392160D01*
X136413160Y-95392160D02*
X125605460Y-95392160D01*
X136414760Y-92185240D02*
X125594360Y-92185240D01*
X125542040Y-94752160D02*
X125542040Y-95932160D01*
X125543640Y-91642260D02*
X125543640Y-92822260D01*
X127842501Y-97571901D02*
X128633200Y-98362600D01*
X125925619Y-97571901D02*
X127842501Y-97571901D01*
X128298859Y-94306119D02*
X125331699Y-94306119D01*
X125331699Y-94306119D02*
X124970932Y-94666886D01*
X128742360Y-94749620D02*
X128298859Y-94306119D01*
X124970932Y-94666886D02*
X124970932Y-96617214D01*
X124970932Y-96617214D02*
X125925619Y-97571901D01*
X127199511Y-97828911D02*
X127733200Y-98362600D01*
X128681929Y-94049109D02*
X125225242Y-94049109D01*
X124713922Y-96723671D02*
X125819162Y-97828911D01*
X125819162Y-97828911D02*
X127199511Y-97828911D01*
X129382440Y-94749620D02*
X128681929Y-94049109D01*
X125225242Y-94049109D02*
X124713922Y-94560429D01*
X124713922Y-94560429D02*
X124713922Y-96723671D01*
X134551701Y-97844099D02*
X136279949Y-97844099D01*
X133288431Y-94044029D02*
X132582840Y-94749620D01*
X136279949Y-97844099D02*
X137118751Y-97005298D01*
X136737578Y-94044029D02*
X133288431Y-94044029D01*
X134033200Y-98362600D02*
X134551701Y-97844099D01*
X137118751Y-97005298D02*
X137118751Y-94425202D01*
X137118751Y-94425202D02*
X136737578Y-94044029D01*
X133671501Y-94301039D02*
X133472919Y-94499621D01*
X136631121Y-94301039D02*
X133671501Y-94301039D01*
X136861741Y-94531659D02*
X136631121Y-94301039D01*
X136861741Y-96898841D02*
X136861741Y-94531659D01*
X136259881Y-97500701D02*
X136861741Y-96898841D01*
X133472919Y-94499621D02*
X133222920Y-94749620D01*
X133995099Y-97500701D02*
X136259881Y-97500701D01*
X133133200Y-98362600D02*
X133995099Y-97500701D01*
X129572999Y-93269401D02*
X130019040Y-92823360D01*
X125334399Y-93269401D02*
X129572999Y-93269401D01*
X125100139Y-93035141D02*
X125334399Y-93269401D01*
X130601700Y-89229100D02*
X129826189Y-90004611D01*
X129826189Y-90004611D02*
X125778549Y-90004611D01*
X125100139Y-90683021D02*
X125778549Y-90004611D01*
X125100139Y-93035141D02*
X125100139Y-90683021D01*
X136863341Y-90666559D02*
X136201682Y-90004900D01*
X136863341Y-93033701D02*
X136863341Y-90666559D01*
X136627641Y-93269401D02*
X136863341Y-93033701D01*
X132380241Y-93269401D02*
X136627641Y-93269401D01*
X131936740Y-92825900D02*
X132380241Y-93269401D01*
X132277500Y-90004900D02*
X131501700Y-89229100D01*
X136201682Y-90004900D02*
X132277500Y-90004900D01*
X137120351Y-90560102D02*
X136308139Y-89747890D01*
X137120351Y-93140158D02*
X137120351Y-90560102D01*
X136734098Y-93526411D02*
X137120351Y-93140158D01*
X131296660Y-92823360D02*
X131999711Y-93526411D01*
X131999711Y-93526411D02*
X136734098Y-93526411D01*
X132920490Y-89747890D02*
X132401700Y-89229100D01*
X136308139Y-89747890D02*
X132920490Y-89747890D01*
X125227942Y-93526411D02*
X129953529Y-93526411D01*
X129953529Y-93526411D02*
X130656580Y-92823360D01*
X129183199Y-89747601D02*
X125640436Y-89747601D01*
X129701700Y-89229100D02*
X129183199Y-89747601D01*
X124843129Y-93141598D02*
X125227942Y-93526411D01*
X125640436Y-89747601D02*
X124843129Y-90544908D01*
X124843129Y-90544908D02*
X124843129Y-93141598D01*
D14*
G36*
X123347600Y-91307394D02*
G01*
X123380100Y-91470782D01*
X123443850Y-91624689D01*
X123534886Y-91760934D01*
X123475442Y-91820378D01*
X123382890Y-91958891D01*
X123319140Y-92112798D01*
X123286640Y-92276186D01*
X123286640Y-92442774D01*
X123319140Y-92606162D01*
X123382890Y-92760069D01*
X123475442Y-92898582D01*
X123593238Y-93016378D01*
X123731751Y-93108930D01*
X123820675Y-93145763D01*
X123817821Y-93146374D01*
X123703316Y-93193803D01*
X123611215Y-93261958D01*
X124043440Y-93694184D01*
X124057582Y-93680041D01*
X124216399Y-93838858D01*
X124202256Y-93853000D01*
X124216399Y-93867143D01*
X124057582Y-94025959D01*
X124043440Y-94011816D01*
X123611215Y-94444042D01*
X123660419Y-94480453D01*
X123575458Y-94537222D01*
X123457662Y-94655018D01*
X123365110Y-94793531D01*
X123301360Y-94947438D01*
X123268860Y-95110826D01*
X123268860Y-95277414D01*
X123301360Y-95440802D01*
X123365110Y-95594709D01*
X123457662Y-95733222D01*
X123485595Y-95761155D01*
X123405750Y-95880651D01*
X123346102Y-96024655D01*
X123333325Y-95986323D01*
X123227700Y-95563824D01*
X123227700Y-93791031D01*
X123304262Y-93791031D01*
X123306375Y-93936428D01*
X123336814Y-94078619D01*
X123384243Y-94193124D01*
X123452398Y-94285225D01*
X123884624Y-93853000D01*
X123452398Y-93420775D01*
X123384243Y-93512876D01*
X123330554Y-93648015D01*
X123304262Y-93791031D01*
X123227700Y-93791031D01*
X123227700Y-91655552D01*
X123347600Y-91295853D01*
X123347600Y-91307394D01*
G37*
X123347600Y-91307394D02*
X123380100Y-91470782D01*
X123443850Y-91624689D01*
X123534886Y-91760934D01*
X123475442Y-91820378D01*
X123382890Y-91958891D01*
X123319140Y-92112798D01*
X123286640Y-92276186D01*
X123286640Y-92442774D01*
X123319140Y-92606162D01*
X123382890Y-92760069D01*
X123475442Y-92898582D01*
X123593238Y-93016378D01*
X123731751Y-93108930D01*
X123820675Y-93145763D01*
X123817821Y-93146374D01*
X123703316Y-93193803D01*
X123611215Y-93261958D01*
X124043440Y-93694184D01*
X124057582Y-93680041D01*
X124216399Y-93838858D01*
X124202256Y-93853000D01*
X124216399Y-93867143D01*
X124057582Y-94025959D01*
X124043440Y-94011816D01*
X123611215Y-94444042D01*
X123660419Y-94480453D01*
X123575458Y-94537222D01*
X123457662Y-94655018D01*
X123365110Y-94793531D01*
X123301360Y-94947438D01*
X123268860Y-95110826D01*
X123268860Y-95277414D01*
X123301360Y-95440802D01*
X123365110Y-95594709D01*
X123457662Y-95733222D01*
X123485595Y-95761155D01*
X123405750Y-95880651D01*
X123346102Y-96024655D01*
X123333325Y-95986323D01*
X123227700Y-95563824D01*
X123227700Y-93791031D01*
X123304262Y-93791031D01*
X123306375Y-93936428D01*
X123336814Y-94078619D01*
X123384243Y-94193124D01*
X123452398Y-94285225D01*
X123884624Y-93853000D01*
X123452398Y-93420775D01*
X123384243Y-93512876D01*
X123330554Y-93648015D01*
X123304262Y-93791031D01*
X123227700Y-93791031D01*
X123227700Y-91655552D01*
X123347600Y-91295853D01*
X123347600Y-91307394D01*
G36*
X125583398Y-95243453D02*
G01*
X125682655Y-95342710D01*
X125583398Y-95441967D01*
X125555132Y-95484271D01*
X125555132Y-95201149D01*
X125583398Y-95243453D01*
G37*
X125583398Y-95243453D02*
X125682655Y-95342710D01*
X125583398Y-95441967D01*
X125555132Y-95484271D01*
X125555132Y-95201149D01*
X125583398Y-95243453D01*
M02*
