G04 #@! TF.GenerationSoftware,KiCad,Pcbnew,(5.1.5)-3*
G04 #@! TF.CreationDate,2020-09-09T17:22:44+01:00*
G04 #@! TF.ProjectId,tight_omnetics,74696768-745f-46f6-9d6e-65746963732e,rev?*
G04 #@! TF.SameCoordinates,Original*
G04 #@! TF.FileFunction,Profile,NP*
%FSLAX46Y46*%
G04 Gerber Fmt 4.6, Leading zero omitted, Abs format (unit mm)*
G04 Created by KiCad (PCBNEW (5.1.5)-3) date 2020-09-09 17:22:44*
%MOMM*%
%LPD*%
G04 APERTURE LIST*
%ADD10C,0.050000*%
G04 APERTURE END LIST*
D10*
X130683000Y-100076000D02*
X131191000Y-100076000D01*
X126238000Y-99187000D02*
X125730000Y-99187000D01*
X127635000Y-99187000D02*
X126238000Y-99187000D01*
X130175000Y-99187000D02*
X127635000Y-99187000D01*
X134366000Y-99187000D02*
X132461000Y-99187000D01*
X135890000Y-99187000D02*
X134366000Y-99187000D01*
X131953000Y-99441000D02*
X131953000Y-99822000D01*
X131953000Y-99441000D02*
G75*
G02X132207000Y-99187000I254000J0D01*
G01*
X132207000Y-99187000D02*
X132461000Y-99187000D01*
X131191000Y-100076000D02*
X131699000Y-100076000D01*
X131953000Y-99822000D02*
G75*
G02X131699000Y-100076000I-254000J0D01*
G01*
X130429000Y-99695000D02*
X130429000Y-99822000D01*
X130429000Y-99441000D02*
X130429000Y-99695000D01*
X130683000Y-100076000D02*
G75*
G02X130429000Y-99822000I0J254000D01*
G01*
X130175000Y-99187000D02*
G75*
G02X130429000Y-99441000I0J-254000D01*
G01*
X137541000Y-88976200D02*
X137287000Y-88773000D01*
X137845800Y-89331800D02*
X137541000Y-88976200D01*
X138049000Y-89662000D02*
X137845800Y-89331800D01*
X136398000Y-88392000D02*
X136017000Y-88392000D01*
X136677400Y-88442800D02*
X136398000Y-88392000D01*
X136982200Y-88544400D02*
X136677400Y-88442800D01*
X137287000Y-88773000D02*
X136982200Y-88544400D01*
X138658600Y-96494600D02*
X138684000Y-96139000D01*
X138557000Y-96875600D02*
X138658600Y-96494600D01*
X138557000Y-96875600D02*
X138430000Y-97282000D01*
X138633200Y-91008200D02*
X138430000Y-90297000D01*
X138684000Y-91567000D02*
X138633200Y-91008200D01*
X133350000Y-88392000D02*
X136017000Y-88392000D01*
X122682000Y-91567000D02*
X122682000Y-92329000D01*
X122936000Y-90805000D02*
X122682000Y-91567000D01*
X123190000Y-90297000D02*
X122936000Y-90805000D01*
X122936000Y-96520000D02*
X122809000Y-96139000D01*
X123063000Y-96774000D02*
X122936000Y-96520000D01*
X122682000Y-95631000D02*
X122809000Y-96139000D01*
X122682000Y-95377000D02*
X122682000Y-95631000D01*
X122682000Y-93980000D02*
X122682000Y-95377000D01*
X123571000Y-97663000D02*
X123063000Y-96774000D01*
X124206000Y-98679000D02*
X123571000Y-97663000D01*
X124841000Y-99060000D02*
X124206000Y-98679000D01*
X125730000Y-99187000D02*
X124841000Y-99060000D01*
X122682000Y-92329000D02*
X122682000Y-93980000D01*
X123952000Y-89281000D02*
X123190000Y-90297000D01*
X124968000Y-88519000D02*
X123952000Y-89281000D01*
X125349000Y-88392000D02*
X124968000Y-88519000D01*
X125476000Y-88392000D02*
X125349000Y-88392000D01*
X125603000Y-88392000D02*
X125476000Y-88392000D01*
X125730000Y-88392000D02*
X125603000Y-88392000D01*
X126238000Y-88392000D02*
X125730000Y-88392000D01*
X127508000Y-88392000D02*
X126238000Y-88392000D01*
X130556000Y-88392000D02*
X127508000Y-88392000D01*
X133350000Y-88392000D02*
X130556000Y-88392000D01*
X138430000Y-90297000D02*
X138049000Y-89662000D01*
X136398000Y-99187000D02*
X135890000Y-99187000D01*
X137033000Y-99060000D02*
X136398000Y-99187000D01*
X137541000Y-98679000D02*
X137033000Y-99060000D01*
X138049000Y-98044000D02*
X137541000Y-98679000D01*
X138430000Y-97282000D02*
X138049000Y-98044000D01*
X138684000Y-93853000D02*
X138684000Y-91567000D01*
X138684000Y-95631000D02*
X138684000Y-93853000D01*
X138684000Y-95631000D02*
X138684000Y-96139000D01*
M02*
