M48
; DRILL file {KiCad (5.1.5)-3} date 09/09/2020 17:22:45
; FORMAT={-:-/ absolute / inch / decimal}
; #@! TF.CreationDate,2020-09-09T17:22:45+01:00
; #@! TF.GenerationSoftware,Kicad,Pcbnew,(5.1.5)-3
; #@! TF.FileFunction,Plated,1,4,PTH
FMAT,2
INCH
T1C0.0087
T2C0.0118
T3C0.0354
%
G90
G05
T1
X4.9426Y-3.7304
X4.9426Y-3.7769
X4.9678Y-3.7304
X4.9678Y-3.7769
X4.993Y-3.7304
X4.993Y-3.7769
X5.0181Y-3.7769
X5.0182Y-3.7304
X5.0433Y-3.7769
X5.0434Y-3.7303
X5.0685Y-3.777
X5.0686Y-3.7303
X5.0936Y-3.777
X5.0938Y-3.7303
X5.1188Y-3.7769
X5.119Y-3.7303
X5.1439Y-3.7769
X5.1442Y-3.7303
X5.1691Y-3.7769
X5.1694Y-3.7303
X5.1943Y-3.777
X5.1946Y-3.7303
X5.2194Y-3.7769
X5.2198Y-3.7303
X5.2446Y-3.7769
X5.245Y-3.7303
X5.2698Y-3.777
X5.2701Y-3.7303
X5.295Y-3.777
X5.2952Y-3.7301
X5.3202Y-3.7769
X5.3204Y-3.7301
X5.3454Y-3.7769
X5.3456Y-3.7301
X5.3706Y-3.777
X5.3708Y-3.7301
X4.9427Y-3.608
X4.9427Y-3.6544
X4.9679Y-3.608
X4.9679Y-3.6545
X4.9931Y-3.608
X4.9931Y-3.6545
X5.0182Y-3.6545
X5.0183Y-3.608
X5.0434Y-3.6545
X5.0435Y-3.6079
X5.0686Y-3.6546
X5.0687Y-3.6079
X5.0937Y-3.6546
X5.0939Y-3.6079
X5.1189Y-3.6545
X5.1191Y-3.6079
X5.144Y-3.6545
X5.1443Y-3.6079
X5.1692Y-3.6545
X5.1695Y-3.6079
X5.1944Y-3.6546
X5.1947Y-3.6079
X5.2195Y-3.6545
X5.2199Y-3.6079
X5.2447Y-3.6545
X5.2451Y-3.6079
X5.2699Y-3.6546
X5.2702Y-3.6079
X5.2951Y-3.6546
X5.2953Y-3.6077
X5.3203Y-3.6545
X5.3205Y-3.6077
X5.3455Y-3.6545
X5.3457Y-3.6077
X5.3707Y-3.6546
X5.3709Y-3.6077
T2
X5.3544Y-3.513
X4.9178Y-3.8653
X4.888Y-3.7906
X5.4255Y-3.616
X5.425Y-3.665
X5.0004Y-3.8182
X5.1418Y-3.513
X5.2415Y-3.8725
X5.2127Y-3.513
X4.894Y-3.8328
X4.8871Y-3.6362
X4.9234Y-3.5196
X5.0709Y-3.513
X5.0713Y-3.8182
X5.425Y-3.768
X5.206Y-3.8725
X5.2485Y-3.8182
X5.2479Y-3.5656
X5.1064Y-3.513
X4.8864Y-3.7478
X5.3187Y-3.5656
X5.0643Y-3.8725
X4.9645Y-3.511
X5.1062Y-3.5658
X5.421Y-3.815
X5.2769Y-3.8725
X5.1706Y-3.8725
X5.3542Y-3.5656
X5.421Y-3.569
X5.2124Y-3.5656
X4.9672Y-3.564
X5.0355Y-3.513
X4.9999Y-3.5658
X5.0708Y-3.5658
X5.425Y-3.72
X5.213Y-3.8182
X5.3193Y-3.8182
X5.2484Y-3.513
X5.1771Y-3.5658
X4.9675Y-3.821
X5.0359Y-3.8182
X5.1422Y-3.8182
X5.0354Y-3.5658
X5.3123Y-3.8725
X5.3548Y-3.8182
X5.3934Y-3.8558
X5.2839Y-3.513
X4.9934Y-3.8725
X4.8962Y-3.5497
X4.8895Y-3.5915
X4.958Y-3.874
X5.0997Y-3.8725
X5.1352Y-3.8725
X5.3478Y-3.8725
X5.1776Y-3.8182
X5.319Y-3.513
X5.2833Y-3.5656
X5.1772Y-3.513
X5.0001Y-3.513
X5.1417Y-3.5658
X5.0289Y-3.8725
X5.1067Y-3.8182
X5.2839Y-3.8182
X5.395Y-3.53
T3
X4.8836Y-3.695
T0
M30
