G04 #@! TF.GenerationSoftware,KiCad,Pcbnew,(5.1.5)-3*
G04 #@! TF.CreationDate,2020-09-09T17:22:44+01:00*
G04 #@! TF.ProjectId,tight_omnetics,74696768-745f-46f6-9d6e-65746963732e,rev?*
G04 #@! TF.SameCoordinates,Original*
G04 #@! TF.FileFunction,Soldermask,Top*
G04 #@! TF.FilePolarity,Negative*
%FSLAX46Y46*%
G04 Gerber Fmt 4.6, Leading zero omitted, Abs format (unit mm)*
G04 Created by KiCad (PCBNEW (5.1.5)-3) date 2020-09-09 17:22:44*
%MOMM*%
%LPD*%
G04 APERTURE LIST*
%ADD10C,0.100000*%
G04 APERTURE END LIST*
D10*
G36*
X126029458Y-98082281D02*
G01*
X126089514Y-98107158D01*
X126143563Y-98143272D01*
X126189528Y-98189237D01*
X126225642Y-98243286D01*
X126250519Y-98303342D01*
X126263200Y-98367098D01*
X126263200Y-98432102D01*
X126250519Y-98495858D01*
X126225642Y-98555914D01*
X126189528Y-98609963D01*
X126143563Y-98655928D01*
X126089514Y-98692042D01*
X126029458Y-98716919D01*
X125965702Y-98729600D01*
X125900698Y-98729600D01*
X125836942Y-98716919D01*
X125776886Y-98692042D01*
X125722837Y-98655928D01*
X125676872Y-98609963D01*
X125640758Y-98555914D01*
X125615881Y-98495858D01*
X125603200Y-98432102D01*
X125603200Y-98367098D01*
X125615881Y-98303342D01*
X125640758Y-98243286D01*
X125676872Y-98189237D01*
X125722837Y-98143272D01*
X125776886Y-98107158D01*
X125836942Y-98082281D01*
X125900698Y-98069600D01*
X125965702Y-98069600D01*
X126029458Y-98082281D01*
G37*
G36*
X135929458Y-98045281D02*
G01*
X135989514Y-98070158D01*
X136043563Y-98106272D01*
X136089528Y-98152237D01*
X136125642Y-98206286D01*
X136150519Y-98266342D01*
X136163200Y-98330098D01*
X136163200Y-98395102D01*
X136150519Y-98458858D01*
X136125642Y-98518914D01*
X136089528Y-98572963D01*
X136043563Y-98618928D01*
X135989514Y-98655042D01*
X135929458Y-98679919D01*
X135865702Y-98692600D01*
X135800698Y-98692600D01*
X135736942Y-98679919D01*
X135676886Y-98655042D01*
X135622837Y-98618928D01*
X135576872Y-98572963D01*
X135540758Y-98518914D01*
X135515881Y-98458858D01*
X135503200Y-98395102D01*
X135503200Y-98330098D01*
X135515881Y-98266342D01*
X135540758Y-98206286D01*
X135576872Y-98152237D01*
X135622837Y-98106272D01*
X135676886Y-98070158D01*
X135736942Y-98045281D01*
X135800698Y-98032600D01*
X135865702Y-98032600D01*
X135929458Y-98045281D01*
G37*
G36*
X128729458Y-98045281D02*
G01*
X128789514Y-98070158D01*
X128843563Y-98106272D01*
X128889528Y-98152237D01*
X128925642Y-98206286D01*
X128950519Y-98266342D01*
X128963200Y-98330098D01*
X128963200Y-98395102D01*
X128950519Y-98458858D01*
X128925642Y-98518914D01*
X128889528Y-98572963D01*
X128843563Y-98618928D01*
X128789514Y-98655042D01*
X128729458Y-98679919D01*
X128665702Y-98692600D01*
X128600698Y-98692600D01*
X128536942Y-98679919D01*
X128476886Y-98655042D01*
X128422837Y-98618928D01*
X128376872Y-98572963D01*
X128340758Y-98518914D01*
X128315881Y-98458858D01*
X128303200Y-98395102D01*
X128303200Y-98330098D01*
X128315881Y-98266342D01*
X128340758Y-98206286D01*
X128376872Y-98152237D01*
X128422837Y-98106272D01*
X128476886Y-98070158D01*
X128536942Y-98045281D01*
X128600698Y-98032600D01*
X128665702Y-98032600D01*
X128729458Y-98045281D01*
G37*
G36*
X127829458Y-98045281D02*
G01*
X127889514Y-98070158D01*
X127943563Y-98106272D01*
X127989528Y-98152237D01*
X128025642Y-98206286D01*
X128050519Y-98266342D01*
X128063200Y-98330098D01*
X128063200Y-98395102D01*
X128050519Y-98458858D01*
X128025642Y-98518914D01*
X127989528Y-98572963D01*
X127943563Y-98618928D01*
X127889514Y-98655042D01*
X127829458Y-98679919D01*
X127765702Y-98692600D01*
X127700698Y-98692600D01*
X127636942Y-98679919D01*
X127576886Y-98655042D01*
X127522837Y-98618928D01*
X127476872Y-98572963D01*
X127440758Y-98518914D01*
X127415881Y-98458858D01*
X127403200Y-98395102D01*
X127403200Y-98330098D01*
X127415881Y-98266342D01*
X127440758Y-98206286D01*
X127476872Y-98152237D01*
X127522837Y-98106272D01*
X127576886Y-98070158D01*
X127636942Y-98045281D01*
X127700698Y-98032600D01*
X127765702Y-98032600D01*
X127829458Y-98045281D01*
G37*
G36*
X130529458Y-98045281D02*
G01*
X130589514Y-98070158D01*
X130643563Y-98106272D01*
X130689528Y-98152237D01*
X130725642Y-98206286D01*
X130750519Y-98266342D01*
X130763200Y-98330098D01*
X130763200Y-98395102D01*
X130750519Y-98458858D01*
X130725642Y-98518914D01*
X130689528Y-98572963D01*
X130643563Y-98618928D01*
X130589514Y-98655042D01*
X130529458Y-98679919D01*
X130465702Y-98692600D01*
X130400698Y-98692600D01*
X130336942Y-98679919D01*
X130276886Y-98655042D01*
X130222837Y-98618928D01*
X130176872Y-98572963D01*
X130140758Y-98518914D01*
X130115881Y-98458858D01*
X130103200Y-98395102D01*
X130103200Y-98330098D01*
X130115881Y-98266342D01*
X130140758Y-98206286D01*
X130176872Y-98152237D01*
X130222837Y-98106272D01*
X130276886Y-98070158D01*
X130336942Y-98045281D01*
X130400698Y-98032600D01*
X130465702Y-98032600D01*
X130529458Y-98045281D01*
G37*
G36*
X129629458Y-98045281D02*
G01*
X129689514Y-98070158D01*
X129743563Y-98106272D01*
X129789528Y-98152237D01*
X129825642Y-98206286D01*
X129850519Y-98266342D01*
X129863200Y-98330098D01*
X129863200Y-98395102D01*
X129850519Y-98458858D01*
X129825642Y-98518914D01*
X129789528Y-98572963D01*
X129743563Y-98618928D01*
X129689514Y-98655042D01*
X129629458Y-98679919D01*
X129565702Y-98692600D01*
X129500698Y-98692600D01*
X129436942Y-98679919D01*
X129376886Y-98655042D01*
X129322837Y-98618928D01*
X129276872Y-98572963D01*
X129240758Y-98518914D01*
X129215881Y-98458858D01*
X129203200Y-98395102D01*
X129203200Y-98330098D01*
X129215881Y-98266342D01*
X129240758Y-98206286D01*
X129276872Y-98152237D01*
X129322837Y-98106272D01*
X129376886Y-98070158D01*
X129436942Y-98045281D01*
X129500698Y-98032600D01*
X129565702Y-98032600D01*
X129629458Y-98045281D01*
G37*
G36*
X132329458Y-98045281D02*
G01*
X132389514Y-98070158D01*
X132443563Y-98106272D01*
X132489528Y-98152237D01*
X132525642Y-98206286D01*
X132550519Y-98266342D01*
X132563200Y-98330098D01*
X132563200Y-98395102D01*
X132550519Y-98458858D01*
X132525642Y-98518914D01*
X132489528Y-98572963D01*
X132443563Y-98618928D01*
X132389514Y-98655042D01*
X132329458Y-98679919D01*
X132265702Y-98692600D01*
X132200698Y-98692600D01*
X132136942Y-98679919D01*
X132076886Y-98655042D01*
X132022837Y-98618928D01*
X131976872Y-98572963D01*
X131940758Y-98518914D01*
X131915881Y-98458858D01*
X131903200Y-98395102D01*
X131903200Y-98330098D01*
X131915881Y-98266342D01*
X131940758Y-98206286D01*
X131976872Y-98152237D01*
X132022837Y-98106272D01*
X132076886Y-98070158D01*
X132136942Y-98045281D01*
X132200698Y-98032600D01*
X132265702Y-98032600D01*
X132329458Y-98045281D01*
G37*
G36*
X134129458Y-98045281D02*
G01*
X134189514Y-98070158D01*
X134243563Y-98106272D01*
X134289528Y-98152237D01*
X134325642Y-98206286D01*
X134350519Y-98266342D01*
X134363200Y-98330098D01*
X134363200Y-98395102D01*
X134350519Y-98458858D01*
X134325642Y-98518914D01*
X134289528Y-98572963D01*
X134243563Y-98618928D01*
X134189514Y-98655042D01*
X134129458Y-98679919D01*
X134065702Y-98692600D01*
X134000698Y-98692600D01*
X133936942Y-98679919D01*
X133876886Y-98655042D01*
X133822837Y-98618928D01*
X133776872Y-98572963D01*
X133740758Y-98518914D01*
X133715881Y-98458858D01*
X133703200Y-98395102D01*
X133703200Y-98330098D01*
X133715881Y-98266342D01*
X133740758Y-98206286D01*
X133776872Y-98152237D01*
X133822837Y-98106272D01*
X133876886Y-98070158D01*
X133936942Y-98045281D01*
X134000698Y-98032600D01*
X134065702Y-98032600D01*
X134129458Y-98045281D01*
G37*
G36*
X133229458Y-98045281D02*
G01*
X133289514Y-98070158D01*
X133343563Y-98106272D01*
X133389528Y-98152237D01*
X133425642Y-98206286D01*
X133450519Y-98266342D01*
X133463200Y-98330098D01*
X133463200Y-98395102D01*
X133450519Y-98458858D01*
X133425642Y-98518914D01*
X133389528Y-98572963D01*
X133343563Y-98618928D01*
X133289514Y-98655042D01*
X133229458Y-98679919D01*
X133165702Y-98692600D01*
X133100698Y-98692600D01*
X133036942Y-98679919D01*
X132976886Y-98655042D01*
X132922837Y-98618928D01*
X132876872Y-98572963D01*
X132840758Y-98518914D01*
X132815881Y-98458858D01*
X132803200Y-98395102D01*
X132803200Y-98330098D01*
X132815881Y-98266342D01*
X132840758Y-98206286D01*
X132876872Y-98152237D01*
X132922837Y-98106272D01*
X132976886Y-98070158D01*
X133036942Y-98045281D01*
X133100698Y-98032600D01*
X133165702Y-98032600D01*
X133229458Y-98045281D01*
G37*
G36*
X135029458Y-98045281D02*
G01*
X135089514Y-98070158D01*
X135143563Y-98106272D01*
X135189528Y-98152237D01*
X135225642Y-98206286D01*
X135250519Y-98266342D01*
X135263200Y-98330098D01*
X135263200Y-98395102D01*
X135250519Y-98458858D01*
X135225642Y-98518914D01*
X135189528Y-98572963D01*
X135143563Y-98618928D01*
X135089514Y-98655042D01*
X135029458Y-98679919D01*
X134965702Y-98692600D01*
X134900698Y-98692600D01*
X134836942Y-98679919D01*
X134776886Y-98655042D01*
X134722837Y-98618928D01*
X134676872Y-98572963D01*
X134640758Y-98518914D01*
X134615881Y-98458858D01*
X134603200Y-98395102D01*
X134603200Y-98330098D01*
X134615881Y-98266342D01*
X134640758Y-98206286D01*
X134676872Y-98152237D01*
X134722837Y-98106272D01*
X134776886Y-98070158D01*
X134836942Y-98045281D01*
X134900698Y-98032600D01*
X134965702Y-98032600D01*
X135029458Y-98045281D01*
G37*
G36*
X126929458Y-98045281D02*
G01*
X126989514Y-98070158D01*
X127043563Y-98106272D01*
X127089528Y-98152237D01*
X127125642Y-98206286D01*
X127150519Y-98266342D01*
X127163200Y-98330098D01*
X127163200Y-98395102D01*
X127150519Y-98458858D01*
X127125642Y-98518914D01*
X127089528Y-98572963D01*
X127043563Y-98618928D01*
X126989514Y-98655042D01*
X126929458Y-98679919D01*
X126865702Y-98692600D01*
X126800698Y-98692600D01*
X126736942Y-98679919D01*
X126676886Y-98655042D01*
X126622837Y-98618928D01*
X126576872Y-98572963D01*
X126540758Y-98518914D01*
X126515881Y-98458858D01*
X126503200Y-98395102D01*
X126503200Y-98330098D01*
X126515881Y-98266342D01*
X126540758Y-98206286D01*
X126576872Y-98152237D01*
X126622837Y-98106272D01*
X126676886Y-98070158D01*
X126736942Y-98045281D01*
X126800698Y-98032600D01*
X126865702Y-98032600D01*
X126929458Y-98045281D01*
G37*
G36*
X131429458Y-98045281D02*
G01*
X131489514Y-98070158D01*
X131543563Y-98106272D01*
X131589528Y-98152237D01*
X131625642Y-98206286D01*
X131650519Y-98266342D01*
X131663200Y-98330098D01*
X131663200Y-98395102D01*
X131650519Y-98458858D01*
X131625642Y-98518914D01*
X131589528Y-98572963D01*
X131543563Y-98618928D01*
X131489514Y-98655042D01*
X131429458Y-98679919D01*
X131365702Y-98692600D01*
X131300698Y-98692600D01*
X131236942Y-98679919D01*
X131176886Y-98655042D01*
X131122837Y-98618928D01*
X131076872Y-98572963D01*
X131040758Y-98518914D01*
X131015881Y-98458858D01*
X131003200Y-98395102D01*
X131003200Y-98330098D01*
X131015881Y-98266342D01*
X131040758Y-98206286D01*
X131076872Y-98152237D01*
X131122837Y-98106272D01*
X131176886Y-98070158D01*
X131236942Y-98045281D01*
X131300698Y-98032600D01*
X131365702Y-98032600D01*
X131429458Y-98045281D01*
G37*
G36*
X125008378Y-97861301D02*
G01*
X125068434Y-97886178D01*
X125122483Y-97922292D01*
X125168448Y-97968257D01*
X125204562Y-98022306D01*
X125229439Y-98082362D01*
X125242120Y-98146118D01*
X125242120Y-98211122D01*
X125229439Y-98274878D01*
X125204562Y-98334934D01*
X125168448Y-98388983D01*
X125122483Y-98434948D01*
X125068434Y-98471062D01*
X125008378Y-98495939D01*
X124944622Y-98508620D01*
X124879618Y-98508620D01*
X124815862Y-98495939D01*
X124755806Y-98471062D01*
X124701757Y-98434948D01*
X124655792Y-98388983D01*
X124619678Y-98334934D01*
X124594801Y-98274878D01*
X124582120Y-98211122D01*
X124582120Y-98146118D01*
X124594801Y-98082362D01*
X124619678Y-98022306D01*
X124655792Y-97968257D01*
X124701757Y-97922292D01*
X124755806Y-97886178D01*
X124815862Y-97861301D01*
X124879618Y-97848620D01*
X124944622Y-97848620D01*
X125008378Y-97861301D01*
G37*
G36*
X137088618Y-97620001D02*
G01*
X137148674Y-97644878D01*
X137202723Y-97680992D01*
X137248688Y-97726957D01*
X137284802Y-97781006D01*
X137309679Y-97841062D01*
X137322360Y-97904818D01*
X137322360Y-97969822D01*
X137309679Y-98033578D01*
X137284802Y-98093634D01*
X137248688Y-98147683D01*
X137202723Y-98193648D01*
X137148674Y-98229762D01*
X137088618Y-98254639D01*
X137024862Y-98267320D01*
X136959858Y-98267320D01*
X136896102Y-98254639D01*
X136836046Y-98229762D01*
X136781997Y-98193648D01*
X136736032Y-98147683D01*
X136699918Y-98093634D01*
X136675041Y-98033578D01*
X136662360Y-97969822D01*
X136662360Y-97904818D01*
X136675041Y-97841062D01*
X136699918Y-97781006D01*
X136736032Y-97726957D01*
X136781997Y-97680992D01*
X136836046Y-97644878D01*
X136896102Y-97620001D01*
X136959858Y-97607320D01*
X137024862Y-97607320D01*
X137088618Y-97620001D01*
G37*
G36*
X124403858Y-97035801D02*
G01*
X124463914Y-97060678D01*
X124517963Y-97096792D01*
X124563928Y-97142757D01*
X124600042Y-97196806D01*
X124624919Y-97256862D01*
X124637600Y-97320618D01*
X124637600Y-97385622D01*
X124624919Y-97449378D01*
X124600042Y-97509434D01*
X124563928Y-97563483D01*
X124517963Y-97609448D01*
X124463914Y-97645562D01*
X124403858Y-97670439D01*
X124340102Y-97683120D01*
X124275098Y-97683120D01*
X124211342Y-97670439D01*
X124151286Y-97645562D01*
X124097237Y-97609448D01*
X124051272Y-97563483D01*
X124015158Y-97509434D01*
X123990281Y-97449378D01*
X123977600Y-97385622D01*
X123977600Y-97320618D01*
X123990281Y-97256862D01*
X124015158Y-97196806D01*
X124051272Y-97142757D01*
X124097237Y-97096792D01*
X124151286Y-97060678D01*
X124211342Y-97035801D01*
X124275098Y-97023120D01*
X124340102Y-97023120D01*
X124403858Y-97035801D01*
G37*
G36*
X126270758Y-96736081D02*
G01*
X126330814Y-96760958D01*
X126384863Y-96797072D01*
X126430828Y-96843037D01*
X126466942Y-96897086D01*
X126491819Y-96957142D01*
X126504500Y-97020898D01*
X126504500Y-97085902D01*
X126491819Y-97149658D01*
X126466942Y-97209714D01*
X126430828Y-97263763D01*
X126384863Y-97309728D01*
X126330814Y-97345842D01*
X126270758Y-97370719D01*
X126207002Y-97383400D01*
X126141998Y-97383400D01*
X126078242Y-97370719D01*
X126018186Y-97345842D01*
X125964137Y-97309728D01*
X125918172Y-97263763D01*
X125882058Y-97209714D01*
X125857181Y-97149658D01*
X125844500Y-97085902D01*
X125844500Y-97020898D01*
X125857181Y-96957142D01*
X125882058Y-96897086D01*
X125918172Y-96843037D01*
X125964137Y-96797072D01*
X126018186Y-96760958D01*
X126078242Y-96736081D01*
X126141998Y-96723400D01*
X126207002Y-96723400D01*
X126270758Y-96736081D01*
G37*
G36*
X128907258Y-96664881D02*
G01*
X128967314Y-96689758D01*
X129021363Y-96725872D01*
X129067328Y-96771837D01*
X129103442Y-96825886D01*
X129128319Y-96885942D01*
X129141000Y-96949698D01*
X129141000Y-97014702D01*
X129128319Y-97078458D01*
X129103442Y-97138514D01*
X129067328Y-97192563D01*
X129021363Y-97238528D01*
X128967314Y-97274642D01*
X128907258Y-97299519D01*
X128843502Y-97312200D01*
X128778498Y-97312200D01*
X128714742Y-97299519D01*
X128654686Y-97274642D01*
X128600637Y-97238528D01*
X128554672Y-97192563D01*
X128518558Y-97138514D01*
X128493681Y-97078458D01*
X128481000Y-97014702D01*
X128481000Y-96949698D01*
X128493681Y-96885942D01*
X128518558Y-96825886D01*
X128554672Y-96771837D01*
X128600637Y-96725872D01*
X128654686Y-96689758D01*
X128714742Y-96664881D01*
X128778498Y-96652200D01*
X128843502Y-96652200D01*
X128907258Y-96664881D01*
G37*
G36*
X127107258Y-96664881D02*
G01*
X127167314Y-96689758D01*
X127221363Y-96725872D01*
X127267328Y-96771837D01*
X127303442Y-96825886D01*
X127328319Y-96885942D01*
X127341000Y-96949698D01*
X127341000Y-97014702D01*
X127328319Y-97078458D01*
X127303442Y-97138514D01*
X127267328Y-97192563D01*
X127221363Y-97238528D01*
X127167314Y-97274642D01*
X127107258Y-97299519D01*
X127043502Y-97312200D01*
X126978498Y-97312200D01*
X126914742Y-97299519D01*
X126854686Y-97274642D01*
X126800637Y-97238528D01*
X126754672Y-97192563D01*
X126718558Y-97138514D01*
X126693681Y-97078458D01*
X126681000Y-97014702D01*
X126681000Y-96949698D01*
X126693681Y-96885942D01*
X126718558Y-96825886D01*
X126754672Y-96771837D01*
X126800637Y-96725872D01*
X126854686Y-96689758D01*
X126914742Y-96664881D01*
X126978498Y-96652200D01*
X127043502Y-96652200D01*
X127107258Y-96664881D01*
G37*
G36*
X128007258Y-96664881D02*
G01*
X128067314Y-96689758D01*
X128121363Y-96725872D01*
X128167328Y-96771837D01*
X128203442Y-96825886D01*
X128228319Y-96885942D01*
X128241000Y-96949698D01*
X128241000Y-97014702D01*
X128228319Y-97078458D01*
X128203442Y-97138514D01*
X128167328Y-97192563D01*
X128121363Y-97238528D01*
X128067314Y-97274642D01*
X128007258Y-97299519D01*
X127943502Y-97312200D01*
X127878498Y-97312200D01*
X127814742Y-97299519D01*
X127754686Y-97274642D01*
X127700637Y-97238528D01*
X127654672Y-97192563D01*
X127618558Y-97138514D01*
X127593681Y-97078458D01*
X127581000Y-97014702D01*
X127581000Y-96949698D01*
X127593681Y-96885942D01*
X127618558Y-96825886D01*
X127654672Y-96771837D01*
X127700637Y-96725872D01*
X127754686Y-96689758D01*
X127814742Y-96664881D01*
X127878498Y-96652200D01*
X127943502Y-96652200D01*
X128007258Y-96664881D01*
G37*
G36*
X129807258Y-96664881D02*
G01*
X129867314Y-96689758D01*
X129921363Y-96725872D01*
X129967328Y-96771837D01*
X130003442Y-96825886D01*
X130028319Y-96885942D01*
X130041000Y-96949698D01*
X130041000Y-97014702D01*
X130028319Y-97078458D01*
X130003442Y-97138514D01*
X129967328Y-97192563D01*
X129921363Y-97238528D01*
X129867314Y-97274642D01*
X129807258Y-97299519D01*
X129743502Y-97312200D01*
X129678498Y-97312200D01*
X129614742Y-97299519D01*
X129554686Y-97274642D01*
X129500637Y-97238528D01*
X129454672Y-97192563D01*
X129418558Y-97138514D01*
X129393681Y-97078458D01*
X129381000Y-97014702D01*
X129381000Y-96949698D01*
X129393681Y-96885942D01*
X129418558Y-96825886D01*
X129454672Y-96771837D01*
X129500637Y-96725872D01*
X129554686Y-96689758D01*
X129614742Y-96664881D01*
X129678498Y-96652200D01*
X129743502Y-96652200D01*
X129807258Y-96664881D01*
G37*
G36*
X130707258Y-96664881D02*
G01*
X130767314Y-96689758D01*
X130821363Y-96725872D01*
X130867328Y-96771837D01*
X130903442Y-96825886D01*
X130928319Y-96885942D01*
X130941000Y-96949698D01*
X130941000Y-97014702D01*
X130928319Y-97078458D01*
X130903442Y-97138514D01*
X130867328Y-97192563D01*
X130821363Y-97238528D01*
X130767314Y-97274642D01*
X130707258Y-97299519D01*
X130643502Y-97312200D01*
X130578498Y-97312200D01*
X130514742Y-97299519D01*
X130454686Y-97274642D01*
X130400637Y-97238528D01*
X130354672Y-97192563D01*
X130318558Y-97138514D01*
X130293681Y-97078458D01*
X130281000Y-97014702D01*
X130281000Y-96949698D01*
X130293681Y-96885942D01*
X130318558Y-96825886D01*
X130354672Y-96771837D01*
X130400637Y-96725872D01*
X130454686Y-96689758D01*
X130514742Y-96664881D01*
X130578498Y-96652200D01*
X130643502Y-96652200D01*
X130707258Y-96664881D01*
G37*
G36*
X132507258Y-96664881D02*
G01*
X132567314Y-96689758D01*
X132621363Y-96725872D01*
X132667328Y-96771837D01*
X132703442Y-96825886D01*
X132728319Y-96885942D01*
X132741000Y-96949698D01*
X132741000Y-97014702D01*
X132728319Y-97078458D01*
X132703442Y-97138514D01*
X132667328Y-97192563D01*
X132621363Y-97238528D01*
X132567314Y-97274642D01*
X132507258Y-97299519D01*
X132443502Y-97312200D01*
X132378498Y-97312200D01*
X132314742Y-97299519D01*
X132254686Y-97274642D01*
X132200637Y-97238528D01*
X132154672Y-97192563D01*
X132118558Y-97138514D01*
X132093681Y-97078458D01*
X132081000Y-97014702D01*
X132081000Y-96949698D01*
X132093681Y-96885942D01*
X132118558Y-96825886D01*
X132154672Y-96771837D01*
X132200637Y-96725872D01*
X132254686Y-96689758D01*
X132314742Y-96664881D01*
X132378498Y-96652200D01*
X132443502Y-96652200D01*
X132507258Y-96664881D01*
G37*
G36*
X136107258Y-96664881D02*
G01*
X136167314Y-96689758D01*
X136221363Y-96725872D01*
X136267328Y-96771837D01*
X136303442Y-96825886D01*
X136328319Y-96885942D01*
X136341000Y-96949698D01*
X136341000Y-97014702D01*
X136328319Y-97078458D01*
X136303442Y-97138514D01*
X136267328Y-97192563D01*
X136221363Y-97238528D01*
X136167314Y-97274642D01*
X136107258Y-97299519D01*
X136043502Y-97312200D01*
X135978498Y-97312200D01*
X135914742Y-97299519D01*
X135854686Y-97274642D01*
X135800637Y-97238528D01*
X135754672Y-97192563D01*
X135718558Y-97138514D01*
X135693681Y-97078458D01*
X135681000Y-97014702D01*
X135681000Y-96949698D01*
X135693681Y-96885942D01*
X135718558Y-96825886D01*
X135754672Y-96771837D01*
X135800637Y-96725872D01*
X135854686Y-96689758D01*
X135914742Y-96664881D01*
X135978498Y-96652200D01*
X136043502Y-96652200D01*
X136107258Y-96664881D01*
G37*
G36*
X134307258Y-96664881D02*
G01*
X134367314Y-96689758D01*
X134421363Y-96725872D01*
X134467328Y-96771837D01*
X134503442Y-96825886D01*
X134528319Y-96885942D01*
X134541000Y-96949698D01*
X134541000Y-97014702D01*
X134528319Y-97078458D01*
X134503442Y-97138514D01*
X134467328Y-97192563D01*
X134421363Y-97238528D01*
X134367314Y-97274642D01*
X134307258Y-97299519D01*
X134243502Y-97312200D01*
X134178498Y-97312200D01*
X134114742Y-97299519D01*
X134054686Y-97274642D01*
X134000637Y-97238528D01*
X133954672Y-97192563D01*
X133918558Y-97138514D01*
X133893681Y-97078458D01*
X133881000Y-97014702D01*
X133881000Y-96949698D01*
X133893681Y-96885942D01*
X133918558Y-96825886D01*
X133954672Y-96771837D01*
X134000637Y-96725872D01*
X134054686Y-96689758D01*
X134114742Y-96664881D01*
X134178498Y-96652200D01*
X134243502Y-96652200D01*
X134307258Y-96664881D01*
G37*
G36*
X133407258Y-96664881D02*
G01*
X133467314Y-96689758D01*
X133521363Y-96725872D01*
X133567328Y-96771837D01*
X133603442Y-96825886D01*
X133628319Y-96885942D01*
X133641000Y-96949698D01*
X133641000Y-97014702D01*
X133628319Y-97078458D01*
X133603442Y-97138514D01*
X133567328Y-97192563D01*
X133521363Y-97238528D01*
X133467314Y-97274642D01*
X133407258Y-97299519D01*
X133343502Y-97312200D01*
X133278498Y-97312200D01*
X133214742Y-97299519D01*
X133154686Y-97274642D01*
X133100637Y-97238528D01*
X133054672Y-97192563D01*
X133018558Y-97138514D01*
X132993681Y-97078458D01*
X132981000Y-97014702D01*
X132981000Y-96949698D01*
X132993681Y-96885942D01*
X133018558Y-96825886D01*
X133054672Y-96771837D01*
X133100637Y-96725872D01*
X133154686Y-96689758D01*
X133214742Y-96664881D01*
X133278498Y-96652200D01*
X133343502Y-96652200D01*
X133407258Y-96664881D01*
G37*
G36*
X135207258Y-96664881D02*
G01*
X135267314Y-96689758D01*
X135321363Y-96725872D01*
X135367328Y-96771837D01*
X135403442Y-96825886D01*
X135428319Y-96885942D01*
X135441000Y-96949698D01*
X135441000Y-97014702D01*
X135428319Y-97078458D01*
X135403442Y-97138514D01*
X135367328Y-97192563D01*
X135321363Y-97238528D01*
X135267314Y-97274642D01*
X135207258Y-97299519D01*
X135143502Y-97312200D01*
X135078498Y-97312200D01*
X135014742Y-97299519D01*
X134954686Y-97274642D01*
X134900637Y-97238528D01*
X134854672Y-97192563D01*
X134818558Y-97138514D01*
X134793681Y-97078458D01*
X134781000Y-97014702D01*
X134781000Y-96949698D01*
X134793681Y-96885942D01*
X134818558Y-96825886D01*
X134854672Y-96771837D01*
X134900637Y-96725872D01*
X134954686Y-96689758D01*
X135014742Y-96664881D01*
X135078498Y-96652200D01*
X135143502Y-96652200D01*
X135207258Y-96664881D01*
G37*
G36*
X131607258Y-96664881D02*
G01*
X131667314Y-96689758D01*
X131721363Y-96725872D01*
X131767328Y-96771837D01*
X131803442Y-96825886D01*
X131828319Y-96885942D01*
X131841000Y-96949698D01*
X131841000Y-97014702D01*
X131828319Y-97078458D01*
X131803442Y-97138514D01*
X131767328Y-97192563D01*
X131721363Y-97238528D01*
X131667314Y-97274642D01*
X131607258Y-97299519D01*
X131543502Y-97312200D01*
X131478498Y-97312200D01*
X131414742Y-97299519D01*
X131354686Y-97274642D01*
X131300637Y-97238528D01*
X131254672Y-97192563D01*
X131218558Y-97138514D01*
X131193681Y-97078458D01*
X131181000Y-97014702D01*
X131181000Y-96949698D01*
X131193681Y-96885942D01*
X131218558Y-96825886D01*
X131254672Y-96771837D01*
X131300637Y-96725872D01*
X131354686Y-96689758D01*
X131414742Y-96664881D01*
X131478498Y-96652200D01*
X131543502Y-96652200D01*
X131607258Y-96664881D01*
G37*
G36*
X137789658Y-96583681D02*
G01*
X137849714Y-96608558D01*
X137903763Y-96644672D01*
X137949728Y-96690637D01*
X137985842Y-96744686D01*
X138010719Y-96804742D01*
X138023400Y-96868498D01*
X138023400Y-96933502D01*
X138010719Y-96997258D01*
X137985842Y-97057314D01*
X137949728Y-97111363D01*
X137903763Y-97157328D01*
X137849714Y-97193442D01*
X137789658Y-97218319D01*
X137725902Y-97231000D01*
X137660898Y-97231000D01*
X137597142Y-97218319D01*
X137537086Y-97193442D01*
X137483037Y-97157328D01*
X137437072Y-97111363D01*
X137400958Y-97057314D01*
X137376081Y-96997258D01*
X137363400Y-96933502D01*
X137363400Y-96868498D01*
X137376081Y-96804742D01*
X137400958Y-96744686D01*
X137437072Y-96690637D01*
X137483037Y-96644672D01*
X137537086Y-96608558D01*
X137597142Y-96583681D01*
X137660898Y-96571000D01*
X137725902Y-96571000D01*
X137789658Y-96583681D01*
G37*
G36*
X124251458Y-95963921D02*
G01*
X124311514Y-95988798D01*
X124365563Y-96024912D01*
X124411528Y-96070877D01*
X124447642Y-96124926D01*
X124472519Y-96184982D01*
X124485200Y-96248738D01*
X124485200Y-96313742D01*
X124472519Y-96377498D01*
X124447642Y-96437554D01*
X124411528Y-96491603D01*
X124365563Y-96537568D01*
X124311514Y-96573682D01*
X124251458Y-96598559D01*
X124187702Y-96611240D01*
X124122698Y-96611240D01*
X124058942Y-96598559D01*
X123998886Y-96573682D01*
X123944837Y-96537568D01*
X123898872Y-96491603D01*
X123862758Y-96437554D01*
X123837881Y-96377498D01*
X123825200Y-96313742D01*
X123825200Y-96248738D01*
X123837881Y-96184982D01*
X123862758Y-96124926D01*
X123898872Y-96070877D01*
X123944837Y-96024912D01*
X123998886Y-95988798D01*
X124058942Y-95963921D01*
X124122698Y-95951240D01*
X124187702Y-95951240D01*
X124251458Y-95963921D01*
G37*
G36*
X136487541Y-95690599D02*
G01*
X136510745Y-95700211D01*
X136533949Y-95709822D01*
X136575713Y-95737728D01*
X136611232Y-95773247D01*
X136639138Y-95815011D01*
X136639138Y-95815012D01*
X136657309Y-95858879D01*
X136658361Y-95861420D01*
X136668160Y-95910685D01*
X136668160Y-95960915D01*
X136658361Y-96010180D01*
X136639138Y-96056589D01*
X136611232Y-96098353D01*
X136575713Y-96133872D01*
X136533949Y-96161778D01*
X136510745Y-96171389D01*
X136487541Y-96181001D01*
X136438275Y-96190800D01*
X136388045Y-96190800D01*
X136338779Y-96181001D01*
X136315576Y-96171390D01*
X136292371Y-96161778D01*
X136250607Y-96133872D01*
X136215088Y-96098353D01*
X136187182Y-96056589D01*
X136167959Y-96010180D01*
X136158160Y-95960915D01*
X136158160Y-95910685D01*
X136167959Y-95861420D01*
X136169012Y-95858879D01*
X136187182Y-95815012D01*
X136187182Y-95815011D01*
X136215088Y-95773247D01*
X136250607Y-95737728D01*
X136292371Y-95709822D01*
X136315575Y-95700211D01*
X136338779Y-95690599D01*
X136388045Y-95680800D01*
X136438275Y-95680800D01*
X136487541Y-95690599D01*
G37*
G36*
X132009521Y-95690599D02*
G01*
X132032725Y-95700211D01*
X132055929Y-95709822D01*
X132097693Y-95737728D01*
X132133212Y-95773247D01*
X132161118Y-95815011D01*
X132161118Y-95815012D01*
X132179289Y-95858879D01*
X132180341Y-95861420D01*
X132190140Y-95910685D01*
X132190140Y-95960915D01*
X132180341Y-96010180D01*
X132161118Y-96056589D01*
X132133212Y-96098353D01*
X132097693Y-96133872D01*
X132055929Y-96161778D01*
X132032725Y-96171389D01*
X132009521Y-96181001D01*
X131960255Y-96190800D01*
X131910025Y-96190800D01*
X131860759Y-96181001D01*
X131837556Y-96171390D01*
X131814351Y-96161778D01*
X131772587Y-96133872D01*
X131737068Y-96098353D01*
X131709162Y-96056589D01*
X131689939Y-96010180D01*
X131680140Y-95960915D01*
X131680140Y-95910685D01*
X131689939Y-95861420D01*
X131690992Y-95858879D01*
X131709162Y-95815012D01*
X131709162Y-95815011D01*
X131737068Y-95773247D01*
X131772587Y-95737728D01*
X131814351Y-95709822D01*
X131837555Y-95700211D01*
X131860759Y-95690599D01*
X131910025Y-95680800D01*
X131960255Y-95680800D01*
X132009521Y-95690599D01*
G37*
G36*
X133927221Y-95690599D02*
G01*
X133950425Y-95700211D01*
X133973629Y-95709822D01*
X134015393Y-95737728D01*
X134050912Y-95773247D01*
X134078818Y-95815011D01*
X134078818Y-95815012D01*
X134096989Y-95858879D01*
X134098041Y-95861420D01*
X134107840Y-95910685D01*
X134107840Y-95960915D01*
X134098041Y-96010180D01*
X134078818Y-96056589D01*
X134050912Y-96098353D01*
X134015393Y-96133872D01*
X133973629Y-96161778D01*
X133950425Y-96171389D01*
X133927221Y-96181001D01*
X133877955Y-96190800D01*
X133827725Y-96190800D01*
X133778459Y-96181001D01*
X133755256Y-96171390D01*
X133732051Y-96161778D01*
X133690287Y-96133872D01*
X133654768Y-96098353D01*
X133626862Y-96056589D01*
X133607639Y-96010180D01*
X133597840Y-95960915D01*
X133597840Y-95910685D01*
X133607639Y-95861420D01*
X133608692Y-95858879D01*
X133626862Y-95815012D01*
X133626862Y-95815011D01*
X133654768Y-95773247D01*
X133690287Y-95737728D01*
X133732051Y-95709822D01*
X133755255Y-95700211D01*
X133778459Y-95690599D01*
X133827725Y-95680800D01*
X133877955Y-95680800D01*
X133927221Y-95690599D01*
G37*
G36*
X134567301Y-95690599D02*
G01*
X134590505Y-95700211D01*
X134613709Y-95709822D01*
X134655473Y-95737728D01*
X134690992Y-95773247D01*
X134718898Y-95815011D01*
X134718898Y-95815012D01*
X134737069Y-95858879D01*
X134738121Y-95861420D01*
X134747920Y-95910685D01*
X134747920Y-95960915D01*
X134738121Y-96010180D01*
X134718898Y-96056589D01*
X134690992Y-96098353D01*
X134655473Y-96133872D01*
X134613709Y-96161778D01*
X134590505Y-96171389D01*
X134567301Y-96181001D01*
X134518035Y-96190800D01*
X134467805Y-96190800D01*
X134418539Y-96181001D01*
X134395336Y-96171390D01*
X134372131Y-96161778D01*
X134330367Y-96133872D01*
X134294848Y-96098353D01*
X134266942Y-96056589D01*
X134247719Y-96010180D01*
X134237920Y-95960915D01*
X134237920Y-95910685D01*
X134247719Y-95861420D01*
X134248772Y-95858879D01*
X134266942Y-95815012D01*
X134266942Y-95815011D01*
X134294848Y-95773247D01*
X134330367Y-95737728D01*
X134372131Y-95709822D01*
X134395335Y-95700211D01*
X134418539Y-95690599D01*
X134467805Y-95680800D01*
X134518035Y-95680800D01*
X134567301Y-95690599D01*
G37*
G36*
X128814201Y-95690599D02*
G01*
X128837405Y-95700211D01*
X128860609Y-95709822D01*
X128902373Y-95737728D01*
X128937892Y-95773247D01*
X128965798Y-95815011D01*
X128965798Y-95815012D01*
X128983969Y-95858879D01*
X128985021Y-95861420D01*
X128994820Y-95910685D01*
X128994820Y-95960915D01*
X128985021Y-96010180D01*
X128965798Y-96056589D01*
X128937892Y-96098353D01*
X128902373Y-96133872D01*
X128860609Y-96161778D01*
X128837405Y-96171389D01*
X128814201Y-96181001D01*
X128764935Y-96190800D01*
X128714705Y-96190800D01*
X128665439Y-96181001D01*
X128642236Y-96171390D01*
X128619031Y-96161778D01*
X128577267Y-96133872D01*
X128541748Y-96098353D01*
X128513842Y-96056589D01*
X128494619Y-96010180D01*
X128484820Y-95960915D01*
X128484820Y-95910685D01*
X128494619Y-95861420D01*
X128495672Y-95858879D01*
X128513842Y-95815012D01*
X128513842Y-95815011D01*
X128541748Y-95773247D01*
X128577267Y-95737728D01*
X128619031Y-95709822D01*
X128642235Y-95700211D01*
X128665439Y-95690599D01*
X128714705Y-95680800D01*
X128764935Y-95680800D01*
X128814201Y-95690599D01*
G37*
G36*
X129451741Y-95690599D02*
G01*
X129474945Y-95700211D01*
X129498149Y-95709822D01*
X129539913Y-95737728D01*
X129575432Y-95773247D01*
X129603338Y-95815011D01*
X129603338Y-95815012D01*
X129621509Y-95858879D01*
X129622561Y-95861420D01*
X129632360Y-95910685D01*
X129632360Y-95960915D01*
X129622561Y-96010180D01*
X129603338Y-96056589D01*
X129575432Y-96098353D01*
X129539913Y-96133872D01*
X129498149Y-96161778D01*
X129474945Y-96171389D01*
X129451741Y-96181001D01*
X129402475Y-96190800D01*
X129352245Y-96190800D01*
X129302979Y-96181001D01*
X129279776Y-96171390D01*
X129256571Y-96161778D01*
X129214807Y-96133872D01*
X129179288Y-96098353D01*
X129151382Y-96056589D01*
X129132159Y-96010180D01*
X129122360Y-95960915D01*
X129122360Y-95910685D01*
X129132159Y-95861420D01*
X129133212Y-95858879D01*
X129151382Y-95815012D01*
X129151382Y-95815011D01*
X129179288Y-95773247D01*
X129214807Y-95737728D01*
X129256571Y-95709822D01*
X129279775Y-95700211D01*
X129302979Y-95690599D01*
X129352245Y-95680800D01*
X129402475Y-95680800D01*
X129451741Y-95690599D01*
G37*
G36*
X126256421Y-95688059D02*
G01*
X126279625Y-95697671D01*
X126302829Y-95707282D01*
X126344593Y-95735188D01*
X126380112Y-95770707D01*
X126408018Y-95812471D01*
X126417629Y-95835675D01*
X126427241Y-95858879D01*
X126437040Y-95908145D01*
X126437040Y-95958375D01*
X126427241Y-96007641D01*
X126420250Y-96024518D01*
X126408018Y-96054049D01*
X126380112Y-96095813D01*
X126344593Y-96131332D01*
X126302829Y-96159238D01*
X126279624Y-96168850D01*
X126256421Y-96178461D01*
X126207155Y-96188260D01*
X126156925Y-96188260D01*
X126107659Y-96178461D01*
X126084456Y-96168850D01*
X126061251Y-96159238D01*
X126019487Y-96131332D01*
X125983968Y-96095813D01*
X125956062Y-96054049D01*
X125943830Y-96024518D01*
X125936839Y-96007641D01*
X125927040Y-95958375D01*
X125927040Y-95908145D01*
X125936839Y-95858879D01*
X125946451Y-95835675D01*
X125956062Y-95812471D01*
X125983968Y-95770707D01*
X126019487Y-95735188D01*
X126061251Y-95707282D01*
X126084455Y-95697671D01*
X126107659Y-95688059D01*
X126156925Y-95678260D01*
X126207155Y-95678260D01*
X126256421Y-95688059D01*
G37*
G36*
X127534041Y-95688059D02*
G01*
X127557245Y-95697671D01*
X127580449Y-95707282D01*
X127622213Y-95735188D01*
X127657732Y-95770707D01*
X127685638Y-95812471D01*
X127695249Y-95835675D01*
X127704861Y-95858879D01*
X127714660Y-95908145D01*
X127714660Y-95958375D01*
X127704861Y-96007641D01*
X127697870Y-96024518D01*
X127685638Y-96054049D01*
X127657732Y-96095813D01*
X127622213Y-96131332D01*
X127580449Y-96159238D01*
X127557244Y-96168850D01*
X127534041Y-96178461D01*
X127484775Y-96188260D01*
X127434545Y-96188260D01*
X127385279Y-96178461D01*
X127362076Y-96168850D01*
X127338871Y-96159238D01*
X127297107Y-96131332D01*
X127261588Y-96095813D01*
X127233682Y-96054049D01*
X127221450Y-96024518D01*
X127214459Y-96007641D01*
X127204660Y-95958375D01*
X127204660Y-95908145D01*
X127214459Y-95858879D01*
X127224071Y-95835675D01*
X127233682Y-95812471D01*
X127261588Y-95770707D01*
X127297107Y-95735188D01*
X127338871Y-95707282D01*
X127362075Y-95697671D01*
X127385279Y-95688059D01*
X127434545Y-95678260D01*
X127484775Y-95678260D01*
X127534041Y-95688059D01*
G37*
G36*
X128174121Y-95688059D02*
G01*
X128197325Y-95697671D01*
X128220529Y-95707282D01*
X128262293Y-95735188D01*
X128297812Y-95770707D01*
X128325718Y-95812471D01*
X128335329Y-95835675D01*
X128344941Y-95858879D01*
X128354740Y-95908145D01*
X128354740Y-95958375D01*
X128344941Y-96007641D01*
X128337950Y-96024518D01*
X128325718Y-96054049D01*
X128297812Y-96095813D01*
X128262293Y-96131332D01*
X128220529Y-96159238D01*
X128197324Y-96168850D01*
X128174121Y-96178461D01*
X128124855Y-96188260D01*
X128074625Y-96188260D01*
X128025359Y-96178461D01*
X128002156Y-96168850D01*
X127978951Y-96159238D01*
X127937187Y-96131332D01*
X127901668Y-96095813D01*
X127873762Y-96054049D01*
X127861530Y-96024518D01*
X127854539Y-96007641D01*
X127844740Y-95958375D01*
X127844740Y-95908145D01*
X127854539Y-95858879D01*
X127864151Y-95835675D01*
X127873762Y-95812471D01*
X127901668Y-95770707D01*
X127937187Y-95735188D01*
X127978951Y-95707282D01*
X128002155Y-95697671D01*
X128025359Y-95688059D01*
X128074625Y-95678260D01*
X128124855Y-95678260D01*
X128174121Y-95688059D01*
G37*
G36*
X135847461Y-95688059D02*
G01*
X135870665Y-95697671D01*
X135893869Y-95707282D01*
X135935633Y-95735188D01*
X135971152Y-95770707D01*
X135999058Y-95812471D01*
X136008669Y-95835675D01*
X136018281Y-95858879D01*
X136028080Y-95908145D01*
X136028080Y-95958375D01*
X136018281Y-96007641D01*
X136011290Y-96024518D01*
X135999058Y-96054049D01*
X135971152Y-96095813D01*
X135935633Y-96131332D01*
X135893869Y-96159238D01*
X135870664Y-96168850D01*
X135847461Y-96178461D01*
X135798195Y-96188260D01*
X135747965Y-96188260D01*
X135698699Y-96178461D01*
X135675496Y-96168850D01*
X135652291Y-96159238D01*
X135610527Y-96131332D01*
X135575008Y-96095813D01*
X135547102Y-96054049D01*
X135534870Y-96024518D01*
X135527879Y-96007641D01*
X135518080Y-95958375D01*
X135518080Y-95908145D01*
X135527879Y-95858879D01*
X135537491Y-95835675D01*
X135547102Y-95812471D01*
X135575008Y-95770707D01*
X135610527Y-95735188D01*
X135652291Y-95707282D01*
X135675495Y-95697671D01*
X135698699Y-95688059D01*
X135747965Y-95678260D01*
X135798195Y-95678260D01*
X135847461Y-95688059D01*
G37*
G36*
X130729361Y-95688059D02*
G01*
X130752565Y-95697671D01*
X130775769Y-95707282D01*
X130817533Y-95735188D01*
X130853052Y-95770707D01*
X130880958Y-95812471D01*
X130890569Y-95835675D01*
X130900181Y-95858879D01*
X130909980Y-95908145D01*
X130909980Y-95958375D01*
X130900181Y-96007641D01*
X130893190Y-96024518D01*
X130880958Y-96054049D01*
X130853052Y-96095813D01*
X130817533Y-96131332D01*
X130775769Y-96159238D01*
X130752564Y-96168850D01*
X130729361Y-96178461D01*
X130680095Y-96188260D01*
X130629865Y-96188260D01*
X130580599Y-96178461D01*
X130557396Y-96168850D01*
X130534191Y-96159238D01*
X130492427Y-96131332D01*
X130456908Y-96095813D01*
X130429002Y-96054049D01*
X130416770Y-96024518D01*
X130409779Y-96007641D01*
X130399980Y-95958375D01*
X130399980Y-95908145D01*
X130409779Y-95858879D01*
X130419391Y-95835675D01*
X130429002Y-95812471D01*
X130456908Y-95770707D01*
X130492427Y-95735188D01*
X130534191Y-95707282D01*
X130557395Y-95697671D01*
X130580599Y-95688059D01*
X130629865Y-95678260D01*
X130680095Y-95678260D01*
X130729361Y-95688059D01*
G37*
G36*
X131369441Y-95688059D02*
G01*
X131392645Y-95697671D01*
X131415849Y-95707282D01*
X131457613Y-95735188D01*
X131493132Y-95770707D01*
X131521038Y-95812471D01*
X131530649Y-95835675D01*
X131540261Y-95858879D01*
X131550060Y-95908145D01*
X131550060Y-95958375D01*
X131540261Y-96007641D01*
X131533270Y-96024518D01*
X131521038Y-96054049D01*
X131493132Y-96095813D01*
X131457613Y-96131332D01*
X131415849Y-96159238D01*
X131392644Y-96168850D01*
X131369441Y-96178461D01*
X131320175Y-96188260D01*
X131269945Y-96188260D01*
X131220679Y-96178461D01*
X131197476Y-96168850D01*
X131174271Y-96159238D01*
X131132507Y-96131332D01*
X131096988Y-96095813D01*
X131069082Y-96054049D01*
X131056850Y-96024518D01*
X131049859Y-96007641D01*
X131040060Y-95958375D01*
X131040060Y-95908145D01*
X131049859Y-95858879D01*
X131059471Y-95835675D01*
X131069082Y-95812471D01*
X131096988Y-95770707D01*
X131132507Y-95735188D01*
X131174271Y-95707282D01*
X131197475Y-95697671D01*
X131220679Y-95688059D01*
X131269945Y-95678260D01*
X131320175Y-95678260D01*
X131369441Y-95688059D01*
G37*
G36*
X133287141Y-95688059D02*
G01*
X133310345Y-95697671D01*
X133333549Y-95707282D01*
X133375313Y-95735188D01*
X133410832Y-95770707D01*
X133438738Y-95812471D01*
X133448349Y-95835675D01*
X133457961Y-95858879D01*
X133467760Y-95908145D01*
X133467760Y-95958375D01*
X133457961Y-96007641D01*
X133450970Y-96024518D01*
X133438738Y-96054049D01*
X133410832Y-96095813D01*
X133375313Y-96131332D01*
X133333549Y-96159238D01*
X133310344Y-96168850D01*
X133287141Y-96178461D01*
X133237875Y-96188260D01*
X133187645Y-96188260D01*
X133138379Y-96178461D01*
X133115176Y-96168850D01*
X133091971Y-96159238D01*
X133050207Y-96131332D01*
X133014688Y-96095813D01*
X132986782Y-96054049D01*
X132974550Y-96024518D01*
X132967559Y-96007641D01*
X132957760Y-95958375D01*
X132957760Y-95908145D01*
X132967559Y-95858879D01*
X132977171Y-95835675D01*
X132986782Y-95812471D01*
X133014688Y-95770707D01*
X133050207Y-95735188D01*
X133091971Y-95707282D01*
X133115175Y-95697671D01*
X133138379Y-95688059D01*
X133187645Y-95678260D01*
X133237875Y-95678260D01*
X133287141Y-95688059D01*
G37*
G36*
X130091821Y-95688059D02*
G01*
X130115025Y-95697671D01*
X130138229Y-95707282D01*
X130179993Y-95735188D01*
X130215512Y-95770707D01*
X130243418Y-95812471D01*
X130253029Y-95835675D01*
X130262641Y-95858879D01*
X130272440Y-95908145D01*
X130272440Y-95958375D01*
X130262641Y-96007641D01*
X130255650Y-96024518D01*
X130243418Y-96054049D01*
X130215512Y-96095813D01*
X130179993Y-96131332D01*
X130138229Y-96159238D01*
X130115024Y-96168850D01*
X130091821Y-96178461D01*
X130042555Y-96188260D01*
X129992325Y-96188260D01*
X129943059Y-96178461D01*
X129919856Y-96168850D01*
X129896651Y-96159238D01*
X129854887Y-96131332D01*
X129819368Y-96095813D01*
X129791462Y-96054049D01*
X129779230Y-96024518D01*
X129772239Y-96007641D01*
X129762440Y-95958375D01*
X129762440Y-95908145D01*
X129772239Y-95858879D01*
X129781851Y-95835675D01*
X129791462Y-95812471D01*
X129819368Y-95770707D01*
X129854887Y-95735188D01*
X129896651Y-95707282D01*
X129919855Y-95697671D01*
X129943059Y-95688059D01*
X129992325Y-95678260D01*
X130042555Y-95678260D01*
X130091821Y-95688059D01*
G37*
G36*
X135207381Y-95688059D02*
G01*
X135230585Y-95697671D01*
X135253789Y-95707282D01*
X135295553Y-95735188D01*
X135331072Y-95770707D01*
X135358978Y-95812471D01*
X135368589Y-95835675D01*
X135378201Y-95858879D01*
X135388000Y-95908145D01*
X135388000Y-95958375D01*
X135378201Y-96007641D01*
X135371210Y-96024518D01*
X135358978Y-96054049D01*
X135331072Y-96095813D01*
X135295553Y-96131332D01*
X135253789Y-96159238D01*
X135230584Y-96168850D01*
X135207381Y-96178461D01*
X135158115Y-96188260D01*
X135107885Y-96188260D01*
X135058619Y-96178461D01*
X135035416Y-96168850D01*
X135012211Y-96159238D01*
X134970447Y-96131332D01*
X134934928Y-96095813D01*
X134907022Y-96054049D01*
X134894790Y-96024518D01*
X134887799Y-96007641D01*
X134878000Y-95958375D01*
X134878000Y-95908145D01*
X134887799Y-95858879D01*
X134897411Y-95835675D01*
X134907022Y-95812471D01*
X134934928Y-95770707D01*
X134970447Y-95735188D01*
X135012211Y-95707282D01*
X135035415Y-95697671D01*
X135058619Y-95688059D01*
X135107885Y-95678260D01*
X135158115Y-95678260D01*
X135207381Y-95688059D01*
G37*
G36*
X126896501Y-95688059D02*
G01*
X126919705Y-95697671D01*
X126942909Y-95707282D01*
X126984673Y-95735188D01*
X127020192Y-95770707D01*
X127048098Y-95812471D01*
X127057709Y-95835675D01*
X127067321Y-95858879D01*
X127077120Y-95908145D01*
X127077120Y-95958375D01*
X127067321Y-96007641D01*
X127060330Y-96024518D01*
X127048098Y-96054049D01*
X127020192Y-96095813D01*
X126984673Y-96131332D01*
X126942909Y-96159238D01*
X126919704Y-96168850D01*
X126896501Y-96178461D01*
X126847235Y-96188260D01*
X126797005Y-96188260D01*
X126747739Y-96178461D01*
X126724536Y-96168850D01*
X126701331Y-96159238D01*
X126659567Y-96131332D01*
X126624048Y-96095813D01*
X126596142Y-96054049D01*
X126583910Y-96024518D01*
X126576919Y-96007641D01*
X126567120Y-95958375D01*
X126567120Y-95908145D01*
X126576919Y-95858879D01*
X126586531Y-95835675D01*
X126596142Y-95812471D01*
X126624048Y-95770707D01*
X126659567Y-95735188D01*
X126701331Y-95707282D01*
X126724535Y-95697671D01*
X126747739Y-95688059D01*
X126797005Y-95678260D01*
X126847235Y-95678260D01*
X126896501Y-95688059D01*
G37*
G36*
X132647061Y-95688059D02*
G01*
X132670265Y-95697671D01*
X132693469Y-95707282D01*
X132735233Y-95735188D01*
X132770752Y-95770707D01*
X132798658Y-95812471D01*
X132808269Y-95835675D01*
X132817881Y-95858879D01*
X132827680Y-95908145D01*
X132827680Y-95958375D01*
X132817881Y-96007641D01*
X132810890Y-96024518D01*
X132798658Y-96054049D01*
X132770752Y-96095813D01*
X132735233Y-96131332D01*
X132693469Y-96159238D01*
X132670264Y-96168850D01*
X132647061Y-96178461D01*
X132597795Y-96188260D01*
X132547565Y-96188260D01*
X132498299Y-96178461D01*
X132475096Y-96168850D01*
X132451891Y-96159238D01*
X132410127Y-96131332D01*
X132374608Y-96095813D01*
X132346702Y-96054049D01*
X132334470Y-96024518D01*
X132327479Y-96007641D01*
X132317680Y-95958375D01*
X132317680Y-95908145D01*
X132327479Y-95858879D01*
X132337091Y-95835675D01*
X132346702Y-95812471D01*
X132374608Y-95770707D01*
X132410127Y-95735188D01*
X132451891Y-95707282D01*
X132475095Y-95697671D01*
X132498299Y-95688059D01*
X132547565Y-95678260D01*
X132597795Y-95678260D01*
X132647061Y-95688059D01*
G37*
G36*
X125616421Y-95686959D02*
G01*
X125625208Y-95690599D01*
X125662829Y-95706182D01*
X125704593Y-95734088D01*
X125740112Y-95769607D01*
X125768018Y-95811371D01*
X125769526Y-95815012D01*
X125787241Y-95857779D01*
X125797040Y-95907045D01*
X125797040Y-95957275D01*
X125787241Y-96006541D01*
X125785733Y-96010181D01*
X125768018Y-96052949D01*
X125740112Y-96094713D01*
X125704593Y-96130232D01*
X125662829Y-96158138D01*
X125654041Y-96161778D01*
X125616421Y-96177361D01*
X125567155Y-96187160D01*
X125516925Y-96187160D01*
X125467659Y-96177361D01*
X125430039Y-96161778D01*
X125421251Y-96158138D01*
X125379487Y-96130232D01*
X125343968Y-96094713D01*
X125316062Y-96052949D01*
X125298347Y-96010181D01*
X125296839Y-96006541D01*
X125287040Y-95957275D01*
X125287040Y-95907045D01*
X125296839Y-95857779D01*
X125314554Y-95815012D01*
X125316062Y-95811371D01*
X125343968Y-95769607D01*
X125379487Y-95734088D01*
X125421251Y-95706182D01*
X125458872Y-95690599D01*
X125467659Y-95686959D01*
X125516925Y-95677160D01*
X125567155Y-95677160D01*
X125616421Y-95686959D01*
G37*
G36*
X137891258Y-95389881D02*
G01*
X137951314Y-95414758D01*
X138005363Y-95450872D01*
X138051328Y-95496837D01*
X138087442Y-95550886D01*
X138112319Y-95610942D01*
X138125000Y-95674698D01*
X138125000Y-95739702D01*
X138112319Y-95803458D01*
X138087442Y-95863514D01*
X138051328Y-95917563D01*
X138005363Y-95963528D01*
X137951314Y-95999642D01*
X137891258Y-96024519D01*
X137827502Y-96037200D01*
X137762498Y-96037200D01*
X137698742Y-96024519D01*
X137638686Y-95999642D01*
X137584637Y-95963528D01*
X137538672Y-95917563D01*
X137502558Y-95863514D01*
X137477681Y-95803458D01*
X137465000Y-95739702D01*
X137465000Y-95674698D01*
X137477681Y-95610942D01*
X137502558Y-95550886D01*
X137538672Y-95496837D01*
X137584637Y-95450872D01*
X137638686Y-95414758D01*
X137698742Y-95389881D01*
X137762498Y-95377200D01*
X137827502Y-95377200D01*
X137891258Y-95389881D01*
G37*
G36*
X124210818Y-94876801D02*
G01*
X124270874Y-94901678D01*
X124324923Y-94937792D01*
X124370888Y-94983757D01*
X124407002Y-95037806D01*
X124431879Y-95097862D01*
X124444560Y-95161618D01*
X124444560Y-95226622D01*
X124431879Y-95290378D01*
X124407002Y-95350434D01*
X124370888Y-95404483D01*
X124324923Y-95450448D01*
X124270874Y-95486562D01*
X124210818Y-95511439D01*
X124147062Y-95524120D01*
X124082058Y-95524120D01*
X124018302Y-95511439D01*
X123958246Y-95486562D01*
X123904197Y-95450448D01*
X123858232Y-95404483D01*
X123822118Y-95350434D01*
X123797241Y-95290378D01*
X123784560Y-95226622D01*
X123784560Y-95161618D01*
X123797241Y-95097862D01*
X123822118Y-95037806D01*
X123858232Y-94983757D01*
X123904197Y-94937792D01*
X123958246Y-94901678D01*
X124018302Y-94876801D01*
X124082058Y-94864120D01*
X124147062Y-94864120D01*
X124210818Y-94876801D01*
G37*
G36*
X127536581Y-94506959D02*
G01*
X127559785Y-94516571D01*
X127582989Y-94526182D01*
X127624753Y-94554088D01*
X127660272Y-94589607D01*
X127688178Y-94631371D01*
X127688178Y-94631372D01*
X127707401Y-94677779D01*
X127717200Y-94727045D01*
X127717200Y-94777275D01*
X127708917Y-94818921D01*
X127707401Y-94826540D01*
X127688178Y-94872949D01*
X127660272Y-94914713D01*
X127624753Y-94950232D01*
X127582989Y-94978138D01*
X127569423Y-94983757D01*
X127536581Y-94997361D01*
X127487315Y-95007160D01*
X127437085Y-95007160D01*
X127387819Y-94997361D01*
X127354977Y-94983757D01*
X127341411Y-94978138D01*
X127299647Y-94950232D01*
X127264128Y-94914713D01*
X127236222Y-94872949D01*
X127216999Y-94826540D01*
X127215484Y-94818921D01*
X127207200Y-94777275D01*
X127207200Y-94727045D01*
X127216999Y-94677779D01*
X127236222Y-94631372D01*
X127236222Y-94631371D01*
X127264128Y-94589607D01*
X127299647Y-94554088D01*
X127341411Y-94526182D01*
X127364615Y-94516571D01*
X127387819Y-94506959D01*
X127437085Y-94497160D01*
X127487315Y-94497160D01*
X127536581Y-94506959D01*
G37*
G36*
X125616421Y-94506959D02*
G01*
X125639625Y-94516571D01*
X125662829Y-94526182D01*
X125704593Y-94554088D01*
X125740112Y-94589607D01*
X125768018Y-94631371D01*
X125768018Y-94631372D01*
X125787241Y-94677779D01*
X125797040Y-94727045D01*
X125797040Y-94777275D01*
X125788757Y-94818921D01*
X125787241Y-94826540D01*
X125768018Y-94872949D01*
X125740112Y-94914713D01*
X125704593Y-94950232D01*
X125662829Y-94978138D01*
X125649263Y-94983757D01*
X125616421Y-94997361D01*
X125567155Y-95007160D01*
X125516925Y-95007160D01*
X125467659Y-94997361D01*
X125434817Y-94983757D01*
X125421251Y-94978138D01*
X125379487Y-94950232D01*
X125343968Y-94914713D01*
X125316062Y-94872949D01*
X125296839Y-94826540D01*
X125295324Y-94818921D01*
X125287040Y-94777275D01*
X125287040Y-94727045D01*
X125296839Y-94677779D01*
X125316062Y-94631372D01*
X125316062Y-94631371D01*
X125343968Y-94589607D01*
X125379487Y-94554088D01*
X125421251Y-94526182D01*
X125444455Y-94516571D01*
X125467659Y-94506959D01*
X125516925Y-94497160D01*
X125567155Y-94497160D01*
X125616421Y-94506959D01*
G37*
G36*
X126896501Y-94506959D02*
G01*
X126919705Y-94516571D01*
X126942909Y-94526182D01*
X126984673Y-94554088D01*
X127020192Y-94589607D01*
X127048098Y-94631371D01*
X127048098Y-94631372D01*
X127067321Y-94677779D01*
X127077120Y-94727045D01*
X127077120Y-94777275D01*
X127068837Y-94818921D01*
X127067321Y-94826540D01*
X127048098Y-94872949D01*
X127020192Y-94914713D01*
X126984673Y-94950232D01*
X126942909Y-94978138D01*
X126929343Y-94983757D01*
X126896501Y-94997361D01*
X126847235Y-95007160D01*
X126797005Y-95007160D01*
X126747739Y-94997361D01*
X126714897Y-94983757D01*
X126701331Y-94978138D01*
X126659567Y-94950232D01*
X126624048Y-94914713D01*
X126596142Y-94872949D01*
X126576919Y-94826540D01*
X126575404Y-94818921D01*
X126567120Y-94777275D01*
X126567120Y-94727045D01*
X126576919Y-94677779D01*
X126596142Y-94631372D01*
X126596142Y-94631371D01*
X126624048Y-94589607D01*
X126659567Y-94554088D01*
X126701331Y-94526182D01*
X126724535Y-94516571D01*
X126747739Y-94506959D01*
X126797005Y-94497160D01*
X126847235Y-94497160D01*
X126896501Y-94506959D01*
G37*
G36*
X126256421Y-94506959D02*
G01*
X126279625Y-94516571D01*
X126302829Y-94526182D01*
X126344593Y-94554088D01*
X126380112Y-94589607D01*
X126408018Y-94631371D01*
X126408018Y-94631372D01*
X126427241Y-94677779D01*
X126437040Y-94727045D01*
X126437040Y-94777275D01*
X126428757Y-94818921D01*
X126427241Y-94826540D01*
X126408018Y-94872949D01*
X126380112Y-94914713D01*
X126344593Y-94950232D01*
X126302829Y-94978138D01*
X126289263Y-94983757D01*
X126256421Y-94997361D01*
X126207155Y-95007160D01*
X126156925Y-95007160D01*
X126107659Y-94997361D01*
X126074817Y-94983757D01*
X126061251Y-94978138D01*
X126019487Y-94950232D01*
X125983968Y-94914713D01*
X125956062Y-94872949D01*
X125936839Y-94826540D01*
X125935324Y-94818921D01*
X125927040Y-94777275D01*
X125927040Y-94727045D01*
X125936839Y-94677779D01*
X125956062Y-94631372D01*
X125956062Y-94631371D01*
X125983968Y-94589607D01*
X126019487Y-94554088D01*
X126061251Y-94526182D01*
X126084455Y-94516571D01*
X126107659Y-94506959D01*
X126156925Y-94497160D01*
X126207155Y-94497160D01*
X126256421Y-94506959D01*
G37*
G36*
X128816741Y-94504419D02*
G01*
X128839944Y-94514030D01*
X128863149Y-94523642D01*
X128904913Y-94551548D01*
X128940432Y-94587067D01*
X128968338Y-94628831D01*
X128974751Y-94644314D01*
X128987561Y-94675239D01*
X128997360Y-94724505D01*
X128997360Y-94774735D01*
X128987561Y-94824001D01*
X128977949Y-94847205D01*
X128968338Y-94870409D01*
X128940432Y-94912173D01*
X128904913Y-94947692D01*
X128863149Y-94975598D01*
X128843451Y-94983757D01*
X128816741Y-94994821D01*
X128767475Y-95004620D01*
X128717245Y-95004620D01*
X128667979Y-94994821D01*
X128641269Y-94983757D01*
X128621571Y-94975598D01*
X128579807Y-94947692D01*
X128544288Y-94912173D01*
X128516382Y-94870409D01*
X128506771Y-94847205D01*
X128497159Y-94824001D01*
X128487360Y-94774735D01*
X128487360Y-94724505D01*
X128497159Y-94675239D01*
X128509969Y-94644314D01*
X128516382Y-94628831D01*
X128544288Y-94587067D01*
X128579807Y-94551548D01*
X128621571Y-94523642D01*
X128644776Y-94514030D01*
X128667979Y-94504419D01*
X128717245Y-94494620D01*
X128767475Y-94494620D01*
X128816741Y-94504419D01*
G37*
G36*
X129456821Y-94504419D02*
G01*
X129480024Y-94514030D01*
X129503229Y-94523642D01*
X129544993Y-94551548D01*
X129580512Y-94587067D01*
X129608418Y-94628831D01*
X129614831Y-94644314D01*
X129627641Y-94675239D01*
X129637440Y-94724505D01*
X129637440Y-94774735D01*
X129627641Y-94824001D01*
X129618029Y-94847205D01*
X129608418Y-94870409D01*
X129580512Y-94912173D01*
X129544993Y-94947692D01*
X129503229Y-94975598D01*
X129483531Y-94983757D01*
X129456821Y-94994821D01*
X129407555Y-95004620D01*
X129357325Y-95004620D01*
X129308059Y-94994821D01*
X129281349Y-94983757D01*
X129261651Y-94975598D01*
X129219887Y-94947692D01*
X129184368Y-94912173D01*
X129156462Y-94870409D01*
X129146851Y-94847205D01*
X129137239Y-94824001D01*
X129127440Y-94774735D01*
X129127440Y-94724505D01*
X129137239Y-94675239D01*
X129150049Y-94644314D01*
X129156462Y-94628831D01*
X129184368Y-94587067D01*
X129219887Y-94551548D01*
X129261651Y-94523642D01*
X129284856Y-94514030D01*
X129308059Y-94504419D01*
X129357325Y-94494620D01*
X129407555Y-94494620D01*
X129456821Y-94504419D01*
G37*
G36*
X131377061Y-94504419D02*
G01*
X131400264Y-94514030D01*
X131423469Y-94523642D01*
X131465233Y-94551548D01*
X131500752Y-94587067D01*
X131528658Y-94628831D01*
X131535071Y-94644314D01*
X131547881Y-94675239D01*
X131557680Y-94724505D01*
X131557680Y-94774735D01*
X131547881Y-94824001D01*
X131538269Y-94847205D01*
X131528658Y-94870409D01*
X131500752Y-94912173D01*
X131465233Y-94947692D01*
X131423469Y-94975598D01*
X131403771Y-94983757D01*
X131377061Y-94994821D01*
X131327795Y-95004620D01*
X131277565Y-95004620D01*
X131228299Y-94994821D01*
X131201589Y-94983757D01*
X131181891Y-94975598D01*
X131140127Y-94947692D01*
X131104608Y-94912173D01*
X131076702Y-94870409D01*
X131067091Y-94847205D01*
X131057479Y-94824001D01*
X131047680Y-94774735D01*
X131047680Y-94724505D01*
X131057479Y-94675239D01*
X131070289Y-94644314D01*
X131076702Y-94628831D01*
X131104608Y-94587067D01*
X131140127Y-94551548D01*
X131181891Y-94523642D01*
X131205096Y-94514030D01*
X131228299Y-94504419D01*
X131277565Y-94494620D01*
X131327795Y-94494620D01*
X131377061Y-94504419D01*
G37*
G36*
X130096901Y-94504419D02*
G01*
X130120104Y-94514030D01*
X130143309Y-94523642D01*
X130185073Y-94551548D01*
X130220592Y-94587067D01*
X130248498Y-94628831D01*
X130254911Y-94644314D01*
X130267721Y-94675239D01*
X130277520Y-94724505D01*
X130277520Y-94774735D01*
X130267721Y-94824001D01*
X130258109Y-94847205D01*
X130248498Y-94870409D01*
X130220592Y-94912173D01*
X130185073Y-94947692D01*
X130143309Y-94975598D01*
X130123611Y-94983757D01*
X130096901Y-94994821D01*
X130047635Y-95004620D01*
X129997405Y-95004620D01*
X129948139Y-94994821D01*
X129921429Y-94983757D01*
X129901731Y-94975598D01*
X129859967Y-94947692D01*
X129824448Y-94912173D01*
X129796542Y-94870409D01*
X129786931Y-94847205D01*
X129777319Y-94824001D01*
X129767520Y-94774735D01*
X129767520Y-94724505D01*
X129777319Y-94675239D01*
X129790129Y-94644314D01*
X129796542Y-94628831D01*
X129824448Y-94587067D01*
X129859967Y-94551548D01*
X129901731Y-94523642D01*
X129924936Y-94514030D01*
X129948139Y-94504419D01*
X129997405Y-94494620D01*
X130047635Y-94494620D01*
X130096901Y-94504419D01*
G37*
G36*
X133934841Y-94504419D02*
G01*
X133958044Y-94514030D01*
X133981249Y-94523642D01*
X134023013Y-94551548D01*
X134058532Y-94587067D01*
X134086438Y-94628831D01*
X134092851Y-94644314D01*
X134105661Y-94675239D01*
X134115460Y-94724505D01*
X134115460Y-94774735D01*
X134105661Y-94824001D01*
X134096049Y-94847205D01*
X134086438Y-94870409D01*
X134058532Y-94912173D01*
X134023013Y-94947692D01*
X133981249Y-94975598D01*
X133961551Y-94983757D01*
X133934841Y-94994821D01*
X133885575Y-95004620D01*
X133835345Y-95004620D01*
X133786079Y-94994821D01*
X133759369Y-94983757D01*
X133739671Y-94975598D01*
X133697907Y-94947692D01*
X133662388Y-94912173D01*
X133634482Y-94870409D01*
X133624871Y-94847205D01*
X133615259Y-94824001D01*
X133605460Y-94774735D01*
X133605460Y-94724505D01*
X133615259Y-94675239D01*
X133628069Y-94644314D01*
X133634482Y-94628831D01*
X133662388Y-94587067D01*
X133697907Y-94551548D01*
X133739671Y-94523642D01*
X133762876Y-94514030D01*
X133786079Y-94504419D01*
X133835345Y-94494620D01*
X133885575Y-94494620D01*
X133934841Y-94504419D01*
G37*
G36*
X133297301Y-94504419D02*
G01*
X133320504Y-94514030D01*
X133343709Y-94523642D01*
X133385473Y-94551548D01*
X133420992Y-94587067D01*
X133448898Y-94628831D01*
X133455311Y-94644314D01*
X133468121Y-94675239D01*
X133477920Y-94724505D01*
X133477920Y-94774735D01*
X133468121Y-94824001D01*
X133458509Y-94847205D01*
X133448898Y-94870409D01*
X133420992Y-94912173D01*
X133385473Y-94947692D01*
X133343709Y-94975598D01*
X133324011Y-94983757D01*
X133297301Y-94994821D01*
X133248035Y-95004620D01*
X133197805Y-95004620D01*
X133148539Y-94994821D01*
X133121829Y-94983757D01*
X133102131Y-94975598D01*
X133060367Y-94947692D01*
X133024848Y-94912173D01*
X132996942Y-94870409D01*
X132987331Y-94847205D01*
X132977719Y-94824001D01*
X132967920Y-94774735D01*
X132967920Y-94724505D01*
X132977719Y-94675239D01*
X132990529Y-94644314D01*
X132996942Y-94628831D01*
X133024848Y-94587067D01*
X133060367Y-94551548D01*
X133102131Y-94523642D01*
X133125336Y-94514030D01*
X133148539Y-94504419D01*
X133197805Y-94494620D01*
X133248035Y-94494620D01*
X133297301Y-94504419D01*
G37*
G36*
X132657221Y-94504419D02*
G01*
X132680424Y-94514030D01*
X132703629Y-94523642D01*
X132745393Y-94551548D01*
X132780912Y-94587067D01*
X132808818Y-94628831D01*
X132815231Y-94644314D01*
X132828041Y-94675239D01*
X132837840Y-94724505D01*
X132837840Y-94774735D01*
X132828041Y-94824001D01*
X132818429Y-94847205D01*
X132808818Y-94870409D01*
X132780912Y-94912173D01*
X132745393Y-94947692D01*
X132703629Y-94975598D01*
X132683931Y-94983757D01*
X132657221Y-94994821D01*
X132607955Y-95004620D01*
X132557725Y-95004620D01*
X132508459Y-94994821D01*
X132481749Y-94983757D01*
X132462051Y-94975598D01*
X132420287Y-94947692D01*
X132384768Y-94912173D01*
X132356862Y-94870409D01*
X132347251Y-94847205D01*
X132337639Y-94824001D01*
X132327840Y-94774735D01*
X132327840Y-94724505D01*
X132337639Y-94675239D01*
X132350449Y-94644314D01*
X132356862Y-94628831D01*
X132384768Y-94587067D01*
X132420287Y-94551548D01*
X132462051Y-94523642D01*
X132485256Y-94514030D01*
X132508459Y-94504419D01*
X132557725Y-94494620D01*
X132607955Y-94494620D01*
X132657221Y-94504419D01*
G37*
G36*
X132017141Y-94504419D02*
G01*
X132040344Y-94514030D01*
X132063549Y-94523642D01*
X132105313Y-94551548D01*
X132140832Y-94587067D01*
X132168738Y-94628831D01*
X132175151Y-94644314D01*
X132187961Y-94675239D01*
X132197760Y-94724505D01*
X132197760Y-94774735D01*
X132187961Y-94824001D01*
X132178349Y-94847205D01*
X132168738Y-94870409D01*
X132140832Y-94912173D01*
X132105313Y-94947692D01*
X132063549Y-94975598D01*
X132043851Y-94983757D01*
X132017141Y-94994821D01*
X131967875Y-95004620D01*
X131917645Y-95004620D01*
X131868379Y-94994821D01*
X131841669Y-94983757D01*
X131821971Y-94975598D01*
X131780207Y-94947692D01*
X131744688Y-94912173D01*
X131716782Y-94870409D01*
X131707171Y-94847205D01*
X131697559Y-94824001D01*
X131687760Y-94774735D01*
X131687760Y-94724505D01*
X131697559Y-94675239D01*
X131710369Y-94644314D01*
X131716782Y-94628831D01*
X131744688Y-94587067D01*
X131780207Y-94551548D01*
X131821971Y-94523642D01*
X131845176Y-94514030D01*
X131868379Y-94504419D01*
X131917645Y-94494620D01*
X131967875Y-94494620D01*
X132017141Y-94504419D01*
G37*
G36*
X128176661Y-94504419D02*
G01*
X128199864Y-94514030D01*
X128223069Y-94523642D01*
X128264833Y-94551548D01*
X128300352Y-94587067D01*
X128328258Y-94628831D01*
X128334671Y-94644314D01*
X128347481Y-94675239D01*
X128357280Y-94724505D01*
X128357280Y-94774735D01*
X128347481Y-94824001D01*
X128337869Y-94847205D01*
X128328258Y-94870409D01*
X128300352Y-94912173D01*
X128264833Y-94947692D01*
X128223069Y-94975598D01*
X128203371Y-94983757D01*
X128176661Y-94994821D01*
X128127395Y-95004620D01*
X128077165Y-95004620D01*
X128027899Y-94994821D01*
X128001189Y-94983757D01*
X127981491Y-94975598D01*
X127939727Y-94947692D01*
X127904208Y-94912173D01*
X127876302Y-94870409D01*
X127866691Y-94847205D01*
X127857079Y-94824001D01*
X127847280Y-94774735D01*
X127847280Y-94724505D01*
X127857079Y-94675239D01*
X127869889Y-94644314D01*
X127876302Y-94628831D01*
X127904208Y-94587067D01*
X127939727Y-94551548D01*
X127981491Y-94523642D01*
X128004696Y-94514030D01*
X128027899Y-94504419D01*
X128077165Y-94494620D01*
X128127395Y-94494620D01*
X128176661Y-94504419D01*
G37*
G36*
X130736981Y-94504419D02*
G01*
X130760184Y-94514030D01*
X130783389Y-94523642D01*
X130825153Y-94551548D01*
X130860672Y-94587067D01*
X130888578Y-94628831D01*
X130894991Y-94644314D01*
X130907801Y-94675239D01*
X130917600Y-94724505D01*
X130917600Y-94774735D01*
X130907801Y-94824001D01*
X130898189Y-94847205D01*
X130888578Y-94870409D01*
X130860672Y-94912173D01*
X130825153Y-94947692D01*
X130783389Y-94975598D01*
X130763691Y-94983757D01*
X130736981Y-94994821D01*
X130687715Y-95004620D01*
X130637485Y-95004620D01*
X130588219Y-94994821D01*
X130561509Y-94983757D01*
X130541811Y-94975598D01*
X130500047Y-94947692D01*
X130464528Y-94912173D01*
X130436622Y-94870409D01*
X130427011Y-94847205D01*
X130417399Y-94824001D01*
X130407600Y-94774735D01*
X130407600Y-94724505D01*
X130417399Y-94675239D01*
X130430209Y-94644314D01*
X130436622Y-94628831D01*
X130464528Y-94587067D01*
X130500047Y-94551548D01*
X130541811Y-94523642D01*
X130565016Y-94514030D01*
X130588219Y-94504419D01*
X130637485Y-94494620D01*
X130687715Y-94494620D01*
X130736981Y-94504419D01*
G37*
G36*
X135852541Y-94499339D02*
G01*
X135870937Y-94506959D01*
X135898949Y-94518562D01*
X135940713Y-94546468D01*
X135976232Y-94581987D01*
X136004138Y-94623751D01*
X136012655Y-94644314D01*
X136023361Y-94670159D01*
X136033160Y-94719425D01*
X136033160Y-94769655D01*
X136023361Y-94818921D01*
X136013749Y-94842125D01*
X136004138Y-94865329D01*
X135976232Y-94907093D01*
X135940713Y-94942612D01*
X135898949Y-94970518D01*
X135880552Y-94978138D01*
X135852541Y-94989741D01*
X135803275Y-94999540D01*
X135753045Y-94999540D01*
X135703779Y-94989741D01*
X135675768Y-94978138D01*
X135657371Y-94970518D01*
X135615607Y-94942612D01*
X135580088Y-94907093D01*
X135552182Y-94865329D01*
X135542570Y-94842124D01*
X135532959Y-94818921D01*
X135523160Y-94769655D01*
X135523160Y-94719425D01*
X135532959Y-94670159D01*
X135543665Y-94644314D01*
X135552182Y-94623751D01*
X135580088Y-94581987D01*
X135615607Y-94546468D01*
X135657371Y-94518562D01*
X135685383Y-94506959D01*
X135703779Y-94499339D01*
X135753045Y-94489540D01*
X135803275Y-94489540D01*
X135852541Y-94499339D01*
G37*
G36*
X135212461Y-94499339D02*
G01*
X135230857Y-94506959D01*
X135258869Y-94518562D01*
X135300633Y-94546468D01*
X135336152Y-94581987D01*
X135364058Y-94623751D01*
X135372575Y-94644314D01*
X135383281Y-94670159D01*
X135393080Y-94719425D01*
X135393080Y-94769655D01*
X135383281Y-94818921D01*
X135373669Y-94842125D01*
X135364058Y-94865329D01*
X135336152Y-94907093D01*
X135300633Y-94942612D01*
X135258869Y-94970518D01*
X135240472Y-94978138D01*
X135212461Y-94989741D01*
X135163195Y-94999540D01*
X135112965Y-94999540D01*
X135063699Y-94989741D01*
X135035688Y-94978138D01*
X135017291Y-94970518D01*
X134975527Y-94942612D01*
X134940008Y-94907093D01*
X134912102Y-94865329D01*
X134902490Y-94842124D01*
X134892879Y-94818921D01*
X134883080Y-94769655D01*
X134883080Y-94719425D01*
X134892879Y-94670159D01*
X134903585Y-94644314D01*
X134912102Y-94623751D01*
X134940008Y-94581987D01*
X134975527Y-94546468D01*
X135017291Y-94518562D01*
X135045303Y-94506959D01*
X135063699Y-94499339D01*
X135112965Y-94489540D01*
X135163195Y-94489540D01*
X135212461Y-94499339D01*
G37*
G36*
X134572461Y-94499339D02*
G01*
X134590857Y-94506959D01*
X134618869Y-94518562D01*
X134660633Y-94546468D01*
X134696152Y-94581987D01*
X134724058Y-94623751D01*
X134732575Y-94644314D01*
X134743281Y-94670159D01*
X134753080Y-94719425D01*
X134753080Y-94769655D01*
X134743281Y-94818921D01*
X134733669Y-94842125D01*
X134724058Y-94865329D01*
X134696152Y-94907093D01*
X134660633Y-94942612D01*
X134618869Y-94970518D01*
X134600472Y-94978138D01*
X134572461Y-94989741D01*
X134523195Y-94999540D01*
X134472965Y-94999540D01*
X134423699Y-94989741D01*
X134395688Y-94978138D01*
X134377291Y-94970518D01*
X134335527Y-94942612D01*
X134300008Y-94907093D01*
X134272102Y-94865329D01*
X134262490Y-94842124D01*
X134252879Y-94818921D01*
X134243080Y-94769655D01*
X134243080Y-94719425D01*
X134252879Y-94670159D01*
X134263585Y-94644314D01*
X134272102Y-94623751D01*
X134300008Y-94581987D01*
X134335527Y-94546468D01*
X134377291Y-94518562D01*
X134405303Y-94506959D01*
X134423699Y-94499339D01*
X134472965Y-94489540D01*
X134523195Y-94489540D01*
X134572461Y-94499339D01*
G37*
G36*
X136492621Y-94499339D02*
G01*
X136511017Y-94506959D01*
X136539029Y-94518562D01*
X136580793Y-94546468D01*
X136616312Y-94581987D01*
X136644218Y-94623751D01*
X136652735Y-94644314D01*
X136663441Y-94670159D01*
X136673240Y-94719425D01*
X136673240Y-94769655D01*
X136663441Y-94818921D01*
X136653829Y-94842125D01*
X136644218Y-94865329D01*
X136616312Y-94907093D01*
X136580793Y-94942612D01*
X136539029Y-94970518D01*
X136520632Y-94978138D01*
X136492621Y-94989741D01*
X136443355Y-94999540D01*
X136393125Y-94999540D01*
X136343859Y-94989741D01*
X136315848Y-94978138D01*
X136297451Y-94970518D01*
X136255687Y-94942612D01*
X136220168Y-94907093D01*
X136192262Y-94865329D01*
X136182650Y-94842124D01*
X136173039Y-94818921D01*
X136163240Y-94769655D01*
X136163240Y-94719425D01*
X136173039Y-94670159D01*
X136183745Y-94644314D01*
X136192262Y-94623751D01*
X136220168Y-94581987D01*
X136255687Y-94546468D01*
X136297451Y-94518562D01*
X136325463Y-94506959D01*
X136343859Y-94499339D01*
X136393125Y-94489540D01*
X136443355Y-94489540D01*
X136492621Y-94499339D01*
G37*
G36*
X137891258Y-94170681D02*
G01*
X137951314Y-94195558D01*
X138005363Y-94231672D01*
X138051328Y-94277637D01*
X138087442Y-94331686D01*
X138112319Y-94391742D01*
X138125000Y-94455498D01*
X138125000Y-94520502D01*
X138112319Y-94584258D01*
X138087442Y-94644314D01*
X138051328Y-94698363D01*
X138005363Y-94744328D01*
X137951314Y-94780442D01*
X137891258Y-94805319D01*
X137827502Y-94818000D01*
X137762498Y-94818000D01*
X137698742Y-94805319D01*
X137638686Y-94780442D01*
X137584637Y-94744328D01*
X137538672Y-94698363D01*
X137502558Y-94644314D01*
X137477681Y-94584258D01*
X137465000Y-94520502D01*
X137465000Y-94455498D01*
X137477681Y-94391742D01*
X137502558Y-94331686D01*
X137538672Y-94277637D01*
X137584637Y-94231672D01*
X137638686Y-94195558D01*
X137698742Y-94170681D01*
X137762498Y-94158000D01*
X137827502Y-94158000D01*
X137891258Y-94170681D01*
G37*
G36*
X124249081Y-93175093D02*
G01*
X124377383Y-93228237D01*
X124492851Y-93305391D01*
X124591049Y-93403589D01*
X124668203Y-93519057D01*
X124721347Y-93647359D01*
X124748440Y-93783564D01*
X124748440Y-93922436D01*
X124721347Y-94058641D01*
X124668203Y-94186943D01*
X124591049Y-94302411D01*
X124492851Y-94400609D01*
X124377383Y-94477763D01*
X124249081Y-94530907D01*
X124112876Y-94558000D01*
X123974004Y-94558000D01*
X123837799Y-94530907D01*
X123709497Y-94477763D01*
X123594029Y-94400609D01*
X123495831Y-94302411D01*
X123418677Y-94186943D01*
X123365533Y-94058641D01*
X123338440Y-93922436D01*
X123338440Y-93783564D01*
X123365533Y-93647359D01*
X123418677Y-93519057D01*
X123495831Y-93403589D01*
X123594029Y-93305391D01*
X123709497Y-93228237D01*
X123837799Y-93175093D01*
X123974004Y-93148000D01*
X124112876Y-93148000D01*
X124249081Y-93175093D01*
G37*
G36*
X137891258Y-92773681D02*
G01*
X137951314Y-92798558D01*
X138005363Y-92834672D01*
X138051328Y-92880637D01*
X138087442Y-92934686D01*
X138112319Y-92994742D01*
X138125000Y-93058498D01*
X138125000Y-93123502D01*
X138112319Y-93187258D01*
X138087442Y-93247314D01*
X138051328Y-93301363D01*
X138005363Y-93347328D01*
X137951314Y-93383442D01*
X137891258Y-93408319D01*
X137827502Y-93421000D01*
X137762498Y-93421000D01*
X137698742Y-93408319D01*
X137638686Y-93383442D01*
X137584637Y-93347328D01*
X137538672Y-93301363D01*
X137502558Y-93247314D01*
X137477681Y-93187258D01*
X137465000Y-93123502D01*
X137465000Y-93058498D01*
X137477681Y-92994742D01*
X137502558Y-92934686D01*
X137538672Y-92880637D01*
X137584637Y-92834672D01*
X137638686Y-92798558D01*
X137698742Y-92773681D01*
X137762498Y-92761000D01*
X137827502Y-92761000D01*
X137891258Y-92773681D01*
G37*
G36*
X134568901Y-92580699D02*
G01*
X134592104Y-92590310D01*
X134615309Y-92599922D01*
X134657073Y-92627828D01*
X134692592Y-92663347D01*
X134720498Y-92705111D01*
X134720498Y-92705112D01*
X134738669Y-92748979D01*
X134739721Y-92751520D01*
X134749520Y-92800785D01*
X134749520Y-92851015D01*
X134739721Y-92900280D01*
X134720498Y-92946689D01*
X134692592Y-92988453D01*
X134657073Y-93023972D01*
X134615309Y-93051878D01*
X134599324Y-93058499D01*
X134568901Y-93071101D01*
X134519635Y-93080900D01*
X134469405Y-93080900D01*
X134420139Y-93071101D01*
X134389716Y-93058499D01*
X134373731Y-93051878D01*
X134331967Y-93023972D01*
X134296448Y-92988453D01*
X134268542Y-92946689D01*
X134249319Y-92900280D01*
X134239520Y-92851015D01*
X134239520Y-92800785D01*
X134249319Y-92751520D01*
X134250372Y-92748979D01*
X134268542Y-92705112D01*
X134268542Y-92705111D01*
X134296448Y-92663347D01*
X134331967Y-92627828D01*
X134373731Y-92599922D01*
X134396936Y-92590310D01*
X134420139Y-92580699D01*
X134469405Y-92570900D01*
X134519635Y-92570900D01*
X134568901Y-92580699D01*
G37*
G36*
X133928821Y-92580699D02*
G01*
X133952024Y-92590310D01*
X133975229Y-92599922D01*
X134016993Y-92627828D01*
X134052512Y-92663347D01*
X134080418Y-92705111D01*
X134080418Y-92705112D01*
X134098589Y-92748979D01*
X134099641Y-92751520D01*
X134109440Y-92800785D01*
X134109440Y-92851015D01*
X134099641Y-92900280D01*
X134080418Y-92946689D01*
X134052512Y-92988453D01*
X134016993Y-93023972D01*
X133975229Y-93051878D01*
X133959244Y-93058499D01*
X133928821Y-93071101D01*
X133879555Y-93080900D01*
X133829325Y-93080900D01*
X133780059Y-93071101D01*
X133749636Y-93058499D01*
X133733651Y-93051878D01*
X133691887Y-93023972D01*
X133656368Y-92988453D01*
X133628462Y-92946689D01*
X133609239Y-92900280D01*
X133599440Y-92851015D01*
X133599440Y-92800785D01*
X133609239Y-92751520D01*
X133610292Y-92748979D01*
X133628462Y-92705112D01*
X133628462Y-92705111D01*
X133656368Y-92663347D01*
X133691887Y-92627828D01*
X133733651Y-92599922D01*
X133756856Y-92590310D01*
X133780059Y-92580699D01*
X133829325Y-92570900D01*
X133879555Y-92570900D01*
X133928821Y-92580699D01*
G37*
G36*
X136489141Y-92580699D02*
G01*
X136512344Y-92590310D01*
X136535549Y-92599922D01*
X136577313Y-92627828D01*
X136612832Y-92663347D01*
X136640738Y-92705111D01*
X136640738Y-92705112D01*
X136658909Y-92748979D01*
X136659961Y-92751520D01*
X136669760Y-92800785D01*
X136669760Y-92851015D01*
X136659961Y-92900280D01*
X136640738Y-92946689D01*
X136612832Y-92988453D01*
X136577313Y-93023972D01*
X136535549Y-93051878D01*
X136519564Y-93058499D01*
X136489141Y-93071101D01*
X136439875Y-93080900D01*
X136389645Y-93080900D01*
X136340379Y-93071101D01*
X136309956Y-93058499D01*
X136293971Y-93051878D01*
X136252207Y-93023972D01*
X136216688Y-92988453D01*
X136188782Y-92946689D01*
X136169559Y-92900280D01*
X136159760Y-92851015D01*
X136159760Y-92800785D01*
X136169559Y-92751520D01*
X136170612Y-92748979D01*
X136188782Y-92705112D01*
X136188782Y-92705111D01*
X136216688Y-92663347D01*
X136252207Y-92627828D01*
X136293971Y-92599922D01*
X136317176Y-92590310D01*
X136340379Y-92580699D01*
X136389645Y-92570900D01*
X136439875Y-92570900D01*
X136489141Y-92580699D01*
G37*
G36*
X129453341Y-92580699D02*
G01*
X129476544Y-92590310D01*
X129499749Y-92599922D01*
X129541513Y-92627828D01*
X129577032Y-92663347D01*
X129604938Y-92705111D01*
X129604938Y-92705112D01*
X129623109Y-92748979D01*
X129624161Y-92751520D01*
X129633960Y-92800785D01*
X129633960Y-92851015D01*
X129624161Y-92900280D01*
X129604938Y-92946689D01*
X129577032Y-92988453D01*
X129541513Y-93023972D01*
X129499749Y-93051878D01*
X129483764Y-93058499D01*
X129453341Y-93071101D01*
X129404075Y-93080900D01*
X129353845Y-93080900D01*
X129304579Y-93071101D01*
X129274156Y-93058499D01*
X129258171Y-93051878D01*
X129216407Y-93023972D01*
X129180888Y-92988453D01*
X129152982Y-92946689D01*
X129133759Y-92900280D01*
X129123960Y-92851015D01*
X129123960Y-92800785D01*
X129133759Y-92751520D01*
X129134812Y-92748979D01*
X129152982Y-92705112D01*
X129152982Y-92705111D01*
X129180888Y-92663347D01*
X129216407Y-92627828D01*
X129258171Y-92599922D01*
X129281376Y-92590310D01*
X129304579Y-92580699D01*
X129353845Y-92570900D01*
X129404075Y-92570900D01*
X129453341Y-92580699D01*
G37*
G36*
X128815801Y-92580699D02*
G01*
X128839004Y-92590310D01*
X128862209Y-92599922D01*
X128903973Y-92627828D01*
X128939492Y-92663347D01*
X128967398Y-92705111D01*
X128967398Y-92705112D01*
X128985569Y-92748979D01*
X128986621Y-92751520D01*
X128996420Y-92800785D01*
X128996420Y-92851015D01*
X128986621Y-92900280D01*
X128967398Y-92946689D01*
X128939492Y-92988453D01*
X128903973Y-93023972D01*
X128862209Y-93051878D01*
X128846224Y-93058499D01*
X128815801Y-93071101D01*
X128766535Y-93080900D01*
X128716305Y-93080900D01*
X128667039Y-93071101D01*
X128636616Y-93058499D01*
X128620631Y-93051878D01*
X128578867Y-93023972D01*
X128543348Y-92988453D01*
X128515442Y-92946689D01*
X128496219Y-92900280D01*
X128486420Y-92851015D01*
X128486420Y-92800785D01*
X128496219Y-92751520D01*
X128497272Y-92748979D01*
X128515442Y-92705112D01*
X128515442Y-92705111D01*
X128543348Y-92663347D01*
X128578867Y-92627828D01*
X128620631Y-92599922D01*
X128643836Y-92590310D01*
X128667039Y-92580699D01*
X128716305Y-92570900D01*
X128766535Y-92570900D01*
X128815801Y-92580699D01*
G37*
G36*
X132011121Y-92580699D02*
G01*
X132034324Y-92590310D01*
X132057529Y-92599922D01*
X132099293Y-92627828D01*
X132134812Y-92663347D01*
X132162718Y-92705111D01*
X132162718Y-92705112D01*
X132180889Y-92748979D01*
X132181941Y-92751520D01*
X132191740Y-92800785D01*
X132191740Y-92851015D01*
X132181941Y-92900280D01*
X132162718Y-92946689D01*
X132134812Y-92988453D01*
X132099293Y-93023972D01*
X132057529Y-93051878D01*
X132041544Y-93058499D01*
X132011121Y-93071101D01*
X131961855Y-93080900D01*
X131911625Y-93080900D01*
X131862359Y-93071101D01*
X131831936Y-93058499D01*
X131815951Y-93051878D01*
X131774187Y-93023972D01*
X131738668Y-92988453D01*
X131710762Y-92946689D01*
X131691539Y-92900280D01*
X131681740Y-92851015D01*
X131681740Y-92800785D01*
X131691539Y-92751520D01*
X131692592Y-92748979D01*
X131710762Y-92705112D01*
X131710762Y-92705111D01*
X131738668Y-92663347D01*
X131774187Y-92627828D01*
X131815951Y-92599922D01*
X131839156Y-92590310D01*
X131862359Y-92580699D01*
X131911625Y-92570900D01*
X131961855Y-92570900D01*
X132011121Y-92580699D01*
G37*
G36*
X128175721Y-92578159D02*
G01*
X128198925Y-92587771D01*
X128222129Y-92597382D01*
X128263893Y-92625288D01*
X128299412Y-92660807D01*
X128327318Y-92702571D01*
X128336929Y-92725775D01*
X128346541Y-92748979D01*
X128356340Y-92798245D01*
X128356340Y-92848475D01*
X128346541Y-92897741D01*
X128336929Y-92920945D01*
X128327318Y-92944149D01*
X128299412Y-92985913D01*
X128263893Y-93021432D01*
X128222129Y-93049338D01*
X128200012Y-93058499D01*
X128175721Y-93068561D01*
X128126455Y-93078360D01*
X128076225Y-93078360D01*
X128026959Y-93068561D01*
X128002668Y-93058499D01*
X127980551Y-93049338D01*
X127938787Y-93021432D01*
X127903268Y-92985913D01*
X127875362Y-92944149D01*
X127865750Y-92920944D01*
X127856139Y-92897741D01*
X127846340Y-92848475D01*
X127846340Y-92798245D01*
X127856139Y-92748979D01*
X127865751Y-92725775D01*
X127875362Y-92702571D01*
X127903268Y-92660807D01*
X127938787Y-92625288D01*
X127980551Y-92597382D01*
X128003756Y-92587770D01*
X128026959Y-92578159D01*
X128076225Y-92568360D01*
X128126455Y-92568360D01*
X128175721Y-92578159D01*
G37*
G36*
X135208981Y-92578159D02*
G01*
X135232185Y-92587771D01*
X135255389Y-92597382D01*
X135297153Y-92625288D01*
X135332672Y-92660807D01*
X135360578Y-92702571D01*
X135370189Y-92725775D01*
X135379801Y-92748979D01*
X135389600Y-92798245D01*
X135389600Y-92848475D01*
X135379801Y-92897741D01*
X135370189Y-92920945D01*
X135360578Y-92944149D01*
X135332672Y-92985913D01*
X135297153Y-93021432D01*
X135255389Y-93049338D01*
X135233272Y-93058499D01*
X135208981Y-93068561D01*
X135159715Y-93078360D01*
X135109485Y-93078360D01*
X135060219Y-93068561D01*
X135035928Y-93058499D01*
X135013811Y-93049338D01*
X134972047Y-93021432D01*
X134936528Y-92985913D01*
X134908622Y-92944149D01*
X134899010Y-92920944D01*
X134889399Y-92897741D01*
X134879600Y-92848475D01*
X134879600Y-92798245D01*
X134889399Y-92748979D01*
X134899011Y-92725775D01*
X134908622Y-92702571D01*
X134936528Y-92660807D01*
X134972047Y-92625288D01*
X135013811Y-92597382D01*
X135037016Y-92587770D01*
X135060219Y-92578159D01*
X135109485Y-92568360D01*
X135159715Y-92568360D01*
X135208981Y-92578159D01*
G37*
G36*
X130093421Y-92578159D02*
G01*
X130116625Y-92587771D01*
X130139829Y-92597382D01*
X130181593Y-92625288D01*
X130217112Y-92660807D01*
X130245018Y-92702571D01*
X130254629Y-92725775D01*
X130264241Y-92748979D01*
X130274040Y-92798245D01*
X130274040Y-92848475D01*
X130264241Y-92897741D01*
X130254629Y-92920945D01*
X130245018Y-92944149D01*
X130217112Y-92985913D01*
X130181593Y-93021432D01*
X130139829Y-93049338D01*
X130117712Y-93058499D01*
X130093421Y-93068561D01*
X130044155Y-93078360D01*
X129993925Y-93078360D01*
X129944659Y-93068561D01*
X129920368Y-93058499D01*
X129898251Y-93049338D01*
X129856487Y-93021432D01*
X129820968Y-92985913D01*
X129793062Y-92944149D01*
X129783450Y-92920944D01*
X129773839Y-92897741D01*
X129764040Y-92848475D01*
X129764040Y-92798245D01*
X129773839Y-92748979D01*
X129783451Y-92725775D01*
X129793062Y-92702571D01*
X129820968Y-92660807D01*
X129856487Y-92625288D01*
X129898251Y-92597382D01*
X129921456Y-92587770D01*
X129944659Y-92578159D01*
X129993925Y-92568360D01*
X130044155Y-92568360D01*
X130093421Y-92578159D01*
G37*
G36*
X127535641Y-92578159D02*
G01*
X127558845Y-92587771D01*
X127582049Y-92597382D01*
X127623813Y-92625288D01*
X127659332Y-92660807D01*
X127687238Y-92702571D01*
X127696849Y-92725775D01*
X127706461Y-92748979D01*
X127716260Y-92798245D01*
X127716260Y-92848475D01*
X127706461Y-92897741D01*
X127696849Y-92920945D01*
X127687238Y-92944149D01*
X127659332Y-92985913D01*
X127623813Y-93021432D01*
X127582049Y-93049338D01*
X127559932Y-93058499D01*
X127535641Y-93068561D01*
X127486375Y-93078360D01*
X127436145Y-93078360D01*
X127386879Y-93068561D01*
X127362588Y-93058499D01*
X127340471Y-93049338D01*
X127298707Y-93021432D01*
X127263188Y-92985913D01*
X127235282Y-92944149D01*
X127225670Y-92920944D01*
X127216059Y-92897741D01*
X127206260Y-92848475D01*
X127206260Y-92798245D01*
X127216059Y-92748979D01*
X127225671Y-92725775D01*
X127235282Y-92702571D01*
X127263188Y-92660807D01*
X127298707Y-92625288D01*
X127340471Y-92597382D01*
X127363676Y-92587770D01*
X127386879Y-92578159D01*
X127436145Y-92568360D01*
X127486375Y-92568360D01*
X127535641Y-92578159D01*
G37*
G36*
X126898101Y-92578159D02*
G01*
X126921305Y-92587771D01*
X126944509Y-92597382D01*
X126986273Y-92625288D01*
X127021792Y-92660807D01*
X127049698Y-92702571D01*
X127059309Y-92725775D01*
X127068921Y-92748979D01*
X127078720Y-92798245D01*
X127078720Y-92848475D01*
X127068921Y-92897741D01*
X127059309Y-92920945D01*
X127049698Y-92944149D01*
X127021792Y-92985913D01*
X126986273Y-93021432D01*
X126944509Y-93049338D01*
X126922392Y-93058499D01*
X126898101Y-93068561D01*
X126848835Y-93078360D01*
X126798605Y-93078360D01*
X126749339Y-93068561D01*
X126725048Y-93058499D01*
X126702931Y-93049338D01*
X126661167Y-93021432D01*
X126625648Y-92985913D01*
X126597742Y-92944149D01*
X126588130Y-92920944D01*
X126578519Y-92897741D01*
X126568720Y-92848475D01*
X126568720Y-92798245D01*
X126578519Y-92748979D01*
X126588131Y-92725775D01*
X126597742Y-92702571D01*
X126625648Y-92660807D01*
X126661167Y-92625288D01*
X126702931Y-92597382D01*
X126726136Y-92587770D01*
X126749339Y-92578159D01*
X126798605Y-92568360D01*
X126848835Y-92568360D01*
X126898101Y-92578159D01*
G37*
G36*
X130730961Y-92578159D02*
G01*
X130754165Y-92587771D01*
X130777369Y-92597382D01*
X130819133Y-92625288D01*
X130854652Y-92660807D01*
X130882558Y-92702571D01*
X130892169Y-92725775D01*
X130901781Y-92748979D01*
X130911580Y-92798245D01*
X130911580Y-92848475D01*
X130901781Y-92897741D01*
X130892169Y-92920945D01*
X130882558Y-92944149D01*
X130854652Y-92985913D01*
X130819133Y-93021432D01*
X130777369Y-93049338D01*
X130755252Y-93058499D01*
X130730961Y-93068561D01*
X130681695Y-93078360D01*
X130631465Y-93078360D01*
X130582199Y-93068561D01*
X130557908Y-93058499D01*
X130535791Y-93049338D01*
X130494027Y-93021432D01*
X130458508Y-92985913D01*
X130430602Y-92944149D01*
X130420990Y-92920944D01*
X130411379Y-92897741D01*
X130401580Y-92848475D01*
X130401580Y-92798245D01*
X130411379Y-92748979D01*
X130420991Y-92725775D01*
X130430602Y-92702571D01*
X130458508Y-92660807D01*
X130494027Y-92625288D01*
X130535791Y-92597382D01*
X130558996Y-92587770D01*
X130582199Y-92578159D01*
X130631465Y-92568360D01*
X130681695Y-92568360D01*
X130730961Y-92578159D01*
G37*
G36*
X131371041Y-92578159D02*
G01*
X131394245Y-92587771D01*
X131417449Y-92597382D01*
X131459213Y-92625288D01*
X131494732Y-92660807D01*
X131522638Y-92702571D01*
X131532249Y-92725775D01*
X131541861Y-92748979D01*
X131551660Y-92798245D01*
X131551660Y-92848475D01*
X131541861Y-92897741D01*
X131532249Y-92920945D01*
X131522638Y-92944149D01*
X131494732Y-92985913D01*
X131459213Y-93021432D01*
X131417449Y-93049338D01*
X131395332Y-93058499D01*
X131371041Y-93068561D01*
X131321775Y-93078360D01*
X131271545Y-93078360D01*
X131222279Y-93068561D01*
X131197988Y-93058499D01*
X131175871Y-93049338D01*
X131134107Y-93021432D01*
X131098588Y-92985913D01*
X131070682Y-92944149D01*
X131061070Y-92920944D01*
X131051459Y-92897741D01*
X131041660Y-92848475D01*
X131041660Y-92798245D01*
X131051459Y-92748979D01*
X131061071Y-92725775D01*
X131070682Y-92702571D01*
X131098588Y-92660807D01*
X131134107Y-92625288D01*
X131175871Y-92597382D01*
X131199076Y-92587770D01*
X131222279Y-92578159D01*
X131271545Y-92568360D01*
X131321775Y-92568360D01*
X131371041Y-92578159D01*
G37*
G36*
X126258021Y-92578159D02*
G01*
X126281225Y-92587771D01*
X126304429Y-92597382D01*
X126346193Y-92625288D01*
X126381712Y-92660807D01*
X126409618Y-92702571D01*
X126419229Y-92725775D01*
X126428841Y-92748979D01*
X126438640Y-92798245D01*
X126438640Y-92848475D01*
X126428841Y-92897741D01*
X126419229Y-92920945D01*
X126409618Y-92944149D01*
X126381712Y-92985913D01*
X126346193Y-93021432D01*
X126304429Y-93049338D01*
X126282312Y-93058499D01*
X126258021Y-93068561D01*
X126208755Y-93078360D01*
X126158525Y-93078360D01*
X126109259Y-93068561D01*
X126084968Y-93058499D01*
X126062851Y-93049338D01*
X126021087Y-93021432D01*
X125985568Y-92985913D01*
X125957662Y-92944149D01*
X125948050Y-92920944D01*
X125938439Y-92897741D01*
X125928640Y-92848475D01*
X125928640Y-92798245D01*
X125938439Y-92748979D01*
X125948051Y-92725775D01*
X125957662Y-92702571D01*
X125985568Y-92660807D01*
X126021087Y-92625288D01*
X126062851Y-92597382D01*
X126086056Y-92587770D01*
X126109259Y-92578159D01*
X126158525Y-92568360D01*
X126208755Y-92568360D01*
X126258021Y-92578159D01*
G37*
G36*
X133288741Y-92578159D02*
G01*
X133311945Y-92587771D01*
X133335149Y-92597382D01*
X133376913Y-92625288D01*
X133412432Y-92660807D01*
X133440338Y-92702571D01*
X133449949Y-92725775D01*
X133459561Y-92748979D01*
X133469360Y-92798245D01*
X133469360Y-92848475D01*
X133459561Y-92897741D01*
X133449949Y-92920945D01*
X133440338Y-92944149D01*
X133412432Y-92985913D01*
X133376913Y-93021432D01*
X133335149Y-93049338D01*
X133313032Y-93058499D01*
X133288741Y-93068561D01*
X133239475Y-93078360D01*
X133189245Y-93078360D01*
X133139979Y-93068561D01*
X133115688Y-93058499D01*
X133093571Y-93049338D01*
X133051807Y-93021432D01*
X133016288Y-92985913D01*
X132988382Y-92944149D01*
X132978770Y-92920944D01*
X132969159Y-92897741D01*
X132959360Y-92848475D01*
X132959360Y-92798245D01*
X132969159Y-92748979D01*
X132978771Y-92725775D01*
X132988382Y-92702571D01*
X133016288Y-92660807D01*
X133051807Y-92625288D01*
X133093571Y-92597382D01*
X133116776Y-92587770D01*
X133139979Y-92578159D01*
X133189245Y-92568360D01*
X133239475Y-92568360D01*
X133288741Y-92578159D01*
G37*
G36*
X132648661Y-92578159D02*
G01*
X132671865Y-92587771D01*
X132695069Y-92597382D01*
X132736833Y-92625288D01*
X132772352Y-92660807D01*
X132800258Y-92702571D01*
X132809869Y-92725775D01*
X132819481Y-92748979D01*
X132829280Y-92798245D01*
X132829280Y-92848475D01*
X132819481Y-92897741D01*
X132809869Y-92920945D01*
X132800258Y-92944149D01*
X132772352Y-92985913D01*
X132736833Y-93021432D01*
X132695069Y-93049338D01*
X132672952Y-93058499D01*
X132648661Y-93068561D01*
X132599395Y-93078360D01*
X132549165Y-93078360D01*
X132499899Y-93068561D01*
X132475608Y-93058499D01*
X132453491Y-93049338D01*
X132411727Y-93021432D01*
X132376208Y-92985913D01*
X132348302Y-92944149D01*
X132338690Y-92920944D01*
X132329079Y-92897741D01*
X132319280Y-92848475D01*
X132319280Y-92798245D01*
X132329079Y-92748979D01*
X132338691Y-92725775D01*
X132348302Y-92702571D01*
X132376208Y-92660807D01*
X132411727Y-92625288D01*
X132453491Y-92597382D01*
X132476696Y-92587770D01*
X132499899Y-92578159D01*
X132549165Y-92568360D01*
X132599395Y-92568360D01*
X132648661Y-92578159D01*
G37*
G36*
X135849061Y-92578159D02*
G01*
X135872265Y-92587771D01*
X135895469Y-92597382D01*
X135937233Y-92625288D01*
X135972752Y-92660807D01*
X136000658Y-92702571D01*
X136010269Y-92725775D01*
X136019881Y-92748979D01*
X136029680Y-92798245D01*
X136029680Y-92848475D01*
X136019881Y-92897741D01*
X136010269Y-92920945D01*
X136000658Y-92944149D01*
X135972752Y-92985913D01*
X135937233Y-93021432D01*
X135895469Y-93049338D01*
X135873352Y-93058499D01*
X135849061Y-93068561D01*
X135799795Y-93078360D01*
X135749565Y-93078360D01*
X135700299Y-93068561D01*
X135676008Y-93058499D01*
X135653891Y-93049338D01*
X135612127Y-93021432D01*
X135576608Y-92985913D01*
X135548702Y-92944149D01*
X135539090Y-92920944D01*
X135529479Y-92897741D01*
X135519680Y-92848475D01*
X135519680Y-92798245D01*
X135529479Y-92748979D01*
X135539091Y-92725775D01*
X135548702Y-92702571D01*
X135576608Y-92660807D01*
X135612127Y-92625288D01*
X135653891Y-92597382D01*
X135677096Y-92587770D01*
X135700299Y-92578159D01*
X135749565Y-92568360D01*
X135799795Y-92568360D01*
X135849061Y-92578159D01*
G37*
G36*
X125618021Y-92577059D02*
G01*
X125626808Y-92580699D01*
X125664429Y-92596282D01*
X125706193Y-92624188D01*
X125741712Y-92659707D01*
X125769618Y-92701471D01*
X125771126Y-92705112D01*
X125788841Y-92747879D01*
X125798640Y-92797145D01*
X125798640Y-92847375D01*
X125788841Y-92896641D01*
X125787333Y-92900281D01*
X125769618Y-92943049D01*
X125741712Y-92984813D01*
X125706193Y-93020332D01*
X125664429Y-93048238D01*
X125655641Y-93051878D01*
X125618021Y-93067461D01*
X125568755Y-93077260D01*
X125518525Y-93077260D01*
X125469259Y-93067461D01*
X125431639Y-93051878D01*
X125422851Y-93048238D01*
X125381087Y-93020332D01*
X125345568Y-92984813D01*
X125317662Y-92943049D01*
X125299947Y-92900281D01*
X125298439Y-92896641D01*
X125288640Y-92847375D01*
X125288640Y-92797145D01*
X125298439Y-92747879D01*
X125316154Y-92705112D01*
X125317662Y-92701471D01*
X125345568Y-92659707D01*
X125381087Y-92624188D01*
X125422851Y-92596282D01*
X125460472Y-92580699D01*
X125469259Y-92577059D01*
X125518525Y-92567260D01*
X125568755Y-92567260D01*
X125618021Y-92577059D01*
G37*
G36*
X124228598Y-92042161D02*
G01*
X124288654Y-92067038D01*
X124342703Y-92103152D01*
X124388668Y-92149117D01*
X124424782Y-92203166D01*
X124449659Y-92263222D01*
X124462340Y-92326978D01*
X124462340Y-92391982D01*
X124449659Y-92455738D01*
X124424782Y-92515794D01*
X124388668Y-92569843D01*
X124342703Y-92615808D01*
X124288654Y-92651922D01*
X124228598Y-92676799D01*
X124164842Y-92689480D01*
X124099838Y-92689480D01*
X124036082Y-92676799D01*
X123976026Y-92651922D01*
X123921977Y-92615808D01*
X123876012Y-92569843D01*
X123839898Y-92515794D01*
X123815021Y-92455738D01*
X123802340Y-92391982D01*
X123802340Y-92326978D01*
X123815021Y-92263222D01*
X123839898Y-92203166D01*
X123876012Y-92149117D01*
X123921977Y-92103152D01*
X123976026Y-92067038D01*
X124036082Y-92042161D01*
X124099838Y-92029480D01*
X124164842Y-92029480D01*
X124228598Y-92042161D01*
G37*
G36*
X137903958Y-91529081D02*
G01*
X137964014Y-91553958D01*
X138018063Y-91590072D01*
X138064028Y-91636037D01*
X138100142Y-91690086D01*
X138125019Y-91750142D01*
X138137700Y-91813898D01*
X138137700Y-91878902D01*
X138125019Y-91942658D01*
X138100142Y-92002714D01*
X138064028Y-92056763D01*
X138018063Y-92102728D01*
X137964014Y-92138842D01*
X137903958Y-92163719D01*
X137840202Y-92176400D01*
X137775198Y-92176400D01*
X137711442Y-92163719D01*
X137651386Y-92138842D01*
X137597337Y-92102728D01*
X137551372Y-92056763D01*
X137515258Y-92002714D01*
X137490381Y-91942658D01*
X137477700Y-91878902D01*
X137477700Y-91813898D01*
X137490381Y-91750142D01*
X137515258Y-91690086D01*
X137551372Y-91636037D01*
X137597337Y-91590072D01*
X137651386Y-91553958D01*
X137711442Y-91529081D01*
X137775198Y-91516400D01*
X137840202Y-91516400D01*
X137903958Y-91529081D01*
G37*
G36*
X127538181Y-91397059D02*
G01*
X127561385Y-91406671D01*
X127584589Y-91416282D01*
X127626353Y-91444188D01*
X127661872Y-91479707D01*
X127689778Y-91521471D01*
X127698040Y-91541418D01*
X127709001Y-91567879D01*
X127718800Y-91617145D01*
X127718800Y-91667375D01*
X127710517Y-91709021D01*
X127709001Y-91716640D01*
X127689778Y-91763049D01*
X127661872Y-91804813D01*
X127626353Y-91840332D01*
X127584589Y-91868238D01*
X127561384Y-91877850D01*
X127538181Y-91887461D01*
X127488915Y-91897260D01*
X127438685Y-91897260D01*
X127389419Y-91887461D01*
X127366216Y-91877850D01*
X127343011Y-91868238D01*
X127301247Y-91840332D01*
X127265728Y-91804813D01*
X127237822Y-91763049D01*
X127218599Y-91716640D01*
X127217084Y-91709021D01*
X127208800Y-91667375D01*
X127208800Y-91617145D01*
X127218599Y-91567879D01*
X127229560Y-91541418D01*
X127237822Y-91521471D01*
X127265728Y-91479707D01*
X127301247Y-91444188D01*
X127343011Y-91416282D01*
X127366215Y-91406671D01*
X127389419Y-91397059D01*
X127438685Y-91387260D01*
X127488915Y-91387260D01*
X127538181Y-91397059D01*
G37*
G36*
X126898101Y-91397059D02*
G01*
X126921305Y-91406671D01*
X126944509Y-91416282D01*
X126986273Y-91444188D01*
X127021792Y-91479707D01*
X127049698Y-91521471D01*
X127057960Y-91541418D01*
X127068921Y-91567879D01*
X127078720Y-91617145D01*
X127078720Y-91667375D01*
X127070437Y-91709021D01*
X127068921Y-91716640D01*
X127049698Y-91763049D01*
X127021792Y-91804813D01*
X126986273Y-91840332D01*
X126944509Y-91868238D01*
X126921304Y-91877850D01*
X126898101Y-91887461D01*
X126848835Y-91897260D01*
X126798605Y-91897260D01*
X126749339Y-91887461D01*
X126726136Y-91877850D01*
X126702931Y-91868238D01*
X126661167Y-91840332D01*
X126625648Y-91804813D01*
X126597742Y-91763049D01*
X126578519Y-91716640D01*
X126577004Y-91709021D01*
X126568720Y-91667375D01*
X126568720Y-91617145D01*
X126578519Y-91567879D01*
X126589480Y-91541418D01*
X126597742Y-91521471D01*
X126625648Y-91479707D01*
X126661167Y-91444188D01*
X126702931Y-91416282D01*
X126726135Y-91406671D01*
X126749339Y-91397059D01*
X126798605Y-91387260D01*
X126848835Y-91387260D01*
X126898101Y-91397059D01*
G37*
G36*
X125618021Y-91397059D02*
G01*
X125641225Y-91406671D01*
X125664429Y-91416282D01*
X125706193Y-91444188D01*
X125741712Y-91479707D01*
X125769618Y-91521471D01*
X125777880Y-91541418D01*
X125788841Y-91567879D01*
X125798640Y-91617145D01*
X125798640Y-91667375D01*
X125790357Y-91709021D01*
X125788841Y-91716640D01*
X125769618Y-91763049D01*
X125741712Y-91804813D01*
X125706193Y-91840332D01*
X125664429Y-91868238D01*
X125641224Y-91877850D01*
X125618021Y-91887461D01*
X125568755Y-91897260D01*
X125518525Y-91897260D01*
X125469259Y-91887461D01*
X125446056Y-91877850D01*
X125422851Y-91868238D01*
X125381087Y-91840332D01*
X125345568Y-91804813D01*
X125317662Y-91763049D01*
X125298439Y-91716640D01*
X125296924Y-91709021D01*
X125288640Y-91667375D01*
X125288640Y-91617145D01*
X125298439Y-91567879D01*
X125309400Y-91541418D01*
X125317662Y-91521471D01*
X125345568Y-91479707D01*
X125381087Y-91444188D01*
X125422851Y-91416282D01*
X125446055Y-91406671D01*
X125469259Y-91397059D01*
X125518525Y-91387260D01*
X125568755Y-91387260D01*
X125618021Y-91397059D01*
G37*
G36*
X126258021Y-91397059D02*
G01*
X126281225Y-91406671D01*
X126304429Y-91416282D01*
X126346193Y-91444188D01*
X126381712Y-91479707D01*
X126409618Y-91521471D01*
X126417880Y-91541418D01*
X126428841Y-91567879D01*
X126438640Y-91617145D01*
X126438640Y-91667375D01*
X126430357Y-91709021D01*
X126428841Y-91716640D01*
X126409618Y-91763049D01*
X126381712Y-91804813D01*
X126346193Y-91840332D01*
X126304429Y-91868238D01*
X126281224Y-91877850D01*
X126258021Y-91887461D01*
X126208755Y-91897260D01*
X126158525Y-91897260D01*
X126109259Y-91887461D01*
X126086056Y-91877850D01*
X126062851Y-91868238D01*
X126021087Y-91840332D01*
X125985568Y-91804813D01*
X125957662Y-91763049D01*
X125938439Y-91716640D01*
X125936924Y-91709021D01*
X125928640Y-91667375D01*
X125928640Y-91617145D01*
X125938439Y-91567879D01*
X125949400Y-91541418D01*
X125957662Y-91521471D01*
X125985568Y-91479707D01*
X126021087Y-91444188D01*
X126062851Y-91416282D01*
X126086055Y-91406671D01*
X126109259Y-91397059D01*
X126158525Y-91387260D01*
X126208755Y-91387260D01*
X126258021Y-91397059D01*
G37*
G36*
X133298901Y-91394519D02*
G01*
X133322105Y-91404131D01*
X133345309Y-91413742D01*
X133387073Y-91441648D01*
X133422592Y-91477167D01*
X133450498Y-91518931D01*
X133459812Y-91541418D01*
X133469721Y-91565339D01*
X133479520Y-91614605D01*
X133479520Y-91664835D01*
X133469721Y-91714101D01*
X133460109Y-91737305D01*
X133450498Y-91760509D01*
X133422592Y-91802273D01*
X133387073Y-91837792D01*
X133345309Y-91865698D01*
X133322104Y-91875310D01*
X133298901Y-91884921D01*
X133249635Y-91894720D01*
X133199405Y-91894720D01*
X133150139Y-91884921D01*
X133126936Y-91875310D01*
X133103731Y-91865698D01*
X133061967Y-91837792D01*
X133026448Y-91802273D01*
X132998542Y-91760509D01*
X132988931Y-91737305D01*
X132979319Y-91714101D01*
X132969520Y-91664835D01*
X132969520Y-91614605D01*
X132979319Y-91565339D01*
X132989228Y-91541418D01*
X132998542Y-91518931D01*
X133026448Y-91477167D01*
X133061967Y-91441648D01*
X133103731Y-91413742D01*
X133126935Y-91404131D01*
X133150139Y-91394519D01*
X133199405Y-91384720D01*
X133249635Y-91384720D01*
X133298901Y-91394519D01*
G37*
G36*
X133936441Y-91394519D02*
G01*
X133959645Y-91404131D01*
X133982849Y-91413742D01*
X134024613Y-91441648D01*
X134060132Y-91477167D01*
X134088038Y-91518931D01*
X134097352Y-91541418D01*
X134107261Y-91565339D01*
X134117060Y-91614605D01*
X134117060Y-91664835D01*
X134107261Y-91714101D01*
X134097649Y-91737305D01*
X134088038Y-91760509D01*
X134060132Y-91802273D01*
X134024613Y-91837792D01*
X133982849Y-91865698D01*
X133959644Y-91875310D01*
X133936441Y-91884921D01*
X133887175Y-91894720D01*
X133836945Y-91894720D01*
X133787679Y-91884921D01*
X133764476Y-91875310D01*
X133741271Y-91865698D01*
X133699507Y-91837792D01*
X133663988Y-91802273D01*
X133636082Y-91760509D01*
X133626471Y-91737305D01*
X133616859Y-91714101D01*
X133607060Y-91664835D01*
X133607060Y-91614605D01*
X133616859Y-91565339D01*
X133626768Y-91541418D01*
X133636082Y-91518931D01*
X133663988Y-91477167D01*
X133699507Y-91441648D01*
X133741271Y-91413742D01*
X133764475Y-91404131D01*
X133787679Y-91394519D01*
X133836945Y-91384720D01*
X133887175Y-91384720D01*
X133936441Y-91394519D01*
G37*
G36*
X132658821Y-91394519D02*
G01*
X132682025Y-91404131D01*
X132705229Y-91413742D01*
X132746993Y-91441648D01*
X132782512Y-91477167D01*
X132810418Y-91518931D01*
X132819732Y-91541418D01*
X132829641Y-91565339D01*
X132839440Y-91614605D01*
X132839440Y-91664835D01*
X132829641Y-91714101D01*
X132820029Y-91737305D01*
X132810418Y-91760509D01*
X132782512Y-91802273D01*
X132746993Y-91837792D01*
X132705229Y-91865698D01*
X132682024Y-91875310D01*
X132658821Y-91884921D01*
X132609555Y-91894720D01*
X132559325Y-91894720D01*
X132510059Y-91884921D01*
X132486856Y-91875310D01*
X132463651Y-91865698D01*
X132421887Y-91837792D01*
X132386368Y-91802273D01*
X132358462Y-91760509D01*
X132348851Y-91737305D01*
X132339239Y-91714101D01*
X132329440Y-91664835D01*
X132329440Y-91614605D01*
X132339239Y-91565339D01*
X132349148Y-91541418D01*
X132358462Y-91518931D01*
X132386368Y-91477167D01*
X132421887Y-91441648D01*
X132463651Y-91413742D01*
X132486855Y-91404131D01*
X132510059Y-91394519D01*
X132559325Y-91384720D01*
X132609555Y-91384720D01*
X132658821Y-91394519D01*
G37*
G36*
X131378661Y-91394519D02*
G01*
X131401865Y-91404131D01*
X131425069Y-91413742D01*
X131466833Y-91441648D01*
X131502352Y-91477167D01*
X131530258Y-91518931D01*
X131539572Y-91541418D01*
X131549481Y-91565339D01*
X131559280Y-91614605D01*
X131559280Y-91664835D01*
X131549481Y-91714101D01*
X131539869Y-91737305D01*
X131530258Y-91760509D01*
X131502352Y-91802273D01*
X131466833Y-91837792D01*
X131425069Y-91865698D01*
X131401864Y-91875310D01*
X131378661Y-91884921D01*
X131329395Y-91894720D01*
X131279165Y-91894720D01*
X131229899Y-91884921D01*
X131206696Y-91875310D01*
X131183491Y-91865698D01*
X131141727Y-91837792D01*
X131106208Y-91802273D01*
X131078302Y-91760509D01*
X131068691Y-91737305D01*
X131059079Y-91714101D01*
X131049280Y-91664835D01*
X131049280Y-91614605D01*
X131059079Y-91565339D01*
X131068988Y-91541418D01*
X131078302Y-91518931D01*
X131106208Y-91477167D01*
X131141727Y-91441648D01*
X131183491Y-91413742D01*
X131206695Y-91404131D01*
X131229899Y-91394519D01*
X131279165Y-91384720D01*
X131329395Y-91384720D01*
X131378661Y-91394519D01*
G37*
G36*
X130738581Y-91394519D02*
G01*
X130761785Y-91404131D01*
X130784989Y-91413742D01*
X130826753Y-91441648D01*
X130862272Y-91477167D01*
X130890178Y-91518931D01*
X130899492Y-91541418D01*
X130909401Y-91565339D01*
X130919200Y-91614605D01*
X130919200Y-91664835D01*
X130909401Y-91714101D01*
X130899789Y-91737305D01*
X130890178Y-91760509D01*
X130862272Y-91802273D01*
X130826753Y-91837792D01*
X130784989Y-91865698D01*
X130761784Y-91875310D01*
X130738581Y-91884921D01*
X130689315Y-91894720D01*
X130639085Y-91894720D01*
X130589819Y-91884921D01*
X130566616Y-91875310D01*
X130543411Y-91865698D01*
X130501647Y-91837792D01*
X130466128Y-91802273D01*
X130438222Y-91760509D01*
X130428611Y-91737305D01*
X130418999Y-91714101D01*
X130409200Y-91664835D01*
X130409200Y-91614605D01*
X130418999Y-91565339D01*
X130428908Y-91541418D01*
X130438222Y-91518931D01*
X130466128Y-91477167D01*
X130501647Y-91441648D01*
X130543411Y-91413742D01*
X130566615Y-91404131D01*
X130589819Y-91394519D01*
X130639085Y-91384720D01*
X130689315Y-91384720D01*
X130738581Y-91394519D01*
G37*
G36*
X129458421Y-91394519D02*
G01*
X129481625Y-91404131D01*
X129504829Y-91413742D01*
X129546593Y-91441648D01*
X129582112Y-91477167D01*
X129610018Y-91518931D01*
X129619332Y-91541418D01*
X129629241Y-91565339D01*
X129639040Y-91614605D01*
X129639040Y-91664835D01*
X129629241Y-91714101D01*
X129619629Y-91737305D01*
X129610018Y-91760509D01*
X129582112Y-91802273D01*
X129546593Y-91837792D01*
X129504829Y-91865698D01*
X129481624Y-91875310D01*
X129458421Y-91884921D01*
X129409155Y-91894720D01*
X129358925Y-91894720D01*
X129309659Y-91884921D01*
X129286456Y-91875310D01*
X129263251Y-91865698D01*
X129221487Y-91837792D01*
X129185968Y-91802273D01*
X129158062Y-91760509D01*
X129148451Y-91737305D01*
X129138839Y-91714101D01*
X129129040Y-91664835D01*
X129129040Y-91614605D01*
X129138839Y-91565339D01*
X129148748Y-91541418D01*
X129158062Y-91518931D01*
X129185968Y-91477167D01*
X129221487Y-91441648D01*
X129263251Y-91413742D01*
X129286455Y-91404131D01*
X129309659Y-91394519D01*
X129358925Y-91384720D01*
X129409155Y-91384720D01*
X129458421Y-91394519D01*
G37*
G36*
X130098501Y-91394519D02*
G01*
X130121705Y-91404131D01*
X130144909Y-91413742D01*
X130186673Y-91441648D01*
X130222192Y-91477167D01*
X130250098Y-91518931D01*
X130259412Y-91541418D01*
X130269321Y-91565339D01*
X130279120Y-91614605D01*
X130279120Y-91664835D01*
X130269321Y-91714101D01*
X130259709Y-91737305D01*
X130250098Y-91760509D01*
X130222192Y-91802273D01*
X130186673Y-91837792D01*
X130144909Y-91865698D01*
X130121704Y-91875310D01*
X130098501Y-91884921D01*
X130049235Y-91894720D01*
X129999005Y-91894720D01*
X129949739Y-91884921D01*
X129926536Y-91875310D01*
X129903331Y-91865698D01*
X129861567Y-91837792D01*
X129826048Y-91802273D01*
X129798142Y-91760509D01*
X129788531Y-91737305D01*
X129778919Y-91714101D01*
X129769120Y-91664835D01*
X129769120Y-91614605D01*
X129778919Y-91565339D01*
X129788828Y-91541418D01*
X129798142Y-91518931D01*
X129826048Y-91477167D01*
X129861567Y-91441648D01*
X129903331Y-91413742D01*
X129926535Y-91404131D01*
X129949739Y-91394519D01*
X129999005Y-91384720D01*
X130049235Y-91384720D01*
X130098501Y-91394519D01*
G37*
G36*
X132018741Y-91394519D02*
G01*
X132041945Y-91404131D01*
X132065149Y-91413742D01*
X132106913Y-91441648D01*
X132142432Y-91477167D01*
X132170338Y-91518931D01*
X132179652Y-91541418D01*
X132189561Y-91565339D01*
X132199360Y-91614605D01*
X132199360Y-91664835D01*
X132189561Y-91714101D01*
X132179949Y-91737305D01*
X132170338Y-91760509D01*
X132142432Y-91802273D01*
X132106913Y-91837792D01*
X132065149Y-91865698D01*
X132041944Y-91875310D01*
X132018741Y-91884921D01*
X131969475Y-91894720D01*
X131919245Y-91894720D01*
X131869979Y-91884921D01*
X131846776Y-91875310D01*
X131823571Y-91865698D01*
X131781807Y-91837792D01*
X131746288Y-91802273D01*
X131718382Y-91760509D01*
X131708771Y-91737305D01*
X131699159Y-91714101D01*
X131689360Y-91664835D01*
X131689360Y-91614605D01*
X131699159Y-91565339D01*
X131709068Y-91541418D01*
X131718382Y-91518931D01*
X131746288Y-91477167D01*
X131781807Y-91441648D01*
X131823571Y-91413742D01*
X131846775Y-91404131D01*
X131869979Y-91394519D01*
X131919245Y-91384720D01*
X131969475Y-91384720D01*
X132018741Y-91394519D01*
G37*
G36*
X128818341Y-91394519D02*
G01*
X128841545Y-91404131D01*
X128864749Y-91413742D01*
X128906513Y-91441648D01*
X128942032Y-91477167D01*
X128969938Y-91518931D01*
X128979252Y-91541418D01*
X128989161Y-91565339D01*
X128998960Y-91614605D01*
X128998960Y-91664835D01*
X128989161Y-91714101D01*
X128979549Y-91737305D01*
X128969938Y-91760509D01*
X128942032Y-91802273D01*
X128906513Y-91837792D01*
X128864749Y-91865698D01*
X128841544Y-91875310D01*
X128818341Y-91884921D01*
X128769075Y-91894720D01*
X128718845Y-91894720D01*
X128669579Y-91884921D01*
X128646376Y-91875310D01*
X128623171Y-91865698D01*
X128581407Y-91837792D01*
X128545888Y-91802273D01*
X128517982Y-91760509D01*
X128508371Y-91737305D01*
X128498759Y-91714101D01*
X128488960Y-91664835D01*
X128488960Y-91614605D01*
X128498759Y-91565339D01*
X128508668Y-91541418D01*
X128517982Y-91518931D01*
X128545888Y-91477167D01*
X128581407Y-91441648D01*
X128623171Y-91413742D01*
X128646375Y-91404131D01*
X128669579Y-91394519D01*
X128718845Y-91384720D01*
X128769075Y-91384720D01*
X128818341Y-91394519D01*
G37*
G36*
X128178261Y-91394519D02*
G01*
X128201465Y-91404131D01*
X128224669Y-91413742D01*
X128266433Y-91441648D01*
X128301952Y-91477167D01*
X128329858Y-91518931D01*
X128339172Y-91541418D01*
X128349081Y-91565339D01*
X128358880Y-91614605D01*
X128358880Y-91664835D01*
X128349081Y-91714101D01*
X128339469Y-91737305D01*
X128329858Y-91760509D01*
X128301952Y-91802273D01*
X128266433Y-91837792D01*
X128224669Y-91865698D01*
X128201464Y-91875310D01*
X128178261Y-91884921D01*
X128128995Y-91894720D01*
X128078765Y-91894720D01*
X128029499Y-91884921D01*
X128006296Y-91875310D01*
X127983091Y-91865698D01*
X127941327Y-91837792D01*
X127905808Y-91802273D01*
X127877902Y-91760509D01*
X127868291Y-91737305D01*
X127858679Y-91714101D01*
X127848880Y-91664835D01*
X127848880Y-91614605D01*
X127858679Y-91565339D01*
X127868588Y-91541418D01*
X127877902Y-91518931D01*
X127905808Y-91477167D01*
X127941327Y-91441648D01*
X127983091Y-91413742D01*
X128006295Y-91404131D01*
X128029499Y-91394519D01*
X128078765Y-91384720D01*
X128128995Y-91384720D01*
X128178261Y-91394519D01*
G37*
G36*
X136494221Y-91389439D02*
G01*
X136512617Y-91397059D01*
X136540629Y-91408662D01*
X136582393Y-91436568D01*
X136617912Y-91472087D01*
X136645818Y-91513851D01*
X136652126Y-91529081D01*
X136665041Y-91560259D01*
X136674840Y-91609525D01*
X136674840Y-91659755D01*
X136665041Y-91709021D01*
X136655429Y-91732225D01*
X136645818Y-91755429D01*
X136617912Y-91797193D01*
X136582393Y-91832712D01*
X136540629Y-91860618D01*
X136522232Y-91868238D01*
X136494221Y-91879841D01*
X136444955Y-91889640D01*
X136394725Y-91889640D01*
X136345459Y-91879841D01*
X136317448Y-91868238D01*
X136299051Y-91860618D01*
X136257287Y-91832712D01*
X136221768Y-91797193D01*
X136193862Y-91755429D01*
X136184251Y-91732225D01*
X136174639Y-91709021D01*
X136164840Y-91659755D01*
X136164840Y-91609525D01*
X136174639Y-91560259D01*
X136187554Y-91529081D01*
X136193862Y-91513851D01*
X136221768Y-91472087D01*
X136257287Y-91436568D01*
X136299051Y-91408662D01*
X136327063Y-91397059D01*
X136345459Y-91389439D01*
X136394725Y-91379640D01*
X136444955Y-91379640D01*
X136494221Y-91389439D01*
G37*
G36*
X135854141Y-91389439D02*
G01*
X135872537Y-91397059D01*
X135900549Y-91408662D01*
X135942313Y-91436568D01*
X135977832Y-91472087D01*
X136005738Y-91513851D01*
X136012046Y-91529081D01*
X136024961Y-91560259D01*
X136034760Y-91609525D01*
X136034760Y-91659755D01*
X136024961Y-91709021D01*
X136015349Y-91732225D01*
X136005738Y-91755429D01*
X135977832Y-91797193D01*
X135942313Y-91832712D01*
X135900549Y-91860618D01*
X135882152Y-91868238D01*
X135854141Y-91879841D01*
X135804875Y-91889640D01*
X135754645Y-91889640D01*
X135705379Y-91879841D01*
X135677368Y-91868238D01*
X135658971Y-91860618D01*
X135617207Y-91832712D01*
X135581688Y-91797193D01*
X135553782Y-91755429D01*
X135544171Y-91732225D01*
X135534559Y-91709021D01*
X135524760Y-91659755D01*
X135524760Y-91609525D01*
X135534559Y-91560259D01*
X135547474Y-91529081D01*
X135553782Y-91513851D01*
X135581688Y-91472087D01*
X135617207Y-91436568D01*
X135658971Y-91408662D01*
X135686983Y-91397059D01*
X135705379Y-91389439D01*
X135754645Y-91379640D01*
X135804875Y-91379640D01*
X135854141Y-91389439D01*
G37*
G36*
X135214061Y-91389439D02*
G01*
X135232457Y-91397059D01*
X135260469Y-91408662D01*
X135302233Y-91436568D01*
X135337752Y-91472087D01*
X135365658Y-91513851D01*
X135371966Y-91529081D01*
X135384881Y-91560259D01*
X135394680Y-91609525D01*
X135394680Y-91659755D01*
X135384881Y-91709021D01*
X135375269Y-91732225D01*
X135365658Y-91755429D01*
X135337752Y-91797193D01*
X135302233Y-91832712D01*
X135260469Y-91860618D01*
X135242072Y-91868238D01*
X135214061Y-91879841D01*
X135164795Y-91889640D01*
X135114565Y-91889640D01*
X135065299Y-91879841D01*
X135037288Y-91868238D01*
X135018891Y-91860618D01*
X134977127Y-91832712D01*
X134941608Y-91797193D01*
X134913702Y-91755429D01*
X134904091Y-91732225D01*
X134894479Y-91709021D01*
X134884680Y-91659755D01*
X134884680Y-91609525D01*
X134894479Y-91560259D01*
X134907394Y-91529081D01*
X134913702Y-91513851D01*
X134941608Y-91472087D01*
X134977127Y-91436568D01*
X135018891Y-91408662D01*
X135046903Y-91397059D01*
X135065299Y-91389439D01*
X135114565Y-91379640D01*
X135164795Y-91379640D01*
X135214061Y-91389439D01*
G37*
G36*
X134574061Y-91389439D02*
G01*
X134592457Y-91397059D01*
X134620469Y-91408662D01*
X134662233Y-91436568D01*
X134697752Y-91472087D01*
X134725658Y-91513851D01*
X134731966Y-91529081D01*
X134744881Y-91560259D01*
X134754680Y-91609525D01*
X134754680Y-91659755D01*
X134744881Y-91709021D01*
X134735269Y-91732225D01*
X134725658Y-91755429D01*
X134697752Y-91797193D01*
X134662233Y-91832712D01*
X134620469Y-91860618D01*
X134602072Y-91868238D01*
X134574061Y-91879841D01*
X134524795Y-91889640D01*
X134474565Y-91889640D01*
X134425299Y-91879841D01*
X134397288Y-91868238D01*
X134378891Y-91860618D01*
X134337127Y-91832712D01*
X134301608Y-91797193D01*
X134273702Y-91755429D01*
X134264091Y-91732225D01*
X134254479Y-91709021D01*
X134244680Y-91659755D01*
X134244680Y-91609525D01*
X134254479Y-91560259D01*
X134267394Y-91529081D01*
X134273702Y-91513851D01*
X134301608Y-91472087D01*
X134337127Y-91436568D01*
X134378891Y-91408662D01*
X134406903Y-91397059D01*
X134425299Y-91389439D01*
X134474565Y-91379640D01*
X134524795Y-91379640D01*
X134574061Y-91389439D01*
G37*
G36*
X124289558Y-90906781D02*
G01*
X124349614Y-90931658D01*
X124403663Y-90967772D01*
X124449628Y-91013737D01*
X124485742Y-91067786D01*
X124510619Y-91127842D01*
X124523300Y-91191598D01*
X124523300Y-91256602D01*
X124510619Y-91320358D01*
X124485742Y-91380414D01*
X124449628Y-91434463D01*
X124403663Y-91480428D01*
X124349614Y-91516542D01*
X124289558Y-91541419D01*
X124225802Y-91554100D01*
X124160798Y-91554100D01*
X124097042Y-91541419D01*
X124036986Y-91516542D01*
X123982937Y-91480428D01*
X123936972Y-91434463D01*
X123900858Y-91380414D01*
X123875981Y-91320358D01*
X123863300Y-91256602D01*
X123863300Y-91191598D01*
X123875981Y-91127842D01*
X123900858Y-91067786D01*
X123936972Y-91013737D01*
X123982937Y-90967772D01*
X124036986Y-90931658D01*
X124097042Y-90906781D01*
X124160798Y-90894100D01*
X124225802Y-90894100D01*
X124289558Y-90906781D01*
G37*
G36*
X137789658Y-90335281D02*
G01*
X137849714Y-90360158D01*
X137903763Y-90396272D01*
X137949728Y-90442237D01*
X137985842Y-90496286D01*
X138010719Y-90556342D01*
X138023400Y-90620098D01*
X138023400Y-90685102D01*
X138010719Y-90748858D01*
X137985842Y-90808914D01*
X137949728Y-90862963D01*
X137903763Y-90908928D01*
X137849714Y-90945042D01*
X137789658Y-90969919D01*
X137725902Y-90982600D01*
X137660898Y-90982600D01*
X137597142Y-90969919D01*
X137537086Y-90945042D01*
X137483037Y-90908928D01*
X137437072Y-90862963D01*
X137400958Y-90808914D01*
X137376081Y-90748858D01*
X137363400Y-90685102D01*
X137363400Y-90620098D01*
X137376081Y-90556342D01*
X137400958Y-90496286D01*
X137437072Y-90442237D01*
X137483037Y-90396272D01*
X137537086Y-90360158D01*
X137597142Y-90335281D01*
X137660898Y-90322600D01*
X137725902Y-90322600D01*
X137789658Y-90335281D01*
G37*
G36*
X127094558Y-90253781D02*
G01*
X127154614Y-90278658D01*
X127208663Y-90314772D01*
X127254628Y-90360737D01*
X127290742Y-90414786D01*
X127315619Y-90474842D01*
X127328300Y-90538598D01*
X127328300Y-90603602D01*
X127315619Y-90667358D01*
X127290742Y-90727414D01*
X127254628Y-90781463D01*
X127208663Y-90827428D01*
X127154614Y-90863542D01*
X127094558Y-90888419D01*
X127030802Y-90901100D01*
X126965798Y-90901100D01*
X126902042Y-90888419D01*
X126841986Y-90863542D01*
X126787937Y-90827428D01*
X126741972Y-90781463D01*
X126705858Y-90727414D01*
X126680981Y-90667358D01*
X126668300Y-90603602D01*
X126668300Y-90538598D01*
X126680981Y-90474842D01*
X126705858Y-90414786D01*
X126741972Y-90360737D01*
X126787937Y-90314772D01*
X126841986Y-90278658D01*
X126902042Y-90253781D01*
X126965798Y-90241100D01*
X127030802Y-90241100D01*
X127094558Y-90253781D01*
G37*
G36*
X127994558Y-90253781D02*
G01*
X128054614Y-90278658D01*
X128108663Y-90314772D01*
X128154628Y-90360737D01*
X128190742Y-90414786D01*
X128215619Y-90474842D01*
X128228300Y-90538598D01*
X128228300Y-90603602D01*
X128215619Y-90667358D01*
X128190742Y-90727414D01*
X128154628Y-90781463D01*
X128108663Y-90827428D01*
X128054614Y-90863542D01*
X127994558Y-90888419D01*
X127930802Y-90901100D01*
X127865798Y-90901100D01*
X127802042Y-90888419D01*
X127741986Y-90863542D01*
X127687937Y-90827428D01*
X127641972Y-90781463D01*
X127605858Y-90727414D01*
X127580981Y-90667358D01*
X127568300Y-90603602D01*
X127568300Y-90538598D01*
X127580981Y-90474842D01*
X127605858Y-90414786D01*
X127641972Y-90360737D01*
X127687937Y-90314772D01*
X127741986Y-90278658D01*
X127802042Y-90253781D01*
X127865798Y-90241100D01*
X127930802Y-90241100D01*
X127994558Y-90253781D01*
G37*
G36*
X128894558Y-90253781D02*
G01*
X128954614Y-90278658D01*
X129008663Y-90314772D01*
X129054628Y-90360737D01*
X129090742Y-90414786D01*
X129115619Y-90474842D01*
X129128300Y-90538598D01*
X129128300Y-90603602D01*
X129115619Y-90667358D01*
X129090742Y-90727414D01*
X129054628Y-90781463D01*
X129008663Y-90827428D01*
X128954614Y-90863542D01*
X128894558Y-90888419D01*
X128830802Y-90901100D01*
X128765798Y-90901100D01*
X128702042Y-90888419D01*
X128641986Y-90863542D01*
X128587937Y-90827428D01*
X128541972Y-90781463D01*
X128505858Y-90727414D01*
X128480981Y-90667358D01*
X128468300Y-90603602D01*
X128468300Y-90538598D01*
X128480981Y-90474842D01*
X128505858Y-90414786D01*
X128541972Y-90360737D01*
X128587937Y-90314772D01*
X128641986Y-90278658D01*
X128702042Y-90253781D01*
X128765798Y-90241100D01*
X128830802Y-90241100D01*
X128894558Y-90253781D01*
G37*
G36*
X129794558Y-90253781D02*
G01*
X129854614Y-90278658D01*
X129908663Y-90314772D01*
X129954628Y-90360737D01*
X129990742Y-90414786D01*
X130015619Y-90474842D01*
X130028300Y-90538598D01*
X130028300Y-90603602D01*
X130015619Y-90667358D01*
X129990742Y-90727414D01*
X129954628Y-90781463D01*
X129908663Y-90827428D01*
X129854614Y-90863542D01*
X129794558Y-90888419D01*
X129730802Y-90901100D01*
X129665798Y-90901100D01*
X129602042Y-90888419D01*
X129541986Y-90863542D01*
X129487937Y-90827428D01*
X129441972Y-90781463D01*
X129405858Y-90727414D01*
X129380981Y-90667358D01*
X129368300Y-90603602D01*
X129368300Y-90538598D01*
X129380981Y-90474842D01*
X129405858Y-90414786D01*
X129441972Y-90360737D01*
X129487937Y-90314772D01*
X129541986Y-90278658D01*
X129602042Y-90253781D01*
X129665798Y-90241100D01*
X129730802Y-90241100D01*
X129794558Y-90253781D01*
G37*
G36*
X130694558Y-90253781D02*
G01*
X130754614Y-90278658D01*
X130808663Y-90314772D01*
X130854628Y-90360737D01*
X130890742Y-90414786D01*
X130915619Y-90474842D01*
X130928300Y-90538598D01*
X130928300Y-90603602D01*
X130915619Y-90667358D01*
X130890742Y-90727414D01*
X130854628Y-90781463D01*
X130808663Y-90827428D01*
X130754614Y-90863542D01*
X130694558Y-90888419D01*
X130630802Y-90901100D01*
X130565798Y-90901100D01*
X130502042Y-90888419D01*
X130441986Y-90863542D01*
X130387937Y-90827428D01*
X130341972Y-90781463D01*
X130305858Y-90727414D01*
X130280981Y-90667358D01*
X130268300Y-90603602D01*
X130268300Y-90538598D01*
X130280981Y-90474842D01*
X130305858Y-90414786D01*
X130341972Y-90360737D01*
X130387937Y-90314772D01*
X130441986Y-90278658D01*
X130502042Y-90253781D01*
X130565798Y-90241100D01*
X130630802Y-90241100D01*
X130694558Y-90253781D01*
G37*
G36*
X131594558Y-90253781D02*
G01*
X131654614Y-90278658D01*
X131708663Y-90314772D01*
X131754628Y-90360737D01*
X131790742Y-90414786D01*
X131815619Y-90474842D01*
X131828300Y-90538598D01*
X131828300Y-90603602D01*
X131815619Y-90667358D01*
X131790742Y-90727414D01*
X131754628Y-90781463D01*
X131708663Y-90827428D01*
X131654614Y-90863542D01*
X131594558Y-90888419D01*
X131530802Y-90901100D01*
X131465798Y-90901100D01*
X131402042Y-90888419D01*
X131341986Y-90863542D01*
X131287937Y-90827428D01*
X131241972Y-90781463D01*
X131205858Y-90727414D01*
X131180981Y-90667358D01*
X131168300Y-90603602D01*
X131168300Y-90538598D01*
X131180981Y-90474842D01*
X131205858Y-90414786D01*
X131241972Y-90360737D01*
X131287937Y-90314772D01*
X131341986Y-90278658D01*
X131402042Y-90253781D01*
X131465798Y-90241100D01*
X131530802Y-90241100D01*
X131594558Y-90253781D01*
G37*
G36*
X136092058Y-90249081D02*
G01*
X136152114Y-90273958D01*
X136206163Y-90310072D01*
X136252128Y-90356037D01*
X136288242Y-90410086D01*
X136313119Y-90470142D01*
X136325800Y-90533898D01*
X136325800Y-90598902D01*
X136313119Y-90662658D01*
X136288242Y-90722714D01*
X136252128Y-90776763D01*
X136206163Y-90822728D01*
X136152114Y-90858842D01*
X136092058Y-90883719D01*
X136028302Y-90896400D01*
X135963298Y-90896400D01*
X135899542Y-90883719D01*
X135839486Y-90858842D01*
X135785437Y-90822728D01*
X135739472Y-90776763D01*
X135703358Y-90722714D01*
X135678481Y-90662658D01*
X135665800Y-90598902D01*
X135665800Y-90533898D01*
X135678481Y-90470142D01*
X135703358Y-90410086D01*
X135739472Y-90356037D01*
X135785437Y-90310072D01*
X135839486Y-90273958D01*
X135899542Y-90249081D01*
X135963298Y-90236400D01*
X136028302Y-90236400D01*
X136092058Y-90249081D01*
G37*
G36*
X135192058Y-90249081D02*
G01*
X135252114Y-90273958D01*
X135306163Y-90310072D01*
X135352128Y-90356037D01*
X135388242Y-90410086D01*
X135413119Y-90470142D01*
X135425800Y-90533898D01*
X135425800Y-90598902D01*
X135413119Y-90662658D01*
X135388242Y-90722714D01*
X135352128Y-90776763D01*
X135306163Y-90822728D01*
X135252114Y-90858842D01*
X135192058Y-90883719D01*
X135128302Y-90896400D01*
X135063298Y-90896400D01*
X134999542Y-90883719D01*
X134939486Y-90858842D01*
X134885437Y-90822728D01*
X134839472Y-90776763D01*
X134803358Y-90722714D01*
X134778481Y-90662658D01*
X134765800Y-90598902D01*
X134765800Y-90533898D01*
X134778481Y-90470142D01*
X134803358Y-90410086D01*
X134839472Y-90356037D01*
X134885437Y-90310072D01*
X134939486Y-90273958D01*
X134999542Y-90249081D01*
X135063298Y-90236400D01*
X135128302Y-90236400D01*
X135192058Y-90249081D01*
G37*
G36*
X133392058Y-90249081D02*
G01*
X133452114Y-90273958D01*
X133506163Y-90310072D01*
X133552128Y-90356037D01*
X133588242Y-90410086D01*
X133613119Y-90470142D01*
X133625800Y-90533898D01*
X133625800Y-90598902D01*
X133613119Y-90662658D01*
X133588242Y-90722714D01*
X133552128Y-90776763D01*
X133506163Y-90822728D01*
X133452114Y-90858842D01*
X133392058Y-90883719D01*
X133328302Y-90896400D01*
X133263298Y-90896400D01*
X133199542Y-90883719D01*
X133139486Y-90858842D01*
X133085437Y-90822728D01*
X133039472Y-90776763D01*
X133003358Y-90722714D01*
X132978481Y-90662658D01*
X132965800Y-90598902D01*
X132965800Y-90533898D01*
X132978481Y-90470142D01*
X133003358Y-90410086D01*
X133039472Y-90356037D01*
X133085437Y-90310072D01*
X133139486Y-90273958D01*
X133199542Y-90249081D01*
X133263298Y-90236400D01*
X133328302Y-90236400D01*
X133392058Y-90249081D01*
G37*
G36*
X134292058Y-90249081D02*
G01*
X134352114Y-90273958D01*
X134406163Y-90310072D01*
X134452128Y-90356037D01*
X134488242Y-90410086D01*
X134513119Y-90470142D01*
X134525800Y-90533898D01*
X134525800Y-90598902D01*
X134513119Y-90662658D01*
X134488242Y-90722714D01*
X134452128Y-90776763D01*
X134406163Y-90822728D01*
X134352114Y-90858842D01*
X134292058Y-90883719D01*
X134228302Y-90896400D01*
X134163298Y-90896400D01*
X134099542Y-90883719D01*
X134039486Y-90858842D01*
X133985437Y-90822728D01*
X133939472Y-90776763D01*
X133903358Y-90722714D01*
X133878481Y-90662658D01*
X133865800Y-90598902D01*
X133865800Y-90533898D01*
X133878481Y-90470142D01*
X133903358Y-90410086D01*
X133939472Y-90356037D01*
X133985437Y-90310072D01*
X134039486Y-90273958D01*
X134099542Y-90249081D01*
X134163298Y-90236400D01*
X134228302Y-90236400D01*
X134292058Y-90249081D01*
G37*
G36*
X132492058Y-90249081D02*
G01*
X132552114Y-90273958D01*
X132606163Y-90310072D01*
X132652128Y-90356037D01*
X132688242Y-90410086D01*
X132713119Y-90470142D01*
X132725800Y-90533898D01*
X132725800Y-90598902D01*
X132713119Y-90662658D01*
X132688242Y-90722714D01*
X132652128Y-90776763D01*
X132606163Y-90822728D01*
X132552114Y-90858842D01*
X132492058Y-90883719D01*
X132428302Y-90896400D01*
X132363298Y-90896400D01*
X132299542Y-90883719D01*
X132239486Y-90858842D01*
X132185437Y-90822728D01*
X132139472Y-90776763D01*
X132103358Y-90722714D01*
X132078481Y-90662658D01*
X132065800Y-90598902D01*
X132065800Y-90533898D01*
X132078481Y-90470142D01*
X132103358Y-90410086D01*
X132139472Y-90356037D01*
X132185437Y-90310072D01*
X132239486Y-90273958D01*
X132299542Y-90249081D01*
X132363298Y-90236400D01*
X132428302Y-90236400D01*
X132492058Y-90249081D01*
G37*
G36*
X126263138Y-90208281D02*
G01*
X126323194Y-90233158D01*
X126377243Y-90269272D01*
X126423208Y-90315237D01*
X126459322Y-90369286D01*
X126484199Y-90429342D01*
X126496880Y-90493098D01*
X126496880Y-90558102D01*
X126484199Y-90621858D01*
X126459322Y-90681914D01*
X126423208Y-90735963D01*
X126377243Y-90781928D01*
X126323194Y-90818042D01*
X126263138Y-90842919D01*
X126199382Y-90855600D01*
X126134378Y-90855600D01*
X126070622Y-90842919D01*
X126010566Y-90818042D01*
X125956517Y-90781928D01*
X125910552Y-90735963D01*
X125874438Y-90681914D01*
X125849561Y-90621858D01*
X125836880Y-90558102D01*
X125836880Y-90493098D01*
X125849561Y-90429342D01*
X125874438Y-90369286D01*
X125910552Y-90315237D01*
X125956517Y-90269272D01*
X126010566Y-90233158D01*
X126070622Y-90208281D01*
X126134378Y-90195600D01*
X126199382Y-90195600D01*
X126263138Y-90208281D01*
G37*
G36*
X124459738Y-89845061D02*
G01*
X124519794Y-89869938D01*
X124573843Y-89906052D01*
X124619808Y-89952017D01*
X124655922Y-90006066D01*
X124680799Y-90066122D01*
X124693480Y-90129878D01*
X124693480Y-90194882D01*
X124680799Y-90258638D01*
X124655922Y-90318694D01*
X124619808Y-90372743D01*
X124573843Y-90418708D01*
X124519794Y-90454822D01*
X124459738Y-90479699D01*
X124395982Y-90492380D01*
X124330978Y-90492380D01*
X124267222Y-90479699D01*
X124207166Y-90454822D01*
X124153117Y-90418708D01*
X124107152Y-90372743D01*
X124071038Y-90318694D01*
X124046161Y-90258638D01*
X124033480Y-90194882D01*
X124033480Y-90129878D01*
X124046161Y-90066122D01*
X124071038Y-90006066D01*
X124107152Y-89952017D01*
X124153117Y-89906052D01*
X124207166Y-89869938D01*
X124267222Y-89845061D01*
X124330978Y-89832380D01*
X124395982Y-89832380D01*
X124459738Y-89845061D01*
G37*
G36*
X137129258Y-89344681D02*
G01*
X137189314Y-89369558D01*
X137243363Y-89405672D01*
X137289328Y-89451637D01*
X137325442Y-89505686D01*
X137350319Y-89565742D01*
X137363000Y-89629498D01*
X137363000Y-89694502D01*
X137350319Y-89758258D01*
X137325442Y-89818314D01*
X137289328Y-89872363D01*
X137243363Y-89918328D01*
X137189314Y-89954442D01*
X137129258Y-89979319D01*
X137065502Y-89992000D01*
X137000498Y-89992000D01*
X136936742Y-89979319D01*
X136876686Y-89954442D01*
X136822637Y-89918328D01*
X136776672Y-89872363D01*
X136740558Y-89818314D01*
X136715681Y-89758258D01*
X136703000Y-89694502D01*
X136703000Y-89629498D01*
X136715681Y-89565742D01*
X136740558Y-89505686D01*
X136776672Y-89451637D01*
X136822637Y-89405672D01*
X136876686Y-89369558D01*
X136936742Y-89344681D01*
X137000498Y-89332000D01*
X137065502Y-89332000D01*
X137129258Y-89344681D01*
G37*
G36*
X125150618Y-89080521D02*
G01*
X125210674Y-89105398D01*
X125264723Y-89141512D01*
X125310688Y-89187477D01*
X125346802Y-89241526D01*
X125371679Y-89301582D01*
X125384360Y-89365338D01*
X125384360Y-89430342D01*
X125371679Y-89494098D01*
X125346802Y-89554154D01*
X125310688Y-89608203D01*
X125264723Y-89654168D01*
X125210674Y-89690282D01*
X125150618Y-89715159D01*
X125086862Y-89727840D01*
X125021858Y-89727840D01*
X124958102Y-89715159D01*
X124898046Y-89690282D01*
X124843997Y-89654168D01*
X124798032Y-89608203D01*
X124761918Y-89554154D01*
X124737041Y-89494098D01*
X124724360Y-89430342D01*
X124724360Y-89365338D01*
X124737041Y-89301582D01*
X124761918Y-89241526D01*
X124798032Y-89187477D01*
X124843997Y-89141512D01*
X124898046Y-89105398D01*
X124958102Y-89080521D01*
X125021858Y-89067840D01*
X125086862Y-89067840D01*
X125150618Y-89080521D01*
G37*
G36*
X133406458Y-88911781D02*
G01*
X133466514Y-88936658D01*
X133520563Y-88972772D01*
X133566528Y-89018737D01*
X133602642Y-89072786D01*
X133627519Y-89132842D01*
X133640200Y-89196598D01*
X133640200Y-89261602D01*
X133627519Y-89325358D01*
X133602642Y-89385414D01*
X133566528Y-89439463D01*
X133520563Y-89485428D01*
X133466514Y-89521542D01*
X133406458Y-89546419D01*
X133342702Y-89559100D01*
X133277698Y-89559100D01*
X133213942Y-89546419D01*
X133153886Y-89521542D01*
X133099837Y-89485428D01*
X133053872Y-89439463D01*
X133017758Y-89385414D01*
X132992881Y-89325358D01*
X132980200Y-89261602D01*
X132980200Y-89196598D01*
X132992881Y-89132842D01*
X133017758Y-89072786D01*
X133053872Y-89018737D01*
X133099837Y-88972772D01*
X133153886Y-88936658D01*
X133213942Y-88911781D01*
X133277698Y-88899100D01*
X133342702Y-88899100D01*
X133406458Y-88911781D01*
G37*
G36*
X128897958Y-88911781D02*
G01*
X128958014Y-88936658D01*
X129012063Y-88972772D01*
X129058028Y-89018737D01*
X129094142Y-89072786D01*
X129119019Y-89132842D01*
X129131700Y-89196598D01*
X129131700Y-89261602D01*
X129119019Y-89325358D01*
X129094142Y-89385414D01*
X129058028Y-89439463D01*
X129012063Y-89485428D01*
X128958014Y-89521542D01*
X128897958Y-89546419D01*
X128834202Y-89559100D01*
X128769198Y-89559100D01*
X128705442Y-89546419D01*
X128645386Y-89521542D01*
X128591337Y-89485428D01*
X128545372Y-89439463D01*
X128509258Y-89385414D01*
X128484381Y-89325358D01*
X128471700Y-89261602D01*
X128471700Y-89196598D01*
X128484381Y-89132842D01*
X128509258Y-89072786D01*
X128545372Y-89018737D01*
X128591337Y-88972772D01*
X128645386Y-88936658D01*
X128705442Y-88911781D01*
X128769198Y-88899100D01*
X128834202Y-88899100D01*
X128897958Y-88911781D01*
G37*
G36*
X127997958Y-88911781D02*
G01*
X128058014Y-88936658D01*
X128112063Y-88972772D01*
X128158028Y-89018737D01*
X128194142Y-89072786D01*
X128219019Y-89132842D01*
X128231700Y-89196598D01*
X128231700Y-89261602D01*
X128219019Y-89325358D01*
X128194142Y-89385414D01*
X128158028Y-89439463D01*
X128112063Y-89485428D01*
X128058014Y-89521542D01*
X127997958Y-89546419D01*
X127934202Y-89559100D01*
X127869198Y-89559100D01*
X127805442Y-89546419D01*
X127745386Y-89521542D01*
X127691337Y-89485428D01*
X127645372Y-89439463D01*
X127609258Y-89385414D01*
X127584381Y-89325358D01*
X127571700Y-89261602D01*
X127571700Y-89196598D01*
X127584381Y-89132842D01*
X127609258Y-89072786D01*
X127645372Y-89018737D01*
X127691337Y-88972772D01*
X127745386Y-88936658D01*
X127805442Y-88911781D01*
X127869198Y-88899100D01*
X127934202Y-88899100D01*
X127997958Y-88911781D01*
G37*
G36*
X127097958Y-88911781D02*
G01*
X127158014Y-88936658D01*
X127212063Y-88972772D01*
X127258028Y-89018737D01*
X127294142Y-89072786D01*
X127319019Y-89132842D01*
X127331700Y-89196598D01*
X127331700Y-89261602D01*
X127319019Y-89325358D01*
X127294142Y-89385414D01*
X127258028Y-89439463D01*
X127212063Y-89485428D01*
X127158014Y-89521542D01*
X127097958Y-89546419D01*
X127034202Y-89559100D01*
X126969198Y-89559100D01*
X126905442Y-89546419D01*
X126845386Y-89521542D01*
X126791337Y-89485428D01*
X126745372Y-89439463D01*
X126709258Y-89385414D01*
X126684381Y-89325358D01*
X126671700Y-89261602D01*
X126671700Y-89196598D01*
X126684381Y-89132842D01*
X126709258Y-89072786D01*
X126745372Y-89018737D01*
X126791337Y-88972772D01*
X126845386Y-88936658D01*
X126905442Y-88911781D01*
X126969198Y-88899100D01*
X127034202Y-88899100D01*
X127097958Y-88911781D01*
G37*
G36*
X134306458Y-88911781D02*
G01*
X134366514Y-88936658D01*
X134420563Y-88972772D01*
X134466528Y-89018737D01*
X134502642Y-89072786D01*
X134527519Y-89132842D01*
X134540200Y-89196598D01*
X134540200Y-89261602D01*
X134527519Y-89325358D01*
X134502642Y-89385414D01*
X134466528Y-89439463D01*
X134420563Y-89485428D01*
X134366514Y-89521542D01*
X134306458Y-89546419D01*
X134242702Y-89559100D01*
X134177698Y-89559100D01*
X134113942Y-89546419D01*
X134053886Y-89521542D01*
X133999837Y-89485428D01*
X133953872Y-89439463D01*
X133917758Y-89385414D01*
X133892881Y-89325358D01*
X133880200Y-89261602D01*
X133880200Y-89196598D01*
X133892881Y-89132842D01*
X133917758Y-89072786D01*
X133953872Y-89018737D01*
X133999837Y-88972772D01*
X134053886Y-88936658D01*
X134113942Y-88911781D01*
X134177698Y-88899100D01*
X134242702Y-88899100D01*
X134306458Y-88911781D01*
G37*
G36*
X135197958Y-88911781D02*
G01*
X135258014Y-88936658D01*
X135312063Y-88972772D01*
X135358028Y-89018737D01*
X135394142Y-89072786D01*
X135419019Y-89132842D01*
X135431700Y-89196598D01*
X135431700Y-89261602D01*
X135419019Y-89325358D01*
X135394142Y-89385414D01*
X135358028Y-89439463D01*
X135312063Y-89485428D01*
X135258014Y-89521542D01*
X135197958Y-89546419D01*
X135134202Y-89559100D01*
X135069198Y-89559100D01*
X135005442Y-89546419D01*
X134945386Y-89521542D01*
X134891337Y-89485428D01*
X134845372Y-89439463D01*
X134809258Y-89385414D01*
X134784381Y-89325358D01*
X134771700Y-89261602D01*
X134771700Y-89196598D01*
X134784381Y-89132842D01*
X134809258Y-89072786D01*
X134845372Y-89018737D01*
X134891337Y-88972772D01*
X134945386Y-88936658D01*
X135005442Y-88911781D01*
X135069198Y-88899100D01*
X135134202Y-88899100D01*
X135197958Y-88911781D01*
G37*
G36*
X136097958Y-88911781D02*
G01*
X136158014Y-88936658D01*
X136212063Y-88972772D01*
X136258028Y-89018737D01*
X136294142Y-89072786D01*
X136319019Y-89132842D01*
X136331700Y-89196598D01*
X136331700Y-89261602D01*
X136319019Y-89325358D01*
X136294142Y-89385414D01*
X136258028Y-89439463D01*
X136212063Y-89485428D01*
X136158014Y-89521542D01*
X136097958Y-89546419D01*
X136034202Y-89559100D01*
X135969198Y-89559100D01*
X135905442Y-89546419D01*
X135845386Y-89521542D01*
X135791337Y-89485428D01*
X135745372Y-89439463D01*
X135709258Y-89385414D01*
X135684381Y-89325358D01*
X135671700Y-89261602D01*
X135671700Y-89196598D01*
X135684381Y-89132842D01*
X135709258Y-89072786D01*
X135745372Y-89018737D01*
X135791337Y-88972772D01*
X135845386Y-88936658D01*
X135905442Y-88911781D01*
X135969198Y-88899100D01*
X136034202Y-88899100D01*
X136097958Y-88911781D01*
G37*
G36*
X132497958Y-88911781D02*
G01*
X132558014Y-88936658D01*
X132612063Y-88972772D01*
X132658028Y-89018737D01*
X132694142Y-89072786D01*
X132719019Y-89132842D01*
X132731700Y-89196598D01*
X132731700Y-89261602D01*
X132719019Y-89325358D01*
X132694142Y-89385414D01*
X132658028Y-89439463D01*
X132612063Y-89485428D01*
X132558014Y-89521542D01*
X132497958Y-89546419D01*
X132434202Y-89559100D01*
X132369198Y-89559100D01*
X132305442Y-89546419D01*
X132245386Y-89521542D01*
X132191337Y-89485428D01*
X132145372Y-89439463D01*
X132109258Y-89385414D01*
X132084381Y-89325358D01*
X132071700Y-89261602D01*
X132071700Y-89196598D01*
X132084381Y-89132842D01*
X132109258Y-89072786D01*
X132145372Y-89018737D01*
X132191337Y-88972772D01*
X132245386Y-88936658D01*
X132305442Y-88911781D01*
X132369198Y-88899100D01*
X132434202Y-88899100D01*
X132497958Y-88911781D01*
G37*
G36*
X129797958Y-88911781D02*
G01*
X129858014Y-88936658D01*
X129912063Y-88972772D01*
X129958028Y-89018737D01*
X129994142Y-89072786D01*
X130019019Y-89132842D01*
X130031700Y-89196598D01*
X130031700Y-89261602D01*
X130019019Y-89325358D01*
X129994142Y-89385414D01*
X129958028Y-89439463D01*
X129912063Y-89485428D01*
X129858014Y-89521542D01*
X129797958Y-89546419D01*
X129734202Y-89559100D01*
X129669198Y-89559100D01*
X129605442Y-89546419D01*
X129545386Y-89521542D01*
X129491337Y-89485428D01*
X129445372Y-89439463D01*
X129409258Y-89385414D01*
X129384381Y-89325358D01*
X129371700Y-89261602D01*
X129371700Y-89196598D01*
X129384381Y-89132842D01*
X129409258Y-89072786D01*
X129445372Y-89018737D01*
X129491337Y-88972772D01*
X129545386Y-88936658D01*
X129605442Y-88911781D01*
X129669198Y-88899100D01*
X129734202Y-88899100D01*
X129797958Y-88911781D01*
G37*
G36*
X131597958Y-88911781D02*
G01*
X131658014Y-88936658D01*
X131712063Y-88972772D01*
X131758028Y-89018737D01*
X131794142Y-89072786D01*
X131819019Y-89132842D01*
X131831700Y-89196598D01*
X131831700Y-89261602D01*
X131819019Y-89325358D01*
X131794142Y-89385414D01*
X131758028Y-89439463D01*
X131712063Y-89485428D01*
X131658014Y-89521542D01*
X131597958Y-89546419D01*
X131534202Y-89559100D01*
X131469198Y-89559100D01*
X131405442Y-89546419D01*
X131345386Y-89521542D01*
X131291337Y-89485428D01*
X131245372Y-89439463D01*
X131209258Y-89385414D01*
X131184381Y-89325358D01*
X131171700Y-89261602D01*
X131171700Y-89196598D01*
X131184381Y-89132842D01*
X131209258Y-89072786D01*
X131245372Y-89018737D01*
X131291337Y-88972772D01*
X131345386Y-88936658D01*
X131405442Y-88911781D01*
X131469198Y-88899100D01*
X131534202Y-88899100D01*
X131597958Y-88911781D01*
G37*
G36*
X130697958Y-88911781D02*
G01*
X130758014Y-88936658D01*
X130812063Y-88972772D01*
X130858028Y-89018737D01*
X130894142Y-89072786D01*
X130919019Y-89132842D01*
X130931700Y-89196598D01*
X130931700Y-89261602D01*
X130919019Y-89325358D01*
X130894142Y-89385414D01*
X130858028Y-89439463D01*
X130812063Y-89485428D01*
X130758014Y-89521542D01*
X130697958Y-89546419D01*
X130634202Y-89559100D01*
X130569198Y-89559100D01*
X130505442Y-89546419D01*
X130445386Y-89521542D01*
X130391337Y-89485428D01*
X130345372Y-89439463D01*
X130309258Y-89385414D01*
X130284381Y-89325358D01*
X130271700Y-89261602D01*
X130271700Y-89196598D01*
X130284381Y-89132842D01*
X130309258Y-89072786D01*
X130345372Y-89018737D01*
X130391337Y-88972772D01*
X130445386Y-88936658D01*
X130505442Y-88911781D01*
X130569198Y-88899100D01*
X130634202Y-88899100D01*
X130697958Y-88911781D01*
G37*
G36*
X126194558Y-88862081D02*
G01*
X126254614Y-88886958D01*
X126308663Y-88923072D01*
X126354628Y-88969037D01*
X126390742Y-89023086D01*
X126415619Y-89083142D01*
X126428300Y-89146898D01*
X126428300Y-89211902D01*
X126415619Y-89275658D01*
X126390742Y-89335714D01*
X126354628Y-89389763D01*
X126308663Y-89435728D01*
X126254614Y-89471842D01*
X126194558Y-89496719D01*
X126130802Y-89509400D01*
X126065798Y-89509400D01*
X126002042Y-89496719D01*
X125941986Y-89471842D01*
X125887937Y-89435728D01*
X125841972Y-89389763D01*
X125805858Y-89335714D01*
X125780981Y-89275658D01*
X125768300Y-89211902D01*
X125768300Y-89146898D01*
X125780981Y-89083142D01*
X125805858Y-89023086D01*
X125841972Y-88969037D01*
X125887937Y-88923072D01*
X125941986Y-88886958D01*
X126002042Y-88862081D01*
X126065798Y-88849400D01*
X126130802Y-88849400D01*
X126194558Y-88862081D01*
G37*
M02*
