G04 #@! TF.GenerationSoftware,KiCad,Pcbnew,(5.1.5)-3*
G04 #@! TF.CreationDate,2020-09-09T17:22:44+01:00*
G04 #@! TF.ProjectId,tight_omnetics,74696768-745f-46f6-9d6e-65746963732e,rev?*
G04 #@! TF.SameCoordinates,Original*
G04 #@! TF.FileFunction,Legend,Top*
G04 #@! TF.FilePolarity,Positive*
%FSLAX46Y46*%
G04 Gerber Fmt 4.6, Leading zero omitted, Abs format (unit mm)*
G04 Created by KiCad (PCBNEW (5.1.5)-3) date 2020-09-09 17:22:44*
%MOMM*%
%LPD*%
G04 APERTURE LIST*
%ADD10C,0.100000*%
%ADD11C,0.120000*%
G04 APERTURE END LIST*
D10*
X125425200Y-89877900D02*
X124561600Y-92938600D01*
X123571000Y-92938600D02*
X124561600Y-92938600D01*
X136570720Y-90957400D02*
X136423400Y-88701880D01*
X136855200Y-90525600D02*
X137160000Y-93599000D01*
X137922000Y-93599000D02*
X137160000Y-93599000D01*
X137160000Y-93878400D02*
X136728200Y-97028000D01*
X134747000Y-90970100D02*
X134594600Y-88734900D01*
X132918200Y-90970100D02*
X132821680Y-88722200D01*
X131140200Y-91020900D02*
X131013200Y-88747600D01*
X129336800Y-90995500D02*
X129240280Y-88752680D01*
X127533400Y-91020900D02*
X127421640Y-88773000D01*
X125679200Y-91033600D02*
X125526800Y-88798400D01*
X125450600Y-98704400D02*
X125653800Y-96570800D01*
X127279400Y-98729800D02*
X127482600Y-96596200D01*
X129057400Y-98729800D02*
X129260600Y-96596200D01*
X130860800Y-98704400D02*
X131064000Y-96570800D01*
X132664200Y-98704400D02*
X132867400Y-96570800D01*
X134442200Y-98780600D02*
X134701280Y-96606360D01*
X136271000Y-98780600D02*
X136550400Y-96611440D01*
X137922000Y-93878400D02*
X137160000Y-93878400D01*
D11*
X125336357Y-93527600D02*
X125279214Y-93499028D01*
X125193500Y-93499028D01*
X125107785Y-93527600D01*
X125050642Y-93584742D01*
X125022071Y-93641885D01*
X124993500Y-93756171D01*
X124993500Y-93841885D01*
X125022071Y-93956171D01*
X125050642Y-94013314D01*
X125107785Y-94070457D01*
X125193500Y-94099028D01*
X125250642Y-94099028D01*
X125336357Y-94070457D01*
X125364928Y-94041885D01*
X125364928Y-93841885D01*
X125250642Y-93841885D01*
X125622071Y-94099028D02*
X125622071Y-93499028D01*
X125964928Y-94099028D01*
X125964928Y-93499028D01*
X126250642Y-94099028D02*
X126250642Y-93499028D01*
X126393500Y-93499028D01*
X126479214Y-93527600D01*
X126536357Y-93584742D01*
X126564928Y-93641885D01*
X126593500Y-93756171D01*
X126593500Y-93841885D01*
X126564928Y-93956171D01*
X126536357Y-94013314D01*
X126479214Y-94070457D01*
X126393500Y-94099028D01*
X126250642Y-94099028D01*
D10*
X124574300Y-94691200D02*
X125336300Y-97751900D01*
X123583700Y-94691200D02*
X124574300Y-94691200D01*
M02*
